M48
INCH,TZ
T1C0.0157
T2C0.0236
T3C0.0280
T4C0.0315
T5C0.0394
T6C0.0472
T7C0.0760
%
G90
G05
T1
X30000Y-49291
X30000Y-51496
X33314Y-50424
X33740Y-45866
X34055Y-48661
X35512Y-43386
X35591Y-42756
X36457Y-42598
X36535Y-50315
X37480Y-45433
X37638Y-47008
X37717Y-24173
X37717Y-42677
X38110Y-47008
X40315Y-25827
X40787Y-27165
X43241Y-45546
X44606Y-40276
X46063Y-53780
X46299Y-53386
X47195Y-40285
X49764Y-55512
X61260Y-24094
X64173Y-25984
X64252Y-26772
X67874Y-51969
X68504Y-53622
X72362Y-55354
X82677Y-49449
X82835Y-26693
X83228Y-26220
X83327Y-23718
X84094Y-49055
X85039Y-37874
X85748Y-45984
X86299Y-37402
X87953Y-34488
T2
X38819Y-48031
X39409Y-48031
T3
X32717Y-46929
X32717Y-47559
X33189Y-46614
X33189Y-47244
X33189Y-47874
T4
X47638Y-37441
X48622Y-37441
X46378Y-19213
X47165Y-19213
X47953Y-19213
X48740Y-19213
X61732Y-60394
X62520Y-60394
X63307Y-60394
X64094Y-60394
X87323Y-19213
X88110Y-19213
X88898Y-19213
X89685Y-19213
X56614Y-19213
X57402Y-19213
X58189Y-19213
X58976Y-19213
X92441Y-19213
X93228Y-19213
X94016Y-19213
X94803Y-19213
X41339Y-37441
X42323Y-37441
X31024Y-19213
X31811Y-19213
X32598Y-19213
X33386Y-19213
X56614Y-60394
X57402Y-60394
X58189Y-60394
X58976Y-60394
X41260Y-60394
X42047Y-60394
X42835Y-60394
X43622Y-60394
X97579Y-19213
X98366Y-19213
X99154Y-19213
X99941Y-19213
X61732Y-19213
X62520Y-19213
X63307Y-19213
X64094Y-19213
X97244Y-33563
X97244Y-34350
X97244Y-35138
X97244Y-35925
X36142Y-19213
X36929Y-19213
X37717Y-19213
X38504Y-19213
X87323Y-60394
X88110Y-60394
X88898Y-60394
X89685Y-60394
X36142Y-60394
X36929Y-60394
X37717Y-60394
X38504Y-60394
X97244Y-28445
X97244Y-29232
X97244Y-30020
X97244Y-30807
X97244Y-23327
X97244Y-24114
X97244Y-24902
X97244Y-25689
X97244Y-43839
X97244Y-44626
X97244Y-45413
X97244Y-46201
X41260Y-19213
X42047Y-19213
X42835Y-19213
X43622Y-19213
X82205Y-60394
X82992Y-60394
X83780Y-60394
X84567Y-60394
X51496Y-60394
X52283Y-60394
X53071Y-60394
X53858Y-60394
X97244Y-38681
X97244Y-39469
X97244Y-40256
X97244Y-41043
X66850Y-19213
X67638Y-19213
X68425Y-19213
X69213Y-19213
X51496Y-19213
X52283Y-19213
X53071Y-19213
X53858Y-19213
X77087Y-60394
X77874Y-60394
X78661Y-60394
X79449Y-60394
X31024Y-60394
X31811Y-60394
X32598Y-60394
X33386Y-60394
X97244Y-54094
X97244Y-54882
X97244Y-55669
X97244Y-56457
X71969Y-19213
X72756Y-19213
X73543Y-19213
X74331Y-19213
X50787Y-37441
X51772Y-37441
X44488Y-37441
X45472Y-37441
X66850Y-60394
X67638Y-60394
X68425Y-60394
X69213Y-60394
X97244Y-48957
X97244Y-49744
X97244Y-50531
X97244Y-51319
X82205Y-19213
X82992Y-19213
X83780Y-19213
X84567Y-19213
X71969Y-60394
X72756Y-60394
X73543Y-60394
X74331Y-60394
X46378Y-60394
X47165Y-60394
X47953Y-60394
X48740Y-60394
X97559Y-60394
X98346Y-60394
X99134Y-60394
X99921Y-60394
X92441Y-60394
X93228Y-60394
X94016Y-60394
X94803Y-60394
X77087Y-19213
X77874Y-19213
X78661Y-19213
X79449Y-19213
T5
X32126Y-52795
X32126Y-53795
X32126Y-54795
X32126Y-55795
X33126Y-52795
X33126Y-53795
X33126Y-54795
X33126Y-55795
X55945Y-30827
X55945Y-31827
X56945Y-30827
X56945Y-31827
X57945Y-30827
X57945Y-31827
X58945Y-30827
X58945Y-31827
X59945Y-30827
X59945Y-31827
X60945Y-30827
X60945Y-31827
X61945Y-30827
X61945Y-31827
X62945Y-30827
X62945Y-31827
X63945Y-30827
X63945Y-31827
X64945Y-30827
X64945Y-31827
X65945Y-30827
X65945Y-31827
X66945Y-30827
X66945Y-31827
X67945Y-30827
X67945Y-31827
X68945Y-30827
X68945Y-31827
X69945Y-30827
X69945Y-31827
X70945Y-30827
X70945Y-31827
X71945Y-30827
X71945Y-31827
X72945Y-30827
X72945Y-31827
X73945Y-30827
X73945Y-31827
X74945Y-30827
X74945Y-31827
X55945Y-47827
X55945Y-48827
X56945Y-47827
X56945Y-48827
X57945Y-47827
X57945Y-48827
X58945Y-47827
X58945Y-48827
X59945Y-47827
X59945Y-48827
X60945Y-47827
X60945Y-48827
X61945Y-47827
X61945Y-48827
X62945Y-47827
X62945Y-48827
X63945Y-47827
X63945Y-48827
X64945Y-47827
X64945Y-48827
X65945Y-47827
X65945Y-48827
X66945Y-47827
X66945Y-48827
X67945Y-47827
X67945Y-48827
X68945Y-47827
X68945Y-48827
X69945Y-47827
X69945Y-48827
X70945Y-47827
X70945Y-48827
X71945Y-47827
X71945Y-48827
X72945Y-47827
X72945Y-48827
X73945Y-47827
X73945Y-48827
X74945Y-47827
X74945Y-48827
T6
X36614Y-37008
X36614Y-38976
X37598Y-36024
X37598Y-37992
X38583Y-37008
X38583Y-38976
T7
X31201Y-45886
X31201Y-48602
T5
G00X31909Y-36220
M15
G01X31319Y-36220
M16
G05
G00X31909Y-39764
M15
G01X31319Y-39764
M16
G05
G00X32008Y-37736
M15
G01X32008Y-38248
M16
G05
G00X34370Y-37598
M15
G01X34370Y-38386
M16
G05
T0
M30
