M48
INCH,TZ
T1C0.0472
T2C0.0630
T3C0.1181
T4C0.1260
%
G90
G05
T1
X66063Y-61339
X70000Y-61339
X98189Y-48169
X98189Y-52106
X81417Y-18268
X85354Y-18268
X71181Y-61339
X75118Y-61339
X45591Y-61339
X49528Y-61339
X96772Y-61339
X100709Y-61339
X91654Y-61339
X95591Y-61339
X76299Y-18268
X80236Y-18268
X45591Y-18268
X49528Y-18268
X60945Y-61339
X64882Y-61339
X86535Y-18268
X90472Y-18268
X55827Y-18268
X59764Y-18268
X91654Y-18268
X95591Y-18268
X30236Y-18268
X34173Y-18268
X55827Y-61339
X59764Y-61339
X40472Y-61339
X44409Y-61339
X96791Y-18268
X100728Y-18268
X60945Y-18268
X64882Y-18268
X98189Y-32776
X98189Y-36713
X35354Y-18268
X39291Y-18268
X86535Y-61339
X90472Y-61339
X35354Y-61339
X39291Y-61339
X98189Y-27657
X98189Y-31594
X98189Y-22539
X98189Y-26476
X98189Y-43051
X98189Y-46988
X40472Y-18268
X44409Y-18268
X81417Y-61339
X85354Y-61339
X50709Y-61339
X54646Y-61339
X98189Y-37894
X98189Y-41831
X66063Y-18268
X70000Y-18268
X50709Y-18268
X54646Y-18268
X76299Y-61339
X80236Y-61339
X30236Y-61339
X34173Y-61339
X98189Y-53307
X98189Y-57244
X71181Y-18268
X75118Y-18268
T2
X30827Y-37992
T3
X99921Y-20925
X31024Y-21102
X99921Y-58622
X31024Y-58642
T4
X37992Y-52835
X78740Y-54921
X34213Y-26811
X78425Y-24961
T0
M30
