G04 #@! TF.GenerationSoftware,KiCad,Pcbnew,(5.1.6)-1*
G04 #@! TF.CreationDate,2021-04-09T14:23:21+02:00*
G04 #@! TF.ProjectId,FK_fpga_shield,464b5f66-7067-4615-9f73-6869656c642e,rev?*
G04 #@! TF.SameCoordinates,Original*
G04 #@! TF.FileFunction,Legend,Bot*
G04 #@! TF.FilePolarity,Positive*
%FSLAX46Y46*%
G04 Gerber Fmt 4.6, Leading zero omitted, Abs format (unit mm)*
G04 Created by KiCad (PCBNEW (5.1.6)-1) date 2021-04-09 14:23:21*
%MOMM*%
%LPD*%
G01*
G04 APERTURE LIST*
%ADD10C,0.120000*%
%ADD11C,0.150000*%
G04 APERTURE END LIST*
D10*
X191690208Y-121480472D02*
X191690208Y-120150472D01*
X191690208Y-120150472D02*
X190360208Y-120150472D01*
X191690208Y-122750472D02*
X189090208Y-122750472D01*
X189090208Y-122750472D02*
X189090208Y-120150472D01*
X189090208Y-120150472D02*
X140770208Y-120150472D01*
X140770208Y-125350472D02*
X140770208Y-120150472D01*
X191690208Y-125350472D02*
X140770208Y-125350472D01*
X191690208Y-125350472D02*
X191690208Y-122750472D01*
X140770000Y-80840000D02*
X140770000Y-82170000D01*
X140770000Y-82170000D02*
X142100000Y-82170000D01*
X140770000Y-79570000D02*
X143370000Y-79570000D01*
X143370000Y-79570000D02*
X143370000Y-82170000D01*
X143370000Y-82170000D02*
X191690000Y-82170000D01*
X191690000Y-76970000D02*
X191690000Y-82170000D01*
X140770000Y-76970000D02*
X191690000Y-76970000D01*
X140770000Y-76970000D02*
X140770000Y-79570000D01*
D11*
X192677827Y-123512376D02*
X193677827Y-123512376D01*
X193201636Y-123512376D02*
X193201636Y-122940948D01*
X192677827Y-122940948D02*
X193677827Y-122940948D01*
X193582588Y-122512376D02*
X193630208Y-122464757D01*
X193677827Y-122369519D01*
X193677827Y-122131424D01*
X193630208Y-122036186D01*
X193582588Y-121988567D01*
X193487350Y-121940948D01*
X193392112Y-121940948D01*
X193249255Y-121988567D01*
X192677827Y-122559995D01*
X192677827Y-121940948D01*
X139782380Y-78808095D02*
X138782380Y-78808095D01*
X139258571Y-78808095D02*
X139258571Y-79379523D01*
X139782380Y-79379523D02*
X138782380Y-79379523D01*
X139782380Y-80379523D02*
X139782380Y-79808095D01*
X139782380Y-80093809D02*
X138782380Y-80093809D01*
X138925238Y-79998571D01*
X139020476Y-79903333D01*
X139068095Y-79808095D01*
M02*
