G04 #@! TF.GenerationSoftware,KiCad,Pcbnew,(5.1.6)-1*
G04 #@! TF.CreationDate,2021-04-09T14:23:21+02:00*
G04 #@! TF.ProjectId,FK_fpga_shield,464b5f66-7067-4615-9f73-6869656c642e,rev?*
G04 #@! TF.SameCoordinates,Original*
G04 #@! TF.FileFunction,Copper,L4,Bot*
G04 #@! TF.FilePolarity,Positive*
%FSLAX46Y46*%
G04 Gerber Fmt 4.6, Leading zero omitted, Abs format (unit mm)*
G04 Created by KiCad (PCBNEW (5.1.6)-1) date 2021-04-09 14:23:21*
%MOMM*%
%LPD*%
G01*
G04 APERTURE LIST*
G04 #@! TA.AperFunction,ComponentPad*
%ADD10O,1.200000X1.800000*%
G04 #@! TD*
G04 #@! TA.AperFunction,ComponentPad*
%ADD11O,1.800000X1.200000*%
G04 #@! TD*
G04 #@! TA.AperFunction,ComponentPad*
%ADD12O,1.700000X1.700000*%
G04 #@! TD*
G04 #@! TA.AperFunction,ComponentPad*
%ADD13R,1.700000X1.700000*%
G04 #@! TD*
G04 #@! TA.AperFunction,ComponentPad*
%ADD14R,1.800000X1.800000*%
G04 #@! TD*
G04 #@! TA.AperFunction,ComponentPad*
%ADD15C,1.800000*%
G04 #@! TD*
G04 #@! TA.AperFunction,ComponentPad*
%ADD16C,1.600000*%
G04 #@! TD*
G04 #@! TA.AperFunction,ComponentPad*
%ADD17R,1.600000X1.600000*%
G04 #@! TD*
G04 #@! TA.AperFunction,ComponentPad*
%ADD18O,3.500000X2.000000*%
G04 #@! TD*
G04 #@! TA.AperFunction,ComponentPad*
%ADD19O,2.000000X3.300000*%
G04 #@! TD*
G04 #@! TA.AperFunction,ComponentPad*
%ADD20R,2.000000X4.000000*%
G04 #@! TD*
G04 #@! TA.AperFunction,ComponentPad*
%ADD21C,1.200000*%
G04 #@! TD*
G04 #@! TA.AperFunction,ComponentPad*
%ADD22R,1.200000X1.200000*%
G04 #@! TD*
G04 #@! TA.AperFunction,ComponentPad*
%ADD23R,2.895600X2.895600*%
G04 #@! TD*
G04 #@! TA.AperFunction,ComponentPad*
%ADD24O,1.750000X1.100000*%
G04 #@! TD*
G04 #@! TA.AperFunction,ViaPad*
%ADD25C,0.800000*%
G04 #@! TD*
G04 #@! TA.AperFunction,Conductor*
%ADD26C,0.400000*%
G04 #@! TD*
G04 #@! TA.AperFunction,Conductor*
%ADD27C,0.254000*%
G04 #@! TD*
G04 APERTURE END LIST*
D10*
X84800000Y-153400000D03*
X82800000Y-153400000D03*
X80800000Y-153400000D03*
G04 #@! TA.AperFunction,ComponentPad*
G36*
G01*
X78200000Y-154050001D02*
X78200000Y-152749999D01*
G75*
G02*
X78449999Y-152500000I249999J0D01*
G01*
X79150001Y-152500000D01*
G75*
G02*
X79400000Y-152749999I0J-249999D01*
G01*
X79400000Y-154050001D01*
G75*
G02*
X79150001Y-154300000I-249999J0D01*
G01*
X78449999Y-154300000D01*
G75*
G02*
X78200000Y-154050001I0J249999D01*
G01*
G37*
G04 #@! TD.AperFunction*
X97800000Y-153400000D03*
X95800000Y-153400000D03*
X93800000Y-153400000D03*
G04 #@! TA.AperFunction,ComponentPad*
G36*
G01*
X91200000Y-154050001D02*
X91200000Y-152749999D01*
G75*
G02*
X91449999Y-152500000I249999J0D01*
G01*
X92150001Y-152500000D01*
G75*
G02*
X92400000Y-152749999I0J-249999D01*
G01*
X92400000Y-154050001D01*
G75*
G02*
X92150001Y-154300000I-249999J0D01*
G01*
X91449999Y-154300000D01*
G75*
G02*
X91200000Y-154050001I0J249999D01*
G01*
G37*
G04 #@! TD.AperFunction*
X110800000Y-153400000D03*
X108800000Y-153400000D03*
X106800000Y-153400000D03*
G04 #@! TA.AperFunction,ComponentPad*
G36*
G01*
X104200000Y-154050001D02*
X104200000Y-152749999D01*
G75*
G02*
X104449999Y-152500000I249999J0D01*
G01*
X105150001Y-152500000D01*
G75*
G02*
X105400000Y-152749999I0J-249999D01*
G01*
X105400000Y-154050001D01*
G75*
G02*
X105150001Y-154300000I-249999J0D01*
G01*
X104449999Y-154300000D01*
G75*
G02*
X104200000Y-154050001I0J249999D01*
G01*
G37*
G04 #@! TD.AperFunction*
X123800000Y-153400000D03*
X121800000Y-153400000D03*
X119800000Y-153400000D03*
G04 #@! TA.AperFunction,ComponentPad*
G36*
G01*
X117200000Y-154050001D02*
X117200000Y-152749999D01*
G75*
G02*
X117449999Y-152500000I249999J0D01*
G01*
X118150001Y-152500000D01*
G75*
G02*
X118400000Y-152749999I0J-249999D01*
G01*
X118400000Y-154050001D01*
G75*
G02*
X118150001Y-154300000I-249999J0D01*
G01*
X117449999Y-154300000D01*
G75*
G02*
X117200000Y-154050001I0J249999D01*
G01*
G37*
G04 #@! TD.AperFunction*
X136800000Y-153400000D03*
X134800000Y-153400000D03*
X132800000Y-153400000D03*
G04 #@! TA.AperFunction,ComponentPad*
G36*
G01*
X130200000Y-154050001D02*
X130200000Y-152749999D01*
G75*
G02*
X130449999Y-152500000I249999J0D01*
G01*
X131150001Y-152500000D01*
G75*
G02*
X131400000Y-152749999I0J-249999D01*
G01*
X131400000Y-154050001D01*
G75*
G02*
X131150001Y-154300000I-249999J0D01*
G01*
X130449999Y-154300000D01*
G75*
G02*
X130200000Y-154050001I0J249999D01*
G01*
G37*
G04 #@! TD.AperFunction*
X149800000Y-153400000D03*
X147800000Y-153400000D03*
X145800000Y-153400000D03*
G04 #@! TA.AperFunction,ComponentPad*
G36*
G01*
X143200000Y-154050001D02*
X143200000Y-152749999D01*
G75*
G02*
X143449999Y-152500000I249999J0D01*
G01*
X144150001Y-152500000D01*
G75*
G02*
X144400000Y-152749999I0J-249999D01*
G01*
X144400000Y-154050001D01*
G75*
G02*
X144150001Y-154300000I-249999J0D01*
G01*
X143449999Y-154300000D01*
G75*
G02*
X143200000Y-154050001I0J249999D01*
G01*
G37*
G04 #@! TD.AperFunction*
X162800000Y-153400000D03*
X160800000Y-153400000D03*
X158800000Y-153400000D03*
G04 #@! TA.AperFunction,ComponentPad*
G36*
G01*
X156200000Y-154050001D02*
X156200000Y-152749999D01*
G75*
G02*
X156449999Y-152500000I249999J0D01*
G01*
X157150001Y-152500000D01*
G75*
G02*
X157400000Y-152749999I0J-249999D01*
G01*
X157400000Y-154050001D01*
G75*
G02*
X157150001Y-154300000I-249999J0D01*
G01*
X156449999Y-154300000D01*
G75*
G02*
X156200000Y-154050001I0J249999D01*
G01*
G37*
G04 #@! TD.AperFunction*
X175800000Y-153400000D03*
X173800000Y-153400000D03*
X171800000Y-153400000D03*
G04 #@! TA.AperFunction,ComponentPad*
G36*
G01*
X169200000Y-154050001D02*
X169200000Y-152749999D01*
G75*
G02*
X169449999Y-152500000I249999J0D01*
G01*
X170150001Y-152500000D01*
G75*
G02*
X170400000Y-152749999I0J-249999D01*
G01*
X170400000Y-154050001D01*
G75*
G02*
X170150001Y-154300000I-249999J0D01*
G01*
X169449999Y-154300000D01*
G75*
G02*
X169200000Y-154050001I0J249999D01*
G01*
G37*
G04 #@! TD.AperFunction*
X188800000Y-153400000D03*
X186800000Y-153400000D03*
X184800000Y-153400000D03*
G04 #@! TA.AperFunction,ComponentPad*
G36*
G01*
X182200000Y-154050001D02*
X182200000Y-152749999D01*
G75*
G02*
X182449999Y-152500000I249999J0D01*
G01*
X183150001Y-152500000D01*
G75*
G02*
X183400000Y-152749999I0J-249999D01*
G01*
X183400000Y-154050001D01*
G75*
G02*
X183150001Y-154300000I-249999J0D01*
G01*
X182449999Y-154300000D01*
G75*
G02*
X182200000Y-154050001I0J249999D01*
G01*
G37*
G04 #@! TD.AperFunction*
X201800000Y-153400000D03*
X199800000Y-153400000D03*
X197800000Y-153400000D03*
G04 #@! TA.AperFunction,ComponentPad*
G36*
G01*
X195200000Y-154050001D02*
X195200000Y-152749999D01*
G75*
G02*
X195449999Y-152500000I249999J0D01*
G01*
X196150001Y-152500000D01*
G75*
G02*
X196400000Y-152749999I0J-249999D01*
G01*
X196400000Y-154050001D01*
G75*
G02*
X196150001Y-154300000I-249999J0D01*
G01*
X195449999Y-154300000D01*
G75*
G02*
X195200000Y-154050001I0J249999D01*
G01*
G37*
G04 #@! TD.AperFunction*
X214800000Y-153400000D03*
X212800000Y-153400000D03*
X210800000Y-153400000D03*
G04 #@! TA.AperFunction,ComponentPad*
G36*
G01*
X208200000Y-154050001D02*
X208200000Y-152749999D01*
G75*
G02*
X208449999Y-152500000I249999J0D01*
G01*
X209150001Y-152500000D01*
G75*
G02*
X209400000Y-152749999I0J-249999D01*
G01*
X209400000Y-154050001D01*
G75*
G02*
X209150001Y-154300000I-249999J0D01*
G01*
X208449999Y-154300000D01*
G75*
G02*
X208200000Y-154050001I0J249999D01*
G01*
G37*
G04 #@! TD.AperFunction*
X227800000Y-153400000D03*
X225800000Y-153400000D03*
X223800000Y-153400000D03*
G04 #@! TA.AperFunction,ComponentPad*
G36*
G01*
X221200000Y-154050001D02*
X221200000Y-152749999D01*
G75*
G02*
X221449999Y-152500000I249999J0D01*
G01*
X222150001Y-152500000D01*
G75*
G02*
X222400000Y-152749999I0J-249999D01*
G01*
X222400000Y-154050001D01*
G75*
G02*
X222150001Y-154300000I-249999J0D01*
G01*
X221449999Y-154300000D01*
G75*
G02*
X221200000Y-154050001I0J249999D01*
G01*
G37*
G04 #@! TD.AperFunction*
X240800000Y-153400000D03*
X238800000Y-153400000D03*
X236800000Y-153400000D03*
G04 #@! TA.AperFunction,ComponentPad*
G36*
G01*
X234200000Y-154050001D02*
X234200000Y-152749999D01*
G75*
G02*
X234449999Y-152500000I249999J0D01*
G01*
X235150001Y-152500000D01*
G75*
G02*
X235400000Y-152749999I0J-249999D01*
G01*
X235400000Y-154050001D01*
G75*
G02*
X235150001Y-154300000I-249999J0D01*
G01*
X234449999Y-154300000D01*
G75*
G02*
X234200000Y-154050001I0J249999D01*
G01*
G37*
G04 #@! TD.AperFunction*
X253800000Y-153400000D03*
X251800000Y-153400000D03*
X249800000Y-153400000D03*
G04 #@! TA.AperFunction,ComponentPad*
G36*
G01*
X247200000Y-154050001D02*
X247200000Y-152749999D01*
G75*
G02*
X247449999Y-152500000I249999J0D01*
G01*
X248150001Y-152500000D01*
G75*
G02*
X248400000Y-152749999I0J-249999D01*
G01*
X248400000Y-154050001D01*
G75*
G02*
X248150001Y-154300000I-249999J0D01*
G01*
X247449999Y-154300000D01*
G75*
G02*
X247200000Y-154050001I0J249999D01*
G01*
G37*
G04 #@! TD.AperFunction*
D11*
X247000000Y-137400000D03*
X247000000Y-139400000D03*
X247000000Y-141400000D03*
G04 #@! TA.AperFunction,ComponentPad*
G36*
G01*
X247650001Y-144000000D02*
X246349999Y-144000000D01*
G75*
G02*
X246100000Y-143750001I0J249999D01*
G01*
X246100000Y-143049999D01*
G75*
G02*
X246349999Y-142800000I249999J0D01*
G01*
X247650001Y-142800000D01*
G75*
G02*
X247900000Y-143049999I0J-249999D01*
G01*
X247900000Y-143750001D01*
G75*
G02*
X247650001Y-144000000I-249999J0D01*
G01*
G37*
G04 #@! TD.AperFunction*
X247000000Y-124350000D03*
X247000000Y-126350000D03*
X247000000Y-128350000D03*
G04 #@! TA.AperFunction,ComponentPad*
G36*
G01*
X247650001Y-130950000D02*
X246349999Y-130950000D01*
G75*
G02*
X246100000Y-130700001I0J249999D01*
G01*
X246100000Y-129999999D01*
G75*
G02*
X246349999Y-129750000I249999J0D01*
G01*
X247650001Y-129750000D01*
G75*
G02*
X247900000Y-129999999I0J-249999D01*
G01*
X247900000Y-130700001D01*
G75*
G02*
X247650001Y-130950000I-249999J0D01*
G01*
G37*
G04 #@! TD.AperFunction*
X247000000Y-111350000D03*
X247000000Y-113350000D03*
X247000000Y-115350000D03*
G04 #@! TA.AperFunction,ComponentPad*
G36*
G01*
X247650001Y-117950000D02*
X246349999Y-117950000D01*
G75*
G02*
X246100000Y-117700001I0J249999D01*
G01*
X246100000Y-116999999D01*
G75*
G02*
X246349999Y-116750000I249999J0D01*
G01*
X247650001Y-116750000D01*
G75*
G02*
X247900000Y-116999999I0J-249999D01*
G01*
X247900000Y-117700001D01*
G75*
G02*
X247650001Y-117950000I-249999J0D01*
G01*
G37*
G04 #@! TD.AperFunction*
X247000000Y-98250000D03*
X247000000Y-100250000D03*
X247000000Y-102250000D03*
G04 #@! TA.AperFunction,ComponentPad*
G36*
G01*
X247650001Y-104850000D02*
X246349999Y-104850000D01*
G75*
G02*
X246100000Y-104600001I0J249999D01*
G01*
X246100000Y-103899999D01*
G75*
G02*
X246349999Y-103650000I249999J0D01*
G01*
X247650001Y-103650000D01*
G75*
G02*
X247900000Y-103899999I0J-249999D01*
G01*
X247900000Y-104600001D01*
G75*
G02*
X247650001Y-104850000I-249999J0D01*
G01*
G37*
G04 #@! TD.AperFunction*
X247000000Y-85250000D03*
X247000000Y-87250000D03*
X247000000Y-89250000D03*
G04 #@! TA.AperFunction,ComponentPad*
G36*
G01*
X247650001Y-91850000D02*
X246349999Y-91850000D01*
G75*
G02*
X246100000Y-91600001I0J249999D01*
G01*
X246100000Y-90899999D01*
G75*
G02*
X246349999Y-90650000I249999J0D01*
G01*
X247650001Y-90650000D01*
G75*
G02*
X247900000Y-90899999I0J-249999D01*
G01*
X247900000Y-91600001D01*
G75*
G02*
X247650001Y-91850000I-249999J0D01*
G01*
G37*
G04 #@! TD.AperFunction*
X247000000Y-72250000D03*
X247000000Y-74250000D03*
X247000000Y-76250000D03*
G04 #@! TA.AperFunction,ComponentPad*
G36*
G01*
X247650001Y-78850000D02*
X246349999Y-78850000D01*
G75*
G02*
X246100000Y-78600001I0J249999D01*
G01*
X246100000Y-77899999D01*
G75*
G02*
X246349999Y-77650000I249999J0D01*
G01*
X247650001Y-77650000D01*
G75*
G02*
X247900000Y-77899999I0J-249999D01*
G01*
X247900000Y-78600001D01*
G75*
G02*
X247650001Y-78850000I-249999J0D01*
G01*
G37*
G04 #@! TD.AperFunction*
X247000000Y-59250000D03*
X247000000Y-61250000D03*
X247000000Y-63250000D03*
G04 #@! TA.AperFunction,ComponentPad*
G36*
G01*
X247650001Y-65850000D02*
X246349999Y-65850000D01*
G75*
G02*
X246100000Y-65600001I0J249999D01*
G01*
X246100000Y-64899999D01*
G75*
G02*
X246349999Y-64650000I249999J0D01*
G01*
X247650001Y-64650000D01*
G75*
G02*
X247900000Y-64899999I0J-249999D01*
G01*
X247900000Y-65600001D01*
G75*
G02*
X247650001Y-65850000I-249999J0D01*
G01*
G37*
G04 #@! TD.AperFunction*
D10*
X247850000Y-48800000D03*
X249850000Y-48800000D03*
X251850000Y-48800000D03*
G04 #@! TA.AperFunction,ComponentPad*
G36*
G01*
X254450000Y-48149999D02*
X254450000Y-49450001D01*
G75*
G02*
X254200001Y-49700000I-249999J0D01*
G01*
X253499999Y-49700000D01*
G75*
G02*
X253250000Y-49450001I0J249999D01*
G01*
X253250000Y-48149999D01*
G75*
G02*
X253499999Y-47900000I249999J0D01*
G01*
X254200001Y-47900000D01*
G75*
G02*
X254450000Y-48149999I0J-249999D01*
G01*
G37*
G04 #@! TD.AperFunction*
X234800000Y-48800000D03*
X236800000Y-48800000D03*
X238800000Y-48800000D03*
G04 #@! TA.AperFunction,ComponentPad*
G36*
G01*
X241400000Y-48149999D02*
X241400000Y-49450001D01*
G75*
G02*
X241150001Y-49700000I-249999J0D01*
G01*
X240449999Y-49700000D01*
G75*
G02*
X240200000Y-49450001I0J249999D01*
G01*
X240200000Y-48149999D01*
G75*
G02*
X240449999Y-47900000I249999J0D01*
G01*
X241150001Y-47900000D01*
G75*
G02*
X241400000Y-48149999I0J-249999D01*
G01*
G37*
G04 #@! TD.AperFunction*
X221800000Y-48800000D03*
X223800000Y-48800000D03*
X225800000Y-48800000D03*
G04 #@! TA.AperFunction,ComponentPad*
G36*
G01*
X228400000Y-48149999D02*
X228400000Y-49450001D01*
G75*
G02*
X228150001Y-49700000I-249999J0D01*
G01*
X227449999Y-49700000D01*
G75*
G02*
X227200000Y-49450001I0J249999D01*
G01*
X227200000Y-48149999D01*
G75*
G02*
X227449999Y-47900000I249999J0D01*
G01*
X228150001Y-47900000D01*
G75*
G02*
X228400000Y-48149999I0J-249999D01*
G01*
G37*
G04 #@! TD.AperFunction*
X208800000Y-48800000D03*
X210800000Y-48800000D03*
X212800000Y-48800000D03*
G04 #@! TA.AperFunction,ComponentPad*
G36*
G01*
X215400000Y-48149999D02*
X215400000Y-49450001D01*
G75*
G02*
X215150001Y-49700000I-249999J0D01*
G01*
X214449999Y-49700000D01*
G75*
G02*
X214200000Y-49450001I0J249999D01*
G01*
X214200000Y-48149999D01*
G75*
G02*
X214449999Y-47900000I249999J0D01*
G01*
X215150001Y-47900000D01*
G75*
G02*
X215400000Y-48149999I0J-249999D01*
G01*
G37*
G04 #@! TD.AperFunction*
X195800000Y-48800000D03*
X197800000Y-48800000D03*
X199800000Y-48800000D03*
G04 #@! TA.AperFunction,ComponentPad*
G36*
G01*
X202400000Y-48149999D02*
X202400000Y-49450001D01*
G75*
G02*
X202150001Y-49700000I-249999J0D01*
G01*
X201449999Y-49700000D01*
G75*
G02*
X201200000Y-49450001I0J249999D01*
G01*
X201200000Y-48149999D01*
G75*
G02*
X201449999Y-47900000I249999J0D01*
G01*
X202150001Y-47900000D01*
G75*
G02*
X202400000Y-48149999I0J-249999D01*
G01*
G37*
G04 #@! TD.AperFunction*
X182800000Y-48800000D03*
X184800000Y-48800000D03*
X186800000Y-48800000D03*
G04 #@! TA.AperFunction,ComponentPad*
G36*
G01*
X189400000Y-48149999D02*
X189400000Y-49450001D01*
G75*
G02*
X189150001Y-49700000I-249999J0D01*
G01*
X188449999Y-49700000D01*
G75*
G02*
X188200000Y-49450001I0J249999D01*
G01*
X188200000Y-48149999D01*
G75*
G02*
X188449999Y-47900000I249999J0D01*
G01*
X189150001Y-47900000D01*
G75*
G02*
X189400000Y-48149999I0J-249999D01*
G01*
G37*
G04 #@! TD.AperFunction*
X169800000Y-48800000D03*
X171800000Y-48800000D03*
X173800000Y-48800000D03*
G04 #@! TA.AperFunction,ComponentPad*
G36*
G01*
X176400000Y-48149999D02*
X176400000Y-49450001D01*
G75*
G02*
X176150001Y-49700000I-249999J0D01*
G01*
X175449999Y-49700000D01*
G75*
G02*
X175200000Y-49450001I0J249999D01*
G01*
X175200000Y-48149999D01*
G75*
G02*
X175449999Y-47900000I249999J0D01*
G01*
X176150001Y-47900000D01*
G75*
G02*
X176400000Y-48149999I0J-249999D01*
G01*
G37*
G04 #@! TD.AperFunction*
X156800000Y-48800000D03*
X158800000Y-48800000D03*
X160800000Y-48800000D03*
G04 #@! TA.AperFunction,ComponentPad*
G36*
G01*
X163400000Y-48149999D02*
X163400000Y-49450001D01*
G75*
G02*
X163150001Y-49700000I-249999J0D01*
G01*
X162449999Y-49700000D01*
G75*
G02*
X162200000Y-49450001I0J249999D01*
G01*
X162200000Y-48149999D01*
G75*
G02*
X162449999Y-47900000I249999J0D01*
G01*
X163150001Y-47900000D01*
G75*
G02*
X163400000Y-48149999I0J-249999D01*
G01*
G37*
G04 #@! TD.AperFunction*
X143800000Y-48800000D03*
X145800000Y-48800000D03*
X147800000Y-48800000D03*
G04 #@! TA.AperFunction,ComponentPad*
G36*
G01*
X150400000Y-48149999D02*
X150400000Y-49450001D01*
G75*
G02*
X150150001Y-49700000I-249999J0D01*
G01*
X149449999Y-49700000D01*
G75*
G02*
X149200000Y-49450001I0J249999D01*
G01*
X149200000Y-48149999D01*
G75*
G02*
X149449999Y-47900000I249999J0D01*
G01*
X150150001Y-47900000D01*
G75*
G02*
X150400000Y-48149999I0J-249999D01*
G01*
G37*
G04 #@! TD.AperFunction*
X130800000Y-48800000D03*
X132800000Y-48800000D03*
X134800000Y-48800000D03*
G04 #@! TA.AperFunction,ComponentPad*
G36*
G01*
X137400000Y-48149999D02*
X137400000Y-49450001D01*
G75*
G02*
X137150001Y-49700000I-249999J0D01*
G01*
X136449999Y-49700000D01*
G75*
G02*
X136200000Y-49450001I0J249999D01*
G01*
X136200000Y-48149999D01*
G75*
G02*
X136449999Y-47900000I249999J0D01*
G01*
X137150001Y-47900000D01*
G75*
G02*
X137400000Y-48149999I0J-249999D01*
G01*
G37*
G04 #@! TD.AperFunction*
X117800000Y-48800000D03*
X119800000Y-48800000D03*
X121800000Y-48800000D03*
G04 #@! TA.AperFunction,ComponentPad*
G36*
G01*
X124400000Y-48149999D02*
X124400000Y-49450001D01*
G75*
G02*
X124150001Y-49700000I-249999J0D01*
G01*
X123449999Y-49700000D01*
G75*
G02*
X123200000Y-49450001I0J249999D01*
G01*
X123200000Y-48149999D01*
G75*
G02*
X123449999Y-47900000I249999J0D01*
G01*
X124150001Y-47900000D01*
G75*
G02*
X124400000Y-48149999I0J-249999D01*
G01*
G37*
G04 #@! TD.AperFunction*
X104800000Y-48800000D03*
X106800000Y-48800000D03*
X108800000Y-48800000D03*
G04 #@! TA.AperFunction,ComponentPad*
G36*
G01*
X111400000Y-48149999D02*
X111400000Y-49450001D01*
G75*
G02*
X111150001Y-49700000I-249999J0D01*
G01*
X110449999Y-49700000D01*
G75*
G02*
X110200000Y-49450001I0J249999D01*
G01*
X110200000Y-48149999D01*
G75*
G02*
X110449999Y-47900000I249999J0D01*
G01*
X111150001Y-47900000D01*
G75*
G02*
X111400000Y-48149999I0J-249999D01*
G01*
G37*
G04 #@! TD.AperFunction*
X91800000Y-48800000D03*
X93800000Y-48800000D03*
X95800000Y-48800000D03*
G04 #@! TA.AperFunction,ComponentPad*
G36*
G01*
X98400000Y-48149999D02*
X98400000Y-49450001D01*
G75*
G02*
X98150001Y-49700000I-249999J0D01*
G01*
X97449999Y-49700000D01*
G75*
G02*
X97200000Y-49450001I0J249999D01*
G01*
X97200000Y-48149999D01*
G75*
G02*
X97449999Y-47900000I249999J0D01*
G01*
X98150001Y-47900000D01*
G75*
G02*
X98400000Y-48149999I0J-249999D01*
G01*
G37*
G04 #@! TD.AperFunction*
X78800000Y-48800000D03*
X80800000Y-48800000D03*
X82800000Y-48800000D03*
G04 #@! TA.AperFunction,ComponentPad*
G36*
G01*
X85400000Y-48149999D02*
X85400000Y-49450001D01*
G75*
G02*
X85150001Y-49700000I-249999J0D01*
G01*
X84449999Y-49700000D01*
G75*
G02*
X84200000Y-49450001I0J249999D01*
G01*
X84200000Y-48149999D01*
G75*
G02*
X84449999Y-47900000I249999J0D01*
G01*
X85150001Y-47900000D01*
G75*
G02*
X85400000Y-48149999I0J-249999D01*
G01*
G37*
G04 #@! TD.AperFunction*
D12*
X84140000Y-141720000D03*
X81600000Y-141720000D03*
X84140000Y-139180000D03*
X81600000Y-139180000D03*
X84140000Y-136640000D03*
X81600000Y-136640000D03*
X84140000Y-134100000D03*
D13*
X81600000Y-134100000D03*
D14*
X93000000Y-94000000D03*
D15*
X98000000Y-94000000D03*
X93000000Y-99000000D03*
X98000000Y-99000000D03*
X95500000Y-96500000D03*
X95500000Y-91500000D03*
D16*
X131500000Y-95100000D03*
D17*
X129000000Y-95100000D03*
D16*
X123500000Y-95100000D03*
D17*
X121000000Y-95100000D03*
D16*
X115500000Y-95100000D03*
D17*
X113000000Y-95100000D03*
D16*
X107500000Y-95100000D03*
D17*
X105000000Y-95100000D03*
D18*
X80300000Y-101000000D03*
X80300000Y-92000000D03*
D19*
X81300000Y-96500000D03*
D20*
X87300000Y-96500000D03*
D21*
X100100000Y-122000000D03*
D22*
X98600000Y-122000000D03*
D12*
X142100208Y-124020472D03*
X142100208Y-121480472D03*
X144640208Y-124020472D03*
X144640208Y-121480472D03*
X147180208Y-124020472D03*
X147180208Y-121480472D03*
X149720208Y-124020472D03*
X149720208Y-121480472D03*
X152260208Y-124020472D03*
X152260208Y-121480472D03*
X154800208Y-124020472D03*
X154800208Y-121480472D03*
X157340208Y-124020472D03*
X157340208Y-121480472D03*
X159880208Y-124020472D03*
X159880208Y-121480472D03*
X162420208Y-124020472D03*
X162420208Y-121480472D03*
X164960208Y-124020472D03*
X164960208Y-121480472D03*
X167500208Y-124020472D03*
X167500208Y-121480472D03*
X170040208Y-124020472D03*
X170040208Y-121480472D03*
X172580208Y-124020472D03*
X172580208Y-121480472D03*
X175120208Y-124020472D03*
X175120208Y-121480472D03*
X177660208Y-124020472D03*
X177660208Y-121480472D03*
X180200208Y-124020472D03*
X180200208Y-121480472D03*
X182740208Y-124020472D03*
X182740208Y-121480472D03*
X185280208Y-124020472D03*
X185280208Y-121480472D03*
X187820208Y-124020472D03*
X187820208Y-121480472D03*
X190360208Y-124020472D03*
D13*
X190360208Y-121480472D03*
D12*
X190360000Y-78300000D03*
X190360000Y-80840000D03*
X187820000Y-78300000D03*
X187820000Y-80840000D03*
X185280000Y-78300000D03*
X185280000Y-80840000D03*
X182740000Y-78300000D03*
X182740000Y-80840000D03*
X180200000Y-78300000D03*
X180200000Y-80840000D03*
X177660000Y-78300000D03*
X177660000Y-80840000D03*
X175120000Y-78300000D03*
X175120000Y-80840000D03*
X172580000Y-78300000D03*
X172580000Y-80840000D03*
X170040000Y-78300000D03*
X170040000Y-80840000D03*
X167500000Y-78300000D03*
X167500000Y-80840000D03*
X164960000Y-78300000D03*
X164960000Y-80840000D03*
X162420000Y-78300000D03*
X162420000Y-80840000D03*
X159880000Y-78300000D03*
X159880000Y-80840000D03*
X157340000Y-78300000D03*
X157340000Y-80840000D03*
X154800000Y-78300000D03*
X154800000Y-80840000D03*
X152260000Y-78300000D03*
X152260000Y-80840000D03*
X149720000Y-78300000D03*
X149720000Y-80840000D03*
X147180000Y-78300000D03*
X147180000Y-80840000D03*
X144640000Y-78300000D03*
X144640000Y-80840000D03*
X142100000Y-78300000D03*
D13*
X142100000Y-80840000D03*
D23*
X79250000Y-116550000D03*
X79250000Y-123450000D03*
D24*
X82800000Y-119200000D03*
X82800000Y-120800000D03*
X84600000Y-118400000D03*
X84600000Y-121600000D03*
X84600000Y-120000000D03*
D25*
X85700000Y-116500000D03*
X102400000Y-65600000D03*
X163000000Y-66000000D03*
X211400000Y-66600000D03*
X219200000Y-95000000D03*
X213600000Y-124600000D03*
X174000000Y-136200000D03*
X117000000Y-136600000D03*
X109831853Y-115686142D03*
X95800000Y-108400000D03*
X95200000Y-115400000D03*
X113300000Y-102300000D03*
X119875000Y-102325000D03*
X103600000Y-69000000D03*
X216000000Y-96200000D03*
X210000000Y-125600000D03*
X172400000Y-132000000D03*
X117600000Y-135600000D03*
X163200000Y-68000000D03*
X210400000Y-67800000D03*
X86500000Y-123600000D03*
X95800000Y-61400000D03*
X155600000Y-61200000D03*
X211650253Y-60244365D03*
X223400000Y-87600000D03*
X183800000Y-140600000D03*
X126400000Y-141000000D03*
X217800000Y-116800000D03*
X84618012Y-128077769D03*
X90400000Y-108600000D03*
X90200000Y-110200000D03*
X95600000Y-119400000D03*
X76200000Y-125200000D03*
X92800000Y-127800000D03*
X96800000Y-119400000D03*
X76200000Y-130800000D03*
X92600000Y-108200000D03*
D26*
X111945999Y-140469999D02*
X116815998Y-135600000D01*
X81600000Y-141720000D02*
X82850001Y-140469999D01*
X116815998Y-135600000D02*
X117600000Y-135600000D01*
X82850001Y-140469999D02*
X111945999Y-140469999D01*
X86500000Y-119000000D02*
X86500000Y-123600000D01*
X84300000Y-118400000D02*
X85900000Y-118400000D01*
X85900000Y-118400000D02*
X86500000Y-119000000D01*
X84140000Y-136640000D02*
X84140000Y-136560000D01*
X90400000Y-108600000D02*
X91000000Y-109200000D01*
X91000000Y-109200000D02*
X91032544Y-109200000D01*
X102000009Y-122497075D02*
X87857084Y-136640000D01*
X91032544Y-109200000D02*
X102000010Y-120167466D01*
X102000010Y-120167466D02*
X102000009Y-122497075D01*
X87857084Y-136640000D02*
X84140000Y-136640000D01*
X82889999Y-135350001D02*
X81600000Y-136640000D01*
X91184002Y-110200000D02*
X101400000Y-120415998D01*
X90200000Y-110200000D02*
X91184002Y-110200000D01*
X101400000Y-122248542D02*
X88298541Y-135350001D01*
X101400000Y-120415998D02*
X101400000Y-122248542D01*
X88298541Y-135350001D02*
X82889999Y-135350001D01*
X95600000Y-125000000D02*
X93600000Y-127000000D01*
X95600000Y-119400000D02*
X95600000Y-125000000D01*
X78000000Y-127000000D02*
X93600000Y-127000000D01*
X76200000Y-125200000D02*
X78000000Y-127000000D01*
X93600000Y-127000000D02*
X92800000Y-127800000D01*
X96800000Y-119400000D02*
X96800000Y-124000000D01*
X96800000Y-126000000D02*
X96800000Y-124000000D01*
X93600000Y-129200000D02*
X96800000Y-126000000D01*
X77800000Y-129200000D02*
X93600000Y-129200000D01*
X76200000Y-130800000D02*
X77800000Y-129200000D01*
X79500000Y-134100000D02*
X76200000Y-130800000D01*
X81600000Y-134100000D02*
X79500000Y-134100000D01*
X92600000Y-109918914D02*
X102600019Y-119918933D01*
X92600000Y-108200000D02*
X92600000Y-109918914D01*
X102600018Y-122745608D02*
X86165626Y-139180000D01*
X102600019Y-119918933D02*
X102600018Y-122745608D01*
X86165626Y-139180000D02*
X84140000Y-139180000D01*
D27*
G36*
X154879952Y-60609072D02*
G01*
X154778504Y-60760901D01*
X154708624Y-60929604D01*
X154673000Y-61108699D01*
X154673000Y-61291301D01*
X154708624Y-61470396D01*
X154778504Y-61639099D01*
X154879952Y-61790928D01*
X155009072Y-61920048D01*
X155160901Y-62021496D01*
X155329604Y-62091376D01*
X155508699Y-62127000D01*
X155691301Y-62127000D01*
X155870396Y-62091376D01*
X156039099Y-62021496D01*
X156190928Y-61920048D01*
X156320048Y-61790928D01*
X156421496Y-61639099D01*
X156491376Y-61470396D01*
X156527000Y-61291301D01*
X156527000Y-61108699D01*
X156491376Y-60929604D01*
X156421496Y-60760901D01*
X156320048Y-60609072D01*
X156237976Y-60527000D01*
X210763947Y-60527000D01*
X210828757Y-60683464D01*
X210930205Y-60835293D01*
X211059325Y-60964413D01*
X211211154Y-61065861D01*
X211379857Y-61135741D01*
X211558952Y-61171365D01*
X211741554Y-61171365D01*
X211920649Y-61135741D01*
X212089352Y-61065861D01*
X212241181Y-60964413D01*
X212370301Y-60835293D01*
X212471749Y-60683464D01*
X212536559Y-60527000D01*
X224273000Y-60527000D01*
X224273000Y-87285241D01*
X224221496Y-87160901D01*
X224120048Y-87009072D01*
X223990928Y-86879952D01*
X223839099Y-86778504D01*
X223670396Y-86708624D01*
X223491301Y-86673000D01*
X223308699Y-86673000D01*
X223129604Y-86708624D01*
X222960901Y-86778504D01*
X222809072Y-86879952D01*
X222679952Y-87009072D01*
X222578504Y-87160901D01*
X222508624Y-87329604D01*
X222473000Y-87508699D01*
X222473000Y-87691301D01*
X222508624Y-87870396D01*
X222578504Y-88039099D01*
X222679952Y-88190928D01*
X222809072Y-88320048D01*
X222960901Y-88421496D01*
X223129604Y-88491376D01*
X223308699Y-88527000D01*
X223491301Y-88527000D01*
X223670396Y-88491376D01*
X223839099Y-88421496D01*
X223990928Y-88320048D01*
X224120048Y-88190928D01*
X224221496Y-88039099D01*
X224273000Y-87914759D01*
X224273000Y-141873000D01*
X126714759Y-141873000D01*
X126839099Y-141821496D01*
X126990928Y-141720048D01*
X127120048Y-141590928D01*
X127221496Y-141439099D01*
X127291376Y-141270396D01*
X127327000Y-141091301D01*
X127327000Y-140908699D01*
X127291376Y-140729604D01*
X127221496Y-140560901D01*
X127186617Y-140508699D01*
X182873000Y-140508699D01*
X182873000Y-140691301D01*
X182908624Y-140870396D01*
X182978504Y-141039099D01*
X183079952Y-141190928D01*
X183209072Y-141320048D01*
X183360901Y-141421496D01*
X183529604Y-141491376D01*
X183708699Y-141527000D01*
X183891301Y-141527000D01*
X184070396Y-141491376D01*
X184239099Y-141421496D01*
X184390928Y-141320048D01*
X184520048Y-141190928D01*
X184621496Y-141039099D01*
X184691376Y-140870396D01*
X184727000Y-140691301D01*
X184727000Y-140508699D01*
X184691376Y-140329604D01*
X184621496Y-140160901D01*
X184520048Y-140009072D01*
X184390928Y-139879952D01*
X184239099Y-139778504D01*
X184070396Y-139708624D01*
X183891301Y-139673000D01*
X183708699Y-139673000D01*
X183529604Y-139708624D01*
X183360901Y-139778504D01*
X183209072Y-139879952D01*
X183079952Y-140009072D01*
X182978504Y-140160901D01*
X182908624Y-140329604D01*
X182873000Y-140508699D01*
X127186617Y-140508699D01*
X127120048Y-140409072D01*
X126990928Y-140279952D01*
X126839099Y-140178504D01*
X126670396Y-140108624D01*
X126491301Y-140073000D01*
X126308699Y-140073000D01*
X126129604Y-140108624D01*
X125960901Y-140178504D01*
X125809072Y-140279952D01*
X125679952Y-140409072D01*
X125578504Y-140560901D01*
X125508624Y-140729604D01*
X125473000Y-140908699D01*
X125473000Y-141091301D01*
X125508624Y-141270396D01*
X125578504Y-141439099D01*
X125679952Y-141590928D01*
X125809072Y-141720048D01*
X125960901Y-141821496D01*
X126085241Y-141873000D01*
X95127000Y-141873000D01*
X95127000Y-139290509D01*
X197873000Y-139290509D01*
X197873000Y-139709491D01*
X197954739Y-140120423D01*
X198115077Y-140507512D01*
X198347851Y-140855884D01*
X198644116Y-141152149D01*
X198992488Y-141384923D01*
X199379577Y-141545261D01*
X199790509Y-141627000D01*
X200209491Y-141627000D01*
X200620423Y-141545261D01*
X201007512Y-141384923D01*
X201355884Y-141152149D01*
X201652149Y-140855884D01*
X201884923Y-140507512D01*
X202045261Y-140120423D01*
X202127000Y-139709491D01*
X202127000Y-139290509D01*
X202045261Y-138879577D01*
X201884923Y-138492488D01*
X201652149Y-138144116D01*
X201355884Y-137847851D01*
X201007512Y-137615077D01*
X200620423Y-137454739D01*
X200209491Y-137373000D01*
X199790509Y-137373000D01*
X199379577Y-137454739D01*
X198992488Y-137615077D01*
X198644116Y-137847851D01*
X198347851Y-138144116D01*
X198115077Y-138492488D01*
X197954739Y-138879577D01*
X197873000Y-139290509D01*
X95127000Y-139290509D01*
X95127000Y-136508699D01*
X116073000Y-136508699D01*
X116073000Y-136691301D01*
X116108624Y-136870396D01*
X116178504Y-137039099D01*
X116279952Y-137190928D01*
X116409072Y-137320048D01*
X116560901Y-137421496D01*
X116729604Y-137491376D01*
X116908699Y-137527000D01*
X117091301Y-137527000D01*
X117270396Y-137491376D01*
X117439099Y-137421496D01*
X117590928Y-137320048D01*
X117720048Y-137190928D01*
X117821496Y-137039099D01*
X117891376Y-136870396D01*
X117927000Y-136691301D01*
X117927000Y-136508699D01*
X117891376Y-136329604D01*
X117821496Y-136160901D01*
X117786617Y-136108699D01*
X173073000Y-136108699D01*
X173073000Y-136291301D01*
X173108624Y-136470396D01*
X173178504Y-136639099D01*
X173279952Y-136790928D01*
X173409072Y-136920048D01*
X173560901Y-137021496D01*
X173729604Y-137091376D01*
X173908699Y-137127000D01*
X174091301Y-137127000D01*
X174270396Y-137091376D01*
X174439099Y-137021496D01*
X174590928Y-136920048D01*
X174720048Y-136790928D01*
X174821496Y-136639099D01*
X174891376Y-136470396D01*
X174927000Y-136291301D01*
X174927000Y-136108699D01*
X174891376Y-135929604D01*
X174821496Y-135760901D01*
X174720048Y-135609072D01*
X174590928Y-135479952D01*
X174439099Y-135378504D01*
X174270396Y-135308624D01*
X174091301Y-135273000D01*
X173908699Y-135273000D01*
X173729604Y-135308624D01*
X173560901Y-135378504D01*
X173409072Y-135479952D01*
X173279952Y-135609072D01*
X173178504Y-135760901D01*
X173108624Y-135929604D01*
X173073000Y-136108699D01*
X117786617Y-136108699D01*
X117720048Y-136009072D01*
X117590928Y-135879952D01*
X117439099Y-135778504D01*
X117270396Y-135708624D01*
X117091301Y-135673000D01*
X116908699Y-135673000D01*
X116729604Y-135708624D01*
X116560901Y-135778504D01*
X116409072Y-135879952D01*
X116279952Y-136009072D01*
X116178504Y-136160901D01*
X116108624Y-136329604D01*
X116073000Y-136508699D01*
X95127000Y-136508699D01*
X95127000Y-135835033D01*
X95144116Y-135852149D01*
X95492488Y-136084923D01*
X95879577Y-136245261D01*
X96290509Y-136327000D01*
X96709491Y-136327000D01*
X97120423Y-136245261D01*
X97507512Y-136084923D01*
X97855884Y-135852149D01*
X98152149Y-135555884D01*
X98384923Y-135207512D01*
X98545261Y-134820423D01*
X98627000Y-134409491D01*
X98627000Y-133990509D01*
X98545261Y-133579577D01*
X98384923Y-133192488D01*
X98152149Y-132844116D01*
X97855884Y-132547851D01*
X97507512Y-132315077D01*
X97120423Y-132154739D01*
X96709491Y-132073000D01*
X96290509Y-132073000D01*
X95879577Y-132154739D01*
X95492488Y-132315077D01*
X95144116Y-132547851D01*
X95127000Y-132564967D01*
X95127000Y-131246759D01*
X103088834Y-123284925D01*
X103116571Y-123262162D01*
X103190577Y-123171985D01*
X103207420Y-123151462D01*
X103274928Y-123025165D01*
X103316498Y-122888126D01*
X103330535Y-122745609D01*
X103327017Y-122709891D01*
X103327017Y-121344849D01*
X140723208Y-121344849D01*
X140723208Y-121616095D01*
X140776125Y-121882128D01*
X140879926Y-122132726D01*
X141030622Y-122358259D01*
X141222421Y-122550058D01*
X141447954Y-122700754D01*
X141567984Y-122750472D01*
X141447954Y-122800190D01*
X141222421Y-122950886D01*
X141030622Y-123142685D01*
X140879926Y-123368218D01*
X140776125Y-123618816D01*
X140723208Y-123884849D01*
X140723208Y-124156095D01*
X140776125Y-124422128D01*
X140879926Y-124672726D01*
X141030622Y-124898259D01*
X141222421Y-125090058D01*
X141447954Y-125240754D01*
X141698552Y-125344555D01*
X141964585Y-125397472D01*
X142235831Y-125397472D01*
X142501864Y-125344555D01*
X142752462Y-125240754D01*
X142977995Y-125090058D01*
X143169794Y-124898259D01*
X143320490Y-124672726D01*
X143370208Y-124552696D01*
X143419926Y-124672726D01*
X143570622Y-124898259D01*
X143762421Y-125090058D01*
X143987954Y-125240754D01*
X144238552Y-125344555D01*
X144504585Y-125397472D01*
X144775831Y-125397472D01*
X145041864Y-125344555D01*
X145292462Y-125240754D01*
X145517995Y-125090058D01*
X145709794Y-124898259D01*
X145860490Y-124672726D01*
X145910208Y-124552696D01*
X145959926Y-124672726D01*
X146110622Y-124898259D01*
X146302421Y-125090058D01*
X146527954Y-125240754D01*
X146778552Y-125344555D01*
X147044585Y-125397472D01*
X147315831Y-125397472D01*
X147581864Y-125344555D01*
X147832462Y-125240754D01*
X148057995Y-125090058D01*
X148249794Y-124898259D01*
X148400490Y-124672726D01*
X148450208Y-124552696D01*
X148499926Y-124672726D01*
X148650622Y-124898259D01*
X148842421Y-125090058D01*
X149067954Y-125240754D01*
X149318552Y-125344555D01*
X149584585Y-125397472D01*
X149855831Y-125397472D01*
X150121864Y-125344555D01*
X150372462Y-125240754D01*
X150597995Y-125090058D01*
X150789794Y-124898259D01*
X150940490Y-124672726D01*
X150990208Y-124552696D01*
X151039926Y-124672726D01*
X151190622Y-124898259D01*
X151382421Y-125090058D01*
X151607954Y-125240754D01*
X151858552Y-125344555D01*
X152124585Y-125397472D01*
X152395831Y-125397472D01*
X152661864Y-125344555D01*
X152912462Y-125240754D01*
X153137995Y-125090058D01*
X153329794Y-124898259D01*
X153480490Y-124672726D01*
X153530208Y-124552696D01*
X153579926Y-124672726D01*
X153730622Y-124898259D01*
X153922421Y-125090058D01*
X154147954Y-125240754D01*
X154398552Y-125344555D01*
X154664585Y-125397472D01*
X154935831Y-125397472D01*
X155201864Y-125344555D01*
X155452462Y-125240754D01*
X155677995Y-125090058D01*
X155869794Y-124898259D01*
X156020490Y-124672726D01*
X156070208Y-124552696D01*
X156119926Y-124672726D01*
X156270622Y-124898259D01*
X156462421Y-125090058D01*
X156687954Y-125240754D01*
X156938552Y-125344555D01*
X157204585Y-125397472D01*
X157475831Y-125397472D01*
X157741864Y-125344555D01*
X157992462Y-125240754D01*
X158217995Y-125090058D01*
X158409794Y-124898259D01*
X158560490Y-124672726D01*
X158610208Y-124552696D01*
X158659926Y-124672726D01*
X158810622Y-124898259D01*
X159002421Y-125090058D01*
X159227954Y-125240754D01*
X159478552Y-125344555D01*
X159744585Y-125397472D01*
X160015831Y-125397472D01*
X160281864Y-125344555D01*
X160532462Y-125240754D01*
X160757995Y-125090058D01*
X160949794Y-124898259D01*
X161100490Y-124672726D01*
X161150208Y-124552696D01*
X161199926Y-124672726D01*
X161350622Y-124898259D01*
X161542421Y-125090058D01*
X161767954Y-125240754D01*
X162018552Y-125344555D01*
X162284585Y-125397472D01*
X162555831Y-125397472D01*
X162821864Y-125344555D01*
X163072462Y-125240754D01*
X163297995Y-125090058D01*
X163489794Y-124898259D01*
X163640490Y-124672726D01*
X163690208Y-124552696D01*
X163739926Y-124672726D01*
X163890622Y-124898259D01*
X164082421Y-125090058D01*
X164307954Y-125240754D01*
X164558552Y-125344555D01*
X164824585Y-125397472D01*
X165095831Y-125397472D01*
X165361864Y-125344555D01*
X165612462Y-125240754D01*
X165837995Y-125090058D01*
X166029794Y-124898259D01*
X166180490Y-124672726D01*
X166230208Y-124552696D01*
X166279926Y-124672726D01*
X166430622Y-124898259D01*
X166622421Y-125090058D01*
X166847954Y-125240754D01*
X167098552Y-125344555D01*
X167364585Y-125397472D01*
X167635831Y-125397472D01*
X167901864Y-125344555D01*
X168152462Y-125240754D01*
X168377995Y-125090058D01*
X168569794Y-124898259D01*
X168720490Y-124672726D01*
X168770208Y-124552696D01*
X168819926Y-124672726D01*
X168970622Y-124898259D01*
X169162421Y-125090058D01*
X169387954Y-125240754D01*
X169638552Y-125344555D01*
X169904585Y-125397472D01*
X170175831Y-125397472D01*
X170441864Y-125344555D01*
X170692462Y-125240754D01*
X170917995Y-125090058D01*
X171109794Y-124898259D01*
X171260490Y-124672726D01*
X171310208Y-124552696D01*
X171359926Y-124672726D01*
X171510622Y-124898259D01*
X171702421Y-125090058D01*
X171927954Y-125240754D01*
X172178552Y-125344555D01*
X172444585Y-125397472D01*
X172715831Y-125397472D01*
X172981864Y-125344555D01*
X173232462Y-125240754D01*
X173457995Y-125090058D01*
X173649794Y-124898259D01*
X173800490Y-124672726D01*
X173850208Y-124552696D01*
X173899926Y-124672726D01*
X174050622Y-124898259D01*
X174242421Y-125090058D01*
X174467954Y-125240754D01*
X174718552Y-125344555D01*
X174984585Y-125397472D01*
X175255831Y-125397472D01*
X175521864Y-125344555D01*
X175772462Y-125240754D01*
X175997995Y-125090058D01*
X176189794Y-124898259D01*
X176340490Y-124672726D01*
X176390208Y-124552696D01*
X176439926Y-124672726D01*
X176590622Y-124898259D01*
X176782421Y-125090058D01*
X177007954Y-125240754D01*
X177258552Y-125344555D01*
X177524585Y-125397472D01*
X177795831Y-125397472D01*
X178061864Y-125344555D01*
X178312462Y-125240754D01*
X178537995Y-125090058D01*
X178729794Y-124898259D01*
X178880490Y-124672726D01*
X178930208Y-124552696D01*
X178979926Y-124672726D01*
X179130622Y-124898259D01*
X179322421Y-125090058D01*
X179547954Y-125240754D01*
X179798552Y-125344555D01*
X180064585Y-125397472D01*
X180335831Y-125397472D01*
X180601864Y-125344555D01*
X180852462Y-125240754D01*
X181077995Y-125090058D01*
X181269794Y-124898259D01*
X181420490Y-124672726D01*
X181470208Y-124552696D01*
X181519926Y-124672726D01*
X181670622Y-124898259D01*
X181862421Y-125090058D01*
X182087954Y-125240754D01*
X182338552Y-125344555D01*
X182604585Y-125397472D01*
X182875831Y-125397472D01*
X183141864Y-125344555D01*
X183392462Y-125240754D01*
X183617995Y-125090058D01*
X183809794Y-124898259D01*
X183960490Y-124672726D01*
X184010208Y-124552696D01*
X184059926Y-124672726D01*
X184210622Y-124898259D01*
X184402421Y-125090058D01*
X184627954Y-125240754D01*
X184878552Y-125344555D01*
X185144585Y-125397472D01*
X185415831Y-125397472D01*
X185681864Y-125344555D01*
X185932462Y-125240754D01*
X186157995Y-125090058D01*
X186349794Y-124898259D01*
X186500490Y-124672726D01*
X186550208Y-124552696D01*
X186599926Y-124672726D01*
X186750622Y-124898259D01*
X186942421Y-125090058D01*
X187167954Y-125240754D01*
X187418552Y-125344555D01*
X187684585Y-125397472D01*
X187955831Y-125397472D01*
X188221864Y-125344555D01*
X188472462Y-125240754D01*
X188697995Y-125090058D01*
X188889794Y-124898259D01*
X189040490Y-124672726D01*
X189090208Y-124552696D01*
X189139926Y-124672726D01*
X189290622Y-124898259D01*
X189482421Y-125090058D01*
X189707954Y-125240754D01*
X189958552Y-125344555D01*
X190224585Y-125397472D01*
X190495831Y-125397472D01*
X190761864Y-125344555D01*
X191012462Y-125240754D01*
X191237995Y-125090058D01*
X191429794Y-124898259D01*
X191580490Y-124672726D01*
X191648432Y-124508699D01*
X212673000Y-124508699D01*
X212673000Y-124691301D01*
X212708624Y-124870396D01*
X212778504Y-125039099D01*
X212879952Y-125190928D01*
X213009072Y-125320048D01*
X213160901Y-125421496D01*
X213329604Y-125491376D01*
X213508699Y-125527000D01*
X213691301Y-125527000D01*
X213870396Y-125491376D01*
X214039099Y-125421496D01*
X214190928Y-125320048D01*
X214320048Y-125190928D01*
X214421496Y-125039099D01*
X214491376Y-124870396D01*
X214527000Y-124691301D01*
X214527000Y-124508699D01*
X214491376Y-124329604D01*
X214421496Y-124160901D01*
X214320048Y-124009072D01*
X214190928Y-123879952D01*
X214039099Y-123778504D01*
X213870396Y-123708624D01*
X213691301Y-123673000D01*
X213508699Y-123673000D01*
X213329604Y-123708624D01*
X213160901Y-123778504D01*
X213009072Y-123879952D01*
X212879952Y-124009072D01*
X212778504Y-124160901D01*
X212708624Y-124329604D01*
X212673000Y-124508699D01*
X191648432Y-124508699D01*
X191684291Y-124422128D01*
X191737208Y-124156095D01*
X191737208Y-123884849D01*
X191684291Y-123618816D01*
X191580490Y-123368218D01*
X191429794Y-123142685D01*
X191237995Y-122950886D01*
X191102006Y-122860021D01*
X191210208Y-122860021D01*
X191313518Y-122849846D01*
X191412858Y-122819711D01*
X191504410Y-122770776D01*
X191584656Y-122704920D01*
X191650512Y-122624674D01*
X191699447Y-122533122D01*
X191729582Y-122433782D01*
X191739757Y-122330472D01*
X191739757Y-120630472D01*
X191729582Y-120527162D01*
X191699447Y-120427822D01*
X191650512Y-120336270D01*
X191584656Y-120256024D01*
X191504410Y-120190168D01*
X191412858Y-120141233D01*
X191313518Y-120111098D01*
X191210208Y-120100923D01*
X189510208Y-120100923D01*
X189406898Y-120111098D01*
X189307558Y-120141233D01*
X189216006Y-120190168D01*
X189135760Y-120256024D01*
X189069904Y-120336270D01*
X189020969Y-120427822D01*
X188990834Y-120527162D01*
X188980659Y-120630472D01*
X188980659Y-120738674D01*
X188889794Y-120602685D01*
X188697995Y-120410886D01*
X188472462Y-120260190D01*
X188221864Y-120156389D01*
X187955831Y-120103472D01*
X187684585Y-120103472D01*
X187418552Y-120156389D01*
X187167954Y-120260190D01*
X186942421Y-120410886D01*
X186750622Y-120602685D01*
X186599926Y-120828218D01*
X186550208Y-120948248D01*
X186500490Y-120828218D01*
X186349794Y-120602685D01*
X186157995Y-120410886D01*
X185932462Y-120260190D01*
X185681864Y-120156389D01*
X185415831Y-120103472D01*
X185144585Y-120103472D01*
X184878552Y-120156389D01*
X184627954Y-120260190D01*
X184402421Y-120410886D01*
X184210622Y-120602685D01*
X184059926Y-120828218D01*
X184010208Y-120948248D01*
X183960490Y-120828218D01*
X183809794Y-120602685D01*
X183617995Y-120410886D01*
X183392462Y-120260190D01*
X183141864Y-120156389D01*
X182875831Y-120103472D01*
X182604585Y-120103472D01*
X182338552Y-120156389D01*
X182087954Y-120260190D01*
X181862421Y-120410886D01*
X181670622Y-120602685D01*
X181519926Y-120828218D01*
X181470208Y-120948248D01*
X181420490Y-120828218D01*
X181269794Y-120602685D01*
X181077995Y-120410886D01*
X180852462Y-120260190D01*
X180601864Y-120156389D01*
X180335831Y-120103472D01*
X180064585Y-120103472D01*
X179798552Y-120156389D01*
X179547954Y-120260190D01*
X179322421Y-120410886D01*
X179130622Y-120602685D01*
X178979926Y-120828218D01*
X178930208Y-120948248D01*
X178880490Y-120828218D01*
X178729794Y-120602685D01*
X178537995Y-120410886D01*
X178312462Y-120260190D01*
X178061864Y-120156389D01*
X177795831Y-120103472D01*
X177524585Y-120103472D01*
X177258552Y-120156389D01*
X177007954Y-120260190D01*
X176782421Y-120410886D01*
X176590622Y-120602685D01*
X176439926Y-120828218D01*
X176390208Y-120948248D01*
X176340490Y-120828218D01*
X176189794Y-120602685D01*
X175997995Y-120410886D01*
X175772462Y-120260190D01*
X175521864Y-120156389D01*
X175255831Y-120103472D01*
X174984585Y-120103472D01*
X174718552Y-120156389D01*
X174467954Y-120260190D01*
X174242421Y-120410886D01*
X174050622Y-120602685D01*
X173899926Y-120828218D01*
X173850208Y-120948248D01*
X173800490Y-120828218D01*
X173649794Y-120602685D01*
X173457995Y-120410886D01*
X173232462Y-120260190D01*
X172981864Y-120156389D01*
X172715831Y-120103472D01*
X172444585Y-120103472D01*
X172178552Y-120156389D01*
X171927954Y-120260190D01*
X171702421Y-120410886D01*
X171510622Y-120602685D01*
X171359926Y-120828218D01*
X171310208Y-120948248D01*
X171260490Y-120828218D01*
X171109794Y-120602685D01*
X170917995Y-120410886D01*
X170692462Y-120260190D01*
X170441864Y-120156389D01*
X170175831Y-120103472D01*
X169904585Y-120103472D01*
X169638552Y-120156389D01*
X169387954Y-120260190D01*
X169162421Y-120410886D01*
X168970622Y-120602685D01*
X168819926Y-120828218D01*
X168770208Y-120948248D01*
X168720490Y-120828218D01*
X168569794Y-120602685D01*
X168377995Y-120410886D01*
X168152462Y-120260190D01*
X167901864Y-120156389D01*
X167635831Y-120103472D01*
X167364585Y-120103472D01*
X167098552Y-120156389D01*
X166847954Y-120260190D01*
X166622421Y-120410886D01*
X166430622Y-120602685D01*
X166279926Y-120828218D01*
X166230208Y-120948248D01*
X166180490Y-120828218D01*
X166029794Y-120602685D01*
X165837995Y-120410886D01*
X165612462Y-120260190D01*
X165361864Y-120156389D01*
X165095831Y-120103472D01*
X164824585Y-120103472D01*
X164558552Y-120156389D01*
X164307954Y-120260190D01*
X164082421Y-120410886D01*
X163890622Y-120602685D01*
X163739926Y-120828218D01*
X163690208Y-120948248D01*
X163640490Y-120828218D01*
X163489794Y-120602685D01*
X163297995Y-120410886D01*
X163072462Y-120260190D01*
X162821864Y-120156389D01*
X162555831Y-120103472D01*
X162284585Y-120103472D01*
X162018552Y-120156389D01*
X161767954Y-120260190D01*
X161542421Y-120410886D01*
X161350622Y-120602685D01*
X161199926Y-120828218D01*
X161150208Y-120948248D01*
X161100490Y-120828218D01*
X160949794Y-120602685D01*
X160757995Y-120410886D01*
X160532462Y-120260190D01*
X160281864Y-120156389D01*
X160015831Y-120103472D01*
X159744585Y-120103472D01*
X159478552Y-120156389D01*
X159227954Y-120260190D01*
X159002421Y-120410886D01*
X158810622Y-120602685D01*
X158659926Y-120828218D01*
X158610208Y-120948248D01*
X158560490Y-120828218D01*
X158409794Y-120602685D01*
X158217995Y-120410886D01*
X157992462Y-120260190D01*
X157741864Y-120156389D01*
X157475831Y-120103472D01*
X157204585Y-120103472D01*
X156938552Y-120156389D01*
X156687954Y-120260190D01*
X156462421Y-120410886D01*
X156270622Y-120602685D01*
X156126233Y-120818780D01*
X155995386Y-120599117D01*
X155800477Y-120382884D01*
X155567128Y-120208831D01*
X155304307Y-120083647D01*
X155157098Y-120038996D01*
X154927208Y-120160317D01*
X154927208Y-121353472D01*
X154947208Y-121353472D01*
X154947208Y-121607472D01*
X154927208Y-121607472D01*
X154927208Y-121627472D01*
X154673208Y-121627472D01*
X154673208Y-121607472D01*
X154653208Y-121607472D01*
X154653208Y-121353472D01*
X154673208Y-121353472D01*
X154673208Y-120160317D01*
X154443318Y-120038996D01*
X154296109Y-120083647D01*
X154033288Y-120208831D01*
X153799939Y-120382884D01*
X153605030Y-120599117D01*
X153474183Y-120818780D01*
X153329794Y-120602685D01*
X153137995Y-120410886D01*
X152912462Y-120260190D01*
X152661864Y-120156389D01*
X152395831Y-120103472D01*
X152124585Y-120103472D01*
X151858552Y-120156389D01*
X151607954Y-120260190D01*
X151382421Y-120410886D01*
X151190622Y-120602685D01*
X151039926Y-120828218D01*
X150990208Y-120948248D01*
X150940490Y-120828218D01*
X150789794Y-120602685D01*
X150597995Y-120410886D01*
X150372462Y-120260190D01*
X150121864Y-120156389D01*
X149855831Y-120103472D01*
X149584585Y-120103472D01*
X149318552Y-120156389D01*
X149067954Y-120260190D01*
X148842421Y-120410886D01*
X148650622Y-120602685D01*
X148499926Y-120828218D01*
X148450208Y-120948248D01*
X148400490Y-120828218D01*
X148249794Y-120602685D01*
X148057995Y-120410886D01*
X147832462Y-120260190D01*
X147581864Y-120156389D01*
X147315831Y-120103472D01*
X147044585Y-120103472D01*
X146778552Y-120156389D01*
X146527954Y-120260190D01*
X146302421Y-120410886D01*
X146110622Y-120602685D01*
X145959926Y-120828218D01*
X145910208Y-120948248D01*
X145860490Y-120828218D01*
X145709794Y-120602685D01*
X145517995Y-120410886D01*
X145292462Y-120260190D01*
X145041864Y-120156389D01*
X144775831Y-120103472D01*
X144504585Y-120103472D01*
X144238552Y-120156389D01*
X143987954Y-120260190D01*
X143762421Y-120410886D01*
X143570622Y-120602685D01*
X143419926Y-120828218D01*
X143370208Y-120948248D01*
X143320490Y-120828218D01*
X143169794Y-120602685D01*
X142977995Y-120410886D01*
X142752462Y-120260190D01*
X142501864Y-120156389D01*
X142235831Y-120103472D01*
X141964585Y-120103472D01*
X141698552Y-120156389D01*
X141447954Y-120260190D01*
X141222421Y-120410886D01*
X141030622Y-120602685D01*
X140879926Y-120828218D01*
X140776125Y-121078816D01*
X140723208Y-121344849D01*
X103327017Y-121344849D01*
X103327019Y-119954638D01*
X103330536Y-119918932D01*
X103327019Y-119883225D01*
X103316499Y-119776417D01*
X103274929Y-119639377D01*
X103207422Y-119513081D01*
X103207421Y-119513079D01*
X103156462Y-119450986D01*
X103116573Y-119402380D01*
X103088836Y-119379617D01*
X100417918Y-116708699D01*
X216873000Y-116708699D01*
X216873000Y-116891301D01*
X216908624Y-117070396D01*
X216978504Y-117239099D01*
X217079952Y-117390928D01*
X217209072Y-117520048D01*
X217360901Y-117621496D01*
X217529604Y-117691376D01*
X217708699Y-117727000D01*
X217891301Y-117727000D01*
X218070396Y-117691376D01*
X218239099Y-117621496D01*
X218390928Y-117520048D01*
X218520048Y-117390928D01*
X218621496Y-117239099D01*
X218691376Y-117070396D01*
X218727000Y-116891301D01*
X218727000Y-116708699D01*
X218691376Y-116529604D01*
X218621496Y-116360901D01*
X218520048Y-116209072D01*
X218390928Y-116079952D01*
X218239099Y-115978504D01*
X218070396Y-115908624D01*
X217891301Y-115873000D01*
X217708699Y-115873000D01*
X217529604Y-115908624D01*
X217360901Y-115978504D01*
X217209072Y-116079952D01*
X217079952Y-116209072D01*
X216978504Y-116360901D01*
X216908624Y-116529604D01*
X216873000Y-116708699D01*
X100417918Y-116708699D01*
X99304060Y-115594841D01*
X108904853Y-115594841D01*
X108904853Y-115777443D01*
X108940477Y-115956538D01*
X109010357Y-116125241D01*
X109111805Y-116277070D01*
X109240925Y-116406190D01*
X109392754Y-116507638D01*
X109561457Y-116577518D01*
X109740552Y-116613142D01*
X109923154Y-116613142D01*
X110102249Y-116577518D01*
X110270952Y-116507638D01*
X110422781Y-116406190D01*
X110551901Y-116277070D01*
X110653349Y-116125241D01*
X110723229Y-115956538D01*
X110758853Y-115777443D01*
X110758853Y-115594841D01*
X110723229Y-115415746D01*
X110653349Y-115247043D01*
X110551901Y-115095214D01*
X110422781Y-114966094D01*
X110270952Y-114864646D01*
X110102249Y-114794766D01*
X109923154Y-114759142D01*
X109740552Y-114759142D01*
X109561457Y-114794766D01*
X109392754Y-114864646D01*
X109240925Y-114966094D01*
X109111805Y-115095214D01*
X109010357Y-115247043D01*
X108940477Y-115415746D01*
X108904853Y-115594841D01*
X99304060Y-115594841D01*
X95127000Y-111417782D01*
X95127000Y-109037976D01*
X95209072Y-109120048D01*
X95360901Y-109221496D01*
X95529604Y-109291376D01*
X95708699Y-109327000D01*
X95891301Y-109327000D01*
X96070396Y-109291376D01*
X96239099Y-109221496D01*
X96390928Y-109120048D01*
X96520048Y-108990928D01*
X96621496Y-108839099D01*
X96691376Y-108670396D01*
X96727000Y-108491301D01*
X96727000Y-108308699D01*
X96691376Y-108129604D01*
X96621496Y-107960901D01*
X96520048Y-107809072D01*
X96390928Y-107679952D01*
X96239099Y-107578504D01*
X96070396Y-107508624D01*
X95891301Y-107473000D01*
X95708699Y-107473000D01*
X95529604Y-107508624D01*
X95360901Y-107578504D01*
X95209072Y-107679952D01*
X95127000Y-107762024D01*
X95127000Y-102208699D01*
X112373000Y-102208699D01*
X112373000Y-102391301D01*
X112408624Y-102570396D01*
X112478504Y-102739099D01*
X112579952Y-102890928D01*
X112709072Y-103020048D01*
X112860901Y-103121496D01*
X113029604Y-103191376D01*
X113208699Y-103227000D01*
X113391301Y-103227000D01*
X113570396Y-103191376D01*
X113739099Y-103121496D01*
X113890928Y-103020048D01*
X114020048Y-102890928D01*
X114121496Y-102739099D01*
X114191376Y-102570396D01*
X114227000Y-102391301D01*
X114227000Y-102233699D01*
X118948000Y-102233699D01*
X118948000Y-102416301D01*
X118983624Y-102595396D01*
X119053504Y-102764099D01*
X119154952Y-102915928D01*
X119284072Y-103045048D01*
X119435901Y-103146496D01*
X119604604Y-103216376D01*
X119783699Y-103252000D01*
X119966301Y-103252000D01*
X120145396Y-103216376D01*
X120314099Y-103146496D01*
X120465928Y-103045048D01*
X120595048Y-102915928D01*
X120696496Y-102764099D01*
X120766376Y-102595396D01*
X120802000Y-102416301D01*
X120802000Y-102233699D01*
X120766376Y-102054604D01*
X120696496Y-101885901D01*
X120595048Y-101734072D01*
X120465928Y-101604952D01*
X120314099Y-101503504D01*
X120145396Y-101433624D01*
X119966301Y-101398000D01*
X119783699Y-101398000D01*
X119604604Y-101433624D01*
X119435901Y-101503504D01*
X119284072Y-101604952D01*
X119154952Y-101734072D01*
X119053504Y-101885901D01*
X118983624Y-102054604D01*
X118948000Y-102233699D01*
X114227000Y-102233699D01*
X114227000Y-102208699D01*
X114191376Y-102029604D01*
X114121496Y-101860901D01*
X114020048Y-101709072D01*
X113890928Y-101579952D01*
X113739099Y-101478504D01*
X113570396Y-101408624D01*
X113391301Y-101373000D01*
X113208699Y-101373000D01*
X113029604Y-101408624D01*
X112860901Y-101478504D01*
X112709072Y-101579952D01*
X112579952Y-101709072D01*
X112478504Y-101860901D01*
X112408624Y-102029604D01*
X112373000Y-102208699D01*
X95127000Y-102208699D01*
X95127000Y-98859453D01*
X96573000Y-98859453D01*
X96573000Y-99140547D01*
X96627838Y-99416241D01*
X96735409Y-99675938D01*
X96891576Y-99909660D01*
X97090340Y-100108424D01*
X97324062Y-100264591D01*
X97583759Y-100372162D01*
X97859453Y-100427000D01*
X98140547Y-100427000D01*
X98416241Y-100372162D01*
X98675938Y-100264591D01*
X98909660Y-100108424D01*
X99108424Y-99909660D01*
X99264591Y-99675938D01*
X99372162Y-99416241D01*
X99427000Y-99140547D01*
X99427000Y-98859453D01*
X99372162Y-98583759D01*
X99264591Y-98324062D01*
X99108424Y-98090340D01*
X98909660Y-97891576D01*
X98675938Y-97735409D01*
X98416241Y-97627838D01*
X98140547Y-97573000D01*
X97859453Y-97573000D01*
X97583759Y-97627838D01*
X97324062Y-97735409D01*
X97090340Y-97891576D01*
X96891576Y-98090340D01*
X96735409Y-98324062D01*
X96627838Y-98583759D01*
X96573000Y-98859453D01*
X95127000Y-98859453D01*
X95127000Y-97880763D01*
X95359453Y-97927000D01*
X95640547Y-97927000D01*
X95916241Y-97872162D01*
X96175938Y-97764591D01*
X96409660Y-97608424D01*
X96608424Y-97409660D01*
X96764591Y-97175938D01*
X96872162Y-96916241D01*
X96927000Y-96640547D01*
X96927000Y-96359453D01*
X96872162Y-96083759D01*
X96764591Y-95824062D01*
X96608424Y-95590340D01*
X96409660Y-95391576D01*
X96175938Y-95235409D01*
X95916241Y-95127838D01*
X95640547Y-95073000D01*
X95359453Y-95073000D01*
X95127000Y-95119237D01*
X95127000Y-93859453D01*
X96573000Y-93859453D01*
X96573000Y-94140547D01*
X96627838Y-94416241D01*
X96735409Y-94675938D01*
X96891576Y-94909660D01*
X97090340Y-95108424D01*
X97324062Y-95264591D01*
X97583759Y-95372162D01*
X97859453Y-95427000D01*
X98140547Y-95427000D01*
X98416241Y-95372162D01*
X98675938Y-95264591D01*
X98909660Y-95108424D01*
X99108424Y-94909660D01*
X99264591Y-94675938D01*
X99372162Y-94416241D01*
X99395283Y-94300000D01*
X103670451Y-94300000D01*
X103670451Y-95900000D01*
X103680626Y-96003310D01*
X103710761Y-96102650D01*
X103759696Y-96194202D01*
X103825552Y-96274448D01*
X103905798Y-96340304D01*
X103997350Y-96389239D01*
X104096690Y-96419374D01*
X104200000Y-96429549D01*
X105800000Y-96429549D01*
X105903310Y-96419374D01*
X106002650Y-96389239D01*
X106094202Y-96340304D01*
X106174448Y-96274448D01*
X106240304Y-96194202D01*
X106289239Y-96102650D01*
X106319374Y-96003310D01*
X106329549Y-95900000D01*
X106329549Y-95736833D01*
X106469252Y-95945913D01*
X106654087Y-96130748D01*
X106871430Y-96275972D01*
X107112928Y-96376004D01*
X107369302Y-96427000D01*
X107630698Y-96427000D01*
X107887072Y-96376004D01*
X108128570Y-96275972D01*
X108345913Y-96130748D01*
X108530748Y-95945913D01*
X108675972Y-95728570D01*
X108776004Y-95487072D01*
X108827000Y-95230698D01*
X108827000Y-94969302D01*
X108776004Y-94712928D01*
X108675972Y-94471430D01*
X108561427Y-94300000D01*
X111670451Y-94300000D01*
X111670451Y-95900000D01*
X111680626Y-96003310D01*
X111710761Y-96102650D01*
X111759696Y-96194202D01*
X111825552Y-96274448D01*
X111905798Y-96340304D01*
X111997350Y-96389239D01*
X112096690Y-96419374D01*
X112200000Y-96429549D01*
X113800000Y-96429549D01*
X113903310Y-96419374D01*
X114002650Y-96389239D01*
X114094202Y-96340304D01*
X114174448Y-96274448D01*
X114240304Y-96194202D01*
X114289239Y-96102650D01*
X114319374Y-96003310D01*
X114329549Y-95900000D01*
X114329549Y-95736833D01*
X114469252Y-95945913D01*
X114654087Y-96130748D01*
X114871430Y-96275972D01*
X115112928Y-96376004D01*
X115369302Y-96427000D01*
X115630698Y-96427000D01*
X115887072Y-96376004D01*
X116128570Y-96275972D01*
X116345913Y-96130748D01*
X116530748Y-95945913D01*
X116675972Y-95728570D01*
X116776004Y-95487072D01*
X116827000Y-95230698D01*
X116827000Y-94969302D01*
X116776004Y-94712928D01*
X116675972Y-94471430D01*
X116561427Y-94300000D01*
X119670451Y-94300000D01*
X119670451Y-95900000D01*
X119680626Y-96003310D01*
X119710761Y-96102650D01*
X119759696Y-96194202D01*
X119825552Y-96274448D01*
X119905798Y-96340304D01*
X119997350Y-96389239D01*
X120096690Y-96419374D01*
X120200000Y-96429549D01*
X121800000Y-96429549D01*
X121903310Y-96419374D01*
X122002650Y-96389239D01*
X122094202Y-96340304D01*
X122174448Y-96274448D01*
X122240304Y-96194202D01*
X122289239Y-96102650D01*
X122319374Y-96003310D01*
X122329549Y-95900000D01*
X122329549Y-95736833D01*
X122469252Y-95945913D01*
X122654087Y-96130748D01*
X122871430Y-96275972D01*
X123112928Y-96376004D01*
X123369302Y-96427000D01*
X123630698Y-96427000D01*
X123887072Y-96376004D01*
X124128570Y-96275972D01*
X124345913Y-96130748D01*
X124530748Y-95945913D01*
X124675972Y-95728570D01*
X124776004Y-95487072D01*
X124827000Y-95230698D01*
X124827000Y-94969302D01*
X124776004Y-94712928D01*
X124675972Y-94471430D01*
X124561427Y-94300000D01*
X127670451Y-94300000D01*
X127670451Y-95900000D01*
X127680626Y-96003310D01*
X127710761Y-96102650D01*
X127759696Y-96194202D01*
X127825552Y-96274448D01*
X127905798Y-96340304D01*
X127997350Y-96389239D01*
X128096690Y-96419374D01*
X128200000Y-96429549D01*
X129800000Y-96429549D01*
X129903310Y-96419374D01*
X130002650Y-96389239D01*
X130094202Y-96340304D01*
X130174448Y-96274448D01*
X130240304Y-96194202D01*
X130289239Y-96102650D01*
X130319374Y-96003310D01*
X130329549Y-95900000D01*
X130329549Y-95736833D01*
X130469252Y-95945913D01*
X130654087Y-96130748D01*
X130871430Y-96275972D01*
X131112928Y-96376004D01*
X131369302Y-96427000D01*
X131630698Y-96427000D01*
X131887072Y-96376004D01*
X132128570Y-96275972D01*
X132345913Y-96130748D01*
X132530748Y-95945913D01*
X132675972Y-95728570D01*
X132776004Y-95487072D01*
X132827000Y-95230698D01*
X132827000Y-94969302D01*
X132814946Y-94908699D01*
X218273000Y-94908699D01*
X218273000Y-95091301D01*
X218308624Y-95270396D01*
X218378504Y-95439099D01*
X218479952Y-95590928D01*
X218609072Y-95720048D01*
X218760901Y-95821496D01*
X218929604Y-95891376D01*
X219108699Y-95927000D01*
X219291301Y-95927000D01*
X219470396Y-95891376D01*
X219639099Y-95821496D01*
X219790928Y-95720048D01*
X219920048Y-95590928D01*
X220021496Y-95439099D01*
X220091376Y-95270396D01*
X220127000Y-95091301D01*
X220127000Y-94908699D01*
X220091376Y-94729604D01*
X220021496Y-94560901D01*
X219920048Y-94409072D01*
X219790928Y-94279952D01*
X219639099Y-94178504D01*
X219470396Y-94108624D01*
X219291301Y-94073000D01*
X219108699Y-94073000D01*
X218929604Y-94108624D01*
X218760901Y-94178504D01*
X218609072Y-94279952D01*
X218479952Y-94409072D01*
X218378504Y-94560901D01*
X218308624Y-94729604D01*
X218273000Y-94908699D01*
X132814946Y-94908699D01*
X132776004Y-94712928D01*
X132675972Y-94471430D01*
X132530748Y-94254087D01*
X132345913Y-94069252D01*
X132128570Y-93924028D01*
X131887072Y-93823996D01*
X131630698Y-93773000D01*
X131369302Y-93773000D01*
X131112928Y-93823996D01*
X130871430Y-93924028D01*
X130654087Y-94069252D01*
X130469252Y-94254087D01*
X130329549Y-94463167D01*
X130329549Y-94300000D01*
X130319374Y-94196690D01*
X130289239Y-94097350D01*
X130240304Y-94005798D01*
X130174448Y-93925552D01*
X130094202Y-93859696D01*
X130002650Y-93810761D01*
X129903310Y-93780626D01*
X129800000Y-93770451D01*
X128200000Y-93770451D01*
X128096690Y-93780626D01*
X127997350Y-93810761D01*
X127905798Y-93859696D01*
X127825552Y-93925552D01*
X127759696Y-94005798D01*
X127710761Y-94097350D01*
X127680626Y-94196690D01*
X127670451Y-94300000D01*
X124561427Y-94300000D01*
X124530748Y-94254087D01*
X124345913Y-94069252D01*
X124128570Y-93924028D01*
X123887072Y-93823996D01*
X123630698Y-93773000D01*
X123369302Y-93773000D01*
X123112928Y-93823996D01*
X122871430Y-93924028D01*
X122654087Y-94069252D01*
X122469252Y-94254087D01*
X122329549Y-94463167D01*
X122329549Y-94300000D01*
X122319374Y-94196690D01*
X122289239Y-94097350D01*
X122240304Y-94005798D01*
X122174448Y-93925552D01*
X122094202Y-93859696D01*
X122002650Y-93810761D01*
X121903310Y-93780626D01*
X121800000Y-93770451D01*
X120200000Y-93770451D01*
X120096690Y-93780626D01*
X119997350Y-93810761D01*
X119905798Y-93859696D01*
X119825552Y-93925552D01*
X119759696Y-94005798D01*
X119710761Y-94097350D01*
X119680626Y-94196690D01*
X119670451Y-94300000D01*
X116561427Y-94300000D01*
X116530748Y-94254087D01*
X116345913Y-94069252D01*
X116128570Y-93924028D01*
X115887072Y-93823996D01*
X115630698Y-93773000D01*
X115369302Y-93773000D01*
X115112928Y-93823996D01*
X114871430Y-93924028D01*
X114654087Y-94069252D01*
X114469252Y-94254087D01*
X114329549Y-94463167D01*
X114329549Y-94300000D01*
X114319374Y-94196690D01*
X114289239Y-94097350D01*
X114240304Y-94005798D01*
X114174448Y-93925552D01*
X114094202Y-93859696D01*
X114002650Y-93810761D01*
X113903310Y-93780626D01*
X113800000Y-93770451D01*
X112200000Y-93770451D01*
X112096690Y-93780626D01*
X111997350Y-93810761D01*
X111905798Y-93859696D01*
X111825552Y-93925552D01*
X111759696Y-94005798D01*
X111710761Y-94097350D01*
X111680626Y-94196690D01*
X111670451Y-94300000D01*
X108561427Y-94300000D01*
X108530748Y-94254087D01*
X108345913Y-94069252D01*
X108128570Y-93924028D01*
X107887072Y-93823996D01*
X107630698Y-93773000D01*
X107369302Y-93773000D01*
X107112928Y-93823996D01*
X106871430Y-93924028D01*
X106654087Y-94069252D01*
X106469252Y-94254087D01*
X106329549Y-94463167D01*
X106329549Y-94300000D01*
X106319374Y-94196690D01*
X106289239Y-94097350D01*
X106240304Y-94005798D01*
X106174448Y-93925552D01*
X106094202Y-93859696D01*
X106002650Y-93810761D01*
X105903310Y-93780626D01*
X105800000Y-93770451D01*
X104200000Y-93770451D01*
X104096690Y-93780626D01*
X103997350Y-93810761D01*
X103905798Y-93859696D01*
X103825552Y-93925552D01*
X103759696Y-94005798D01*
X103710761Y-94097350D01*
X103680626Y-94196690D01*
X103670451Y-94300000D01*
X99395283Y-94300000D01*
X99427000Y-94140547D01*
X99427000Y-93859453D01*
X99372162Y-93583759D01*
X99264591Y-93324062D01*
X99108424Y-93090340D01*
X98909660Y-92891576D01*
X98675938Y-92735409D01*
X98416241Y-92627838D01*
X98140547Y-92573000D01*
X97859453Y-92573000D01*
X97583759Y-92627838D01*
X97324062Y-92735409D01*
X97090340Y-92891576D01*
X96891576Y-93090340D01*
X96735409Y-93324062D01*
X96627838Y-93583759D01*
X96573000Y-93859453D01*
X95127000Y-93859453D01*
X95127000Y-92880763D01*
X95359453Y-92927000D01*
X95640547Y-92927000D01*
X95916241Y-92872162D01*
X96175938Y-92764591D01*
X96409660Y-92608424D01*
X96608424Y-92409660D01*
X96764591Y-92175938D01*
X96872162Y-91916241D01*
X96927000Y-91640547D01*
X96927000Y-91359453D01*
X96872162Y-91083759D01*
X96764591Y-90824062D01*
X96608424Y-90590340D01*
X96409660Y-90391576D01*
X96175938Y-90235409D01*
X95916241Y-90127838D01*
X95640547Y-90073000D01*
X95359453Y-90073000D01*
X95127000Y-90119237D01*
X95127000Y-79990000D01*
X140720451Y-79990000D01*
X140720451Y-81690000D01*
X140730626Y-81793310D01*
X140760761Y-81892650D01*
X140809696Y-81984202D01*
X140875552Y-82064448D01*
X140955798Y-82130304D01*
X141047350Y-82179239D01*
X141146690Y-82209374D01*
X141250000Y-82219549D01*
X142950000Y-82219549D01*
X143053310Y-82209374D01*
X143152650Y-82179239D01*
X143244202Y-82130304D01*
X143324448Y-82064448D01*
X143390304Y-81984202D01*
X143439239Y-81892650D01*
X143469374Y-81793310D01*
X143479549Y-81690000D01*
X143479549Y-81581798D01*
X143570414Y-81717787D01*
X143762213Y-81909586D01*
X143987746Y-82060282D01*
X144238344Y-82164083D01*
X144504377Y-82217000D01*
X144775623Y-82217000D01*
X145041656Y-82164083D01*
X145292254Y-82060282D01*
X145517787Y-81909586D01*
X145709586Y-81717787D01*
X145860282Y-81492254D01*
X145910000Y-81372224D01*
X145959718Y-81492254D01*
X146110414Y-81717787D01*
X146302213Y-81909586D01*
X146527746Y-82060282D01*
X146778344Y-82164083D01*
X147044377Y-82217000D01*
X147315623Y-82217000D01*
X147581656Y-82164083D01*
X147832254Y-82060282D01*
X148057787Y-81909586D01*
X148249586Y-81717787D01*
X148400282Y-81492254D01*
X148450000Y-81372224D01*
X148499718Y-81492254D01*
X148650414Y-81717787D01*
X148842213Y-81909586D01*
X149067746Y-82060282D01*
X149318344Y-82164083D01*
X149584377Y-82217000D01*
X149855623Y-82217000D01*
X150121656Y-82164083D01*
X150372254Y-82060282D01*
X150597787Y-81909586D01*
X150789586Y-81717787D01*
X150940282Y-81492254D01*
X150990000Y-81372224D01*
X151039718Y-81492254D01*
X151190414Y-81717787D01*
X151382213Y-81909586D01*
X151607746Y-82060282D01*
X151858344Y-82164083D01*
X152124377Y-82217000D01*
X152395623Y-82217000D01*
X152661656Y-82164083D01*
X152912254Y-82060282D01*
X153137787Y-81909586D01*
X153329586Y-81717787D01*
X153480282Y-81492254D01*
X153530000Y-81372224D01*
X153579718Y-81492254D01*
X153730414Y-81717787D01*
X153922213Y-81909586D01*
X154147746Y-82060282D01*
X154398344Y-82164083D01*
X154664377Y-82217000D01*
X154935623Y-82217000D01*
X155201656Y-82164083D01*
X155452254Y-82060282D01*
X155677787Y-81909586D01*
X155869586Y-81717787D01*
X156020282Y-81492254D01*
X156070000Y-81372224D01*
X156119718Y-81492254D01*
X156270414Y-81717787D01*
X156462213Y-81909586D01*
X156687746Y-82060282D01*
X156938344Y-82164083D01*
X157204377Y-82217000D01*
X157475623Y-82217000D01*
X157741656Y-82164083D01*
X157992254Y-82060282D01*
X158217787Y-81909586D01*
X158409586Y-81717787D01*
X158560282Y-81492254D01*
X158610000Y-81372224D01*
X158659718Y-81492254D01*
X158810414Y-81717787D01*
X159002213Y-81909586D01*
X159227746Y-82060282D01*
X159478344Y-82164083D01*
X159744377Y-82217000D01*
X160015623Y-82217000D01*
X160281656Y-82164083D01*
X160532254Y-82060282D01*
X160757787Y-81909586D01*
X160949586Y-81717787D01*
X161100282Y-81492254D01*
X161150000Y-81372224D01*
X161199718Y-81492254D01*
X161350414Y-81717787D01*
X161542213Y-81909586D01*
X161767746Y-82060282D01*
X162018344Y-82164083D01*
X162284377Y-82217000D01*
X162555623Y-82217000D01*
X162821656Y-82164083D01*
X163072254Y-82060282D01*
X163297787Y-81909586D01*
X163489586Y-81717787D01*
X163640282Y-81492254D01*
X163690000Y-81372224D01*
X163739718Y-81492254D01*
X163890414Y-81717787D01*
X164082213Y-81909586D01*
X164307746Y-82060282D01*
X164558344Y-82164083D01*
X164824377Y-82217000D01*
X165095623Y-82217000D01*
X165361656Y-82164083D01*
X165612254Y-82060282D01*
X165837787Y-81909586D01*
X166029586Y-81717787D01*
X166180282Y-81492254D01*
X166230000Y-81372224D01*
X166279718Y-81492254D01*
X166430414Y-81717787D01*
X166622213Y-81909586D01*
X166847746Y-82060282D01*
X167098344Y-82164083D01*
X167364377Y-82217000D01*
X167635623Y-82217000D01*
X167901656Y-82164083D01*
X168152254Y-82060282D01*
X168377787Y-81909586D01*
X168569586Y-81717787D01*
X168720282Y-81492254D01*
X168770000Y-81372224D01*
X168819718Y-81492254D01*
X168970414Y-81717787D01*
X169162213Y-81909586D01*
X169387746Y-82060282D01*
X169638344Y-82164083D01*
X169904377Y-82217000D01*
X170175623Y-82217000D01*
X170441656Y-82164083D01*
X170692254Y-82060282D01*
X170917787Y-81909586D01*
X171109586Y-81717787D01*
X171260282Y-81492254D01*
X171310000Y-81372224D01*
X171359718Y-81492254D01*
X171510414Y-81717787D01*
X171702213Y-81909586D01*
X171927746Y-82060282D01*
X172178344Y-82164083D01*
X172444377Y-82217000D01*
X172715623Y-82217000D01*
X172981656Y-82164083D01*
X173232254Y-82060282D01*
X173457787Y-81909586D01*
X173649586Y-81717787D01*
X173800282Y-81492254D01*
X173850000Y-81372224D01*
X173899718Y-81492254D01*
X174050414Y-81717787D01*
X174242213Y-81909586D01*
X174467746Y-82060282D01*
X174718344Y-82164083D01*
X174984377Y-82217000D01*
X175255623Y-82217000D01*
X175521656Y-82164083D01*
X175772254Y-82060282D01*
X175997787Y-81909586D01*
X176189586Y-81717787D01*
X176333975Y-81501692D01*
X176464822Y-81721355D01*
X176659731Y-81937588D01*
X176893080Y-82111641D01*
X177155901Y-82236825D01*
X177303110Y-82281476D01*
X177533000Y-82160155D01*
X177533000Y-80967000D01*
X177513000Y-80967000D01*
X177513000Y-80713000D01*
X177533000Y-80713000D01*
X177533000Y-80693000D01*
X177787000Y-80693000D01*
X177787000Y-80713000D01*
X177807000Y-80713000D01*
X177807000Y-80967000D01*
X177787000Y-80967000D01*
X177787000Y-82160155D01*
X178016890Y-82281476D01*
X178164099Y-82236825D01*
X178426920Y-82111641D01*
X178660269Y-81937588D01*
X178855178Y-81721355D01*
X178986025Y-81501692D01*
X179130414Y-81717787D01*
X179322213Y-81909586D01*
X179547746Y-82060282D01*
X179798344Y-82164083D01*
X180064377Y-82217000D01*
X180335623Y-82217000D01*
X180601656Y-82164083D01*
X180852254Y-82060282D01*
X181077787Y-81909586D01*
X181269586Y-81717787D01*
X181420282Y-81492254D01*
X181470000Y-81372224D01*
X181519718Y-81492254D01*
X181670414Y-81717787D01*
X181862213Y-81909586D01*
X182087746Y-82060282D01*
X182338344Y-82164083D01*
X182604377Y-82217000D01*
X182875623Y-82217000D01*
X183141656Y-82164083D01*
X183392254Y-82060282D01*
X183617787Y-81909586D01*
X183809586Y-81717787D01*
X183960282Y-81492254D01*
X184010000Y-81372224D01*
X184059718Y-81492254D01*
X184210414Y-81717787D01*
X184402213Y-81909586D01*
X184627746Y-82060282D01*
X184878344Y-82164083D01*
X185144377Y-82217000D01*
X185415623Y-82217000D01*
X185681656Y-82164083D01*
X185932254Y-82060282D01*
X186157787Y-81909586D01*
X186349586Y-81717787D01*
X186500282Y-81492254D01*
X186550000Y-81372224D01*
X186599718Y-81492254D01*
X186750414Y-81717787D01*
X186942213Y-81909586D01*
X187167746Y-82060282D01*
X187418344Y-82164083D01*
X187684377Y-82217000D01*
X187955623Y-82217000D01*
X188221656Y-82164083D01*
X188472254Y-82060282D01*
X188697787Y-81909586D01*
X188889586Y-81717787D01*
X189040282Y-81492254D01*
X189090000Y-81372224D01*
X189139718Y-81492254D01*
X189290414Y-81717787D01*
X189482213Y-81909586D01*
X189707746Y-82060282D01*
X189958344Y-82164083D01*
X190224377Y-82217000D01*
X190495623Y-82217000D01*
X190761656Y-82164083D01*
X191012254Y-82060282D01*
X191237787Y-81909586D01*
X191429586Y-81717787D01*
X191580282Y-81492254D01*
X191684083Y-81241656D01*
X191737000Y-80975623D01*
X191737000Y-80704377D01*
X191684083Y-80438344D01*
X191580282Y-80187746D01*
X191429586Y-79962213D01*
X191237787Y-79770414D01*
X191012254Y-79619718D01*
X190892224Y-79570000D01*
X191012254Y-79520282D01*
X191237787Y-79369586D01*
X191429586Y-79177787D01*
X191580282Y-78952254D01*
X191684083Y-78701656D01*
X191737000Y-78435623D01*
X191737000Y-78164377D01*
X191684083Y-77898344D01*
X191580282Y-77647746D01*
X191429586Y-77422213D01*
X191237787Y-77230414D01*
X191012254Y-77079718D01*
X190761656Y-76975917D01*
X190495623Y-76923000D01*
X190224377Y-76923000D01*
X189958344Y-76975917D01*
X189707746Y-77079718D01*
X189482213Y-77230414D01*
X189290414Y-77422213D01*
X189139718Y-77647746D01*
X189090000Y-77767776D01*
X189040282Y-77647746D01*
X188889586Y-77422213D01*
X188697787Y-77230414D01*
X188472254Y-77079718D01*
X188221656Y-76975917D01*
X187955623Y-76923000D01*
X187684377Y-76923000D01*
X187418344Y-76975917D01*
X187167746Y-77079718D01*
X186942213Y-77230414D01*
X186750414Y-77422213D01*
X186599718Y-77647746D01*
X186550000Y-77767776D01*
X186500282Y-77647746D01*
X186349586Y-77422213D01*
X186157787Y-77230414D01*
X185932254Y-77079718D01*
X185681656Y-76975917D01*
X185415623Y-76923000D01*
X185144377Y-76923000D01*
X184878344Y-76975917D01*
X184627746Y-77079718D01*
X184402213Y-77230414D01*
X184210414Y-77422213D01*
X184059718Y-77647746D01*
X184010000Y-77767776D01*
X183960282Y-77647746D01*
X183809586Y-77422213D01*
X183617787Y-77230414D01*
X183392254Y-77079718D01*
X183141656Y-76975917D01*
X182875623Y-76923000D01*
X182604377Y-76923000D01*
X182338344Y-76975917D01*
X182087746Y-77079718D01*
X181862213Y-77230414D01*
X181670414Y-77422213D01*
X181519718Y-77647746D01*
X181470000Y-77767776D01*
X181420282Y-77647746D01*
X181269586Y-77422213D01*
X181077787Y-77230414D01*
X180852254Y-77079718D01*
X180601656Y-76975917D01*
X180335623Y-76923000D01*
X180064377Y-76923000D01*
X179798344Y-76975917D01*
X179547746Y-77079718D01*
X179322213Y-77230414D01*
X179130414Y-77422213D01*
X178979718Y-77647746D01*
X178930000Y-77767776D01*
X178880282Y-77647746D01*
X178729586Y-77422213D01*
X178537787Y-77230414D01*
X178312254Y-77079718D01*
X178061656Y-76975917D01*
X177795623Y-76923000D01*
X177524377Y-76923000D01*
X177258344Y-76975917D01*
X177007746Y-77079718D01*
X176782213Y-77230414D01*
X176590414Y-77422213D01*
X176439718Y-77647746D01*
X176390000Y-77767776D01*
X176340282Y-77647746D01*
X176189586Y-77422213D01*
X175997787Y-77230414D01*
X175772254Y-77079718D01*
X175521656Y-76975917D01*
X175255623Y-76923000D01*
X174984377Y-76923000D01*
X174718344Y-76975917D01*
X174467746Y-77079718D01*
X174242213Y-77230414D01*
X174050414Y-77422213D01*
X173899718Y-77647746D01*
X173850000Y-77767776D01*
X173800282Y-77647746D01*
X173649586Y-77422213D01*
X173457787Y-77230414D01*
X173232254Y-77079718D01*
X172981656Y-76975917D01*
X172715623Y-76923000D01*
X172444377Y-76923000D01*
X172178344Y-76975917D01*
X171927746Y-77079718D01*
X171702213Y-77230414D01*
X171510414Y-77422213D01*
X171359718Y-77647746D01*
X171310000Y-77767776D01*
X171260282Y-77647746D01*
X171109586Y-77422213D01*
X170917787Y-77230414D01*
X170692254Y-77079718D01*
X170441656Y-76975917D01*
X170175623Y-76923000D01*
X169904377Y-76923000D01*
X169638344Y-76975917D01*
X169387746Y-77079718D01*
X169162213Y-77230414D01*
X168970414Y-77422213D01*
X168819718Y-77647746D01*
X168770000Y-77767776D01*
X168720282Y-77647746D01*
X168569586Y-77422213D01*
X168377787Y-77230414D01*
X168152254Y-77079718D01*
X167901656Y-76975917D01*
X167635623Y-76923000D01*
X167364377Y-76923000D01*
X167098344Y-76975917D01*
X166847746Y-77079718D01*
X166622213Y-77230414D01*
X166430414Y-77422213D01*
X166279718Y-77647746D01*
X166230000Y-77767776D01*
X166180282Y-77647746D01*
X166029586Y-77422213D01*
X165837787Y-77230414D01*
X165612254Y-77079718D01*
X165361656Y-76975917D01*
X165095623Y-76923000D01*
X164824377Y-76923000D01*
X164558344Y-76975917D01*
X164307746Y-77079718D01*
X164082213Y-77230414D01*
X163890414Y-77422213D01*
X163739718Y-77647746D01*
X163690000Y-77767776D01*
X163640282Y-77647746D01*
X163489586Y-77422213D01*
X163297787Y-77230414D01*
X163072254Y-77079718D01*
X162821656Y-76975917D01*
X162555623Y-76923000D01*
X162284377Y-76923000D01*
X162018344Y-76975917D01*
X161767746Y-77079718D01*
X161542213Y-77230414D01*
X161350414Y-77422213D01*
X161199718Y-77647746D01*
X161150000Y-77767776D01*
X161100282Y-77647746D01*
X160949586Y-77422213D01*
X160757787Y-77230414D01*
X160532254Y-77079718D01*
X160281656Y-76975917D01*
X160015623Y-76923000D01*
X159744377Y-76923000D01*
X159478344Y-76975917D01*
X159227746Y-77079718D01*
X159002213Y-77230414D01*
X158810414Y-77422213D01*
X158659718Y-77647746D01*
X158610000Y-77767776D01*
X158560282Y-77647746D01*
X158409586Y-77422213D01*
X158217787Y-77230414D01*
X157992254Y-77079718D01*
X157741656Y-76975917D01*
X157475623Y-76923000D01*
X157204377Y-76923000D01*
X156938344Y-76975917D01*
X156687746Y-77079718D01*
X156462213Y-77230414D01*
X156270414Y-77422213D01*
X156119718Y-77647746D01*
X156070000Y-77767776D01*
X156020282Y-77647746D01*
X155869586Y-77422213D01*
X155677787Y-77230414D01*
X155452254Y-77079718D01*
X155201656Y-76975917D01*
X154935623Y-76923000D01*
X154664377Y-76923000D01*
X154398344Y-76975917D01*
X154147746Y-77079718D01*
X153922213Y-77230414D01*
X153730414Y-77422213D01*
X153579718Y-77647746D01*
X153530000Y-77767776D01*
X153480282Y-77647746D01*
X153329586Y-77422213D01*
X153137787Y-77230414D01*
X152912254Y-77079718D01*
X152661656Y-76975917D01*
X152395623Y-76923000D01*
X152124377Y-76923000D01*
X151858344Y-76975917D01*
X151607746Y-77079718D01*
X151382213Y-77230414D01*
X151190414Y-77422213D01*
X151039718Y-77647746D01*
X150990000Y-77767776D01*
X150940282Y-77647746D01*
X150789586Y-77422213D01*
X150597787Y-77230414D01*
X150372254Y-77079718D01*
X150121656Y-76975917D01*
X149855623Y-76923000D01*
X149584377Y-76923000D01*
X149318344Y-76975917D01*
X149067746Y-77079718D01*
X148842213Y-77230414D01*
X148650414Y-77422213D01*
X148499718Y-77647746D01*
X148450000Y-77767776D01*
X148400282Y-77647746D01*
X148249586Y-77422213D01*
X148057787Y-77230414D01*
X147832254Y-77079718D01*
X147581656Y-76975917D01*
X147315623Y-76923000D01*
X147044377Y-76923000D01*
X146778344Y-76975917D01*
X146527746Y-77079718D01*
X146302213Y-77230414D01*
X146110414Y-77422213D01*
X145959718Y-77647746D01*
X145910000Y-77767776D01*
X145860282Y-77647746D01*
X145709586Y-77422213D01*
X145517787Y-77230414D01*
X145292254Y-77079718D01*
X145041656Y-76975917D01*
X144775623Y-76923000D01*
X144504377Y-76923000D01*
X144238344Y-76975917D01*
X143987746Y-77079718D01*
X143762213Y-77230414D01*
X143570414Y-77422213D01*
X143419718Y-77647746D01*
X143370000Y-77767776D01*
X143320282Y-77647746D01*
X143169586Y-77422213D01*
X142977787Y-77230414D01*
X142752254Y-77079718D01*
X142501656Y-76975917D01*
X142235623Y-76923000D01*
X141964377Y-76923000D01*
X141698344Y-76975917D01*
X141447746Y-77079718D01*
X141222213Y-77230414D01*
X141030414Y-77422213D01*
X140879718Y-77647746D01*
X140775917Y-77898344D01*
X140723000Y-78164377D01*
X140723000Y-78435623D01*
X140775917Y-78701656D01*
X140879718Y-78952254D01*
X141030414Y-79177787D01*
X141222213Y-79369586D01*
X141358202Y-79460451D01*
X141250000Y-79460451D01*
X141146690Y-79470626D01*
X141047350Y-79500761D01*
X140955798Y-79549696D01*
X140875552Y-79615552D01*
X140809696Y-79695798D01*
X140760761Y-79787350D01*
X140730626Y-79886690D01*
X140720451Y-79990000D01*
X95127000Y-79990000D01*
X95127000Y-65508699D01*
X101473000Y-65508699D01*
X101473000Y-65691301D01*
X101508624Y-65870396D01*
X101578504Y-66039099D01*
X101679952Y-66190928D01*
X101809072Y-66320048D01*
X101960901Y-66421496D01*
X102129604Y-66491376D01*
X102308699Y-66527000D01*
X102491301Y-66527000D01*
X102670396Y-66491376D01*
X102839099Y-66421496D01*
X102990928Y-66320048D01*
X103120048Y-66190928D01*
X103221496Y-66039099D01*
X103275510Y-65908699D01*
X162073000Y-65908699D01*
X162073000Y-66091301D01*
X162108624Y-66270396D01*
X162178504Y-66439099D01*
X162279952Y-66590928D01*
X162409072Y-66720048D01*
X162560901Y-66821496D01*
X162729604Y-66891376D01*
X162908699Y-66927000D01*
X163091301Y-66927000D01*
X163270396Y-66891376D01*
X163439099Y-66821496D01*
X163590928Y-66720048D01*
X163720048Y-66590928D01*
X163774991Y-66508699D01*
X210473000Y-66508699D01*
X210473000Y-66691301D01*
X210508624Y-66870396D01*
X210578504Y-67039099D01*
X210679952Y-67190928D01*
X210809072Y-67320048D01*
X210960901Y-67421496D01*
X211129604Y-67491376D01*
X211308699Y-67527000D01*
X211491301Y-67527000D01*
X211670396Y-67491376D01*
X211839099Y-67421496D01*
X211990928Y-67320048D01*
X212120048Y-67190928D01*
X212221496Y-67039099D01*
X212291376Y-66870396D01*
X212327000Y-66691301D01*
X212327000Y-66508699D01*
X212291376Y-66329604D01*
X212221496Y-66160901D01*
X212120048Y-66009072D01*
X211990928Y-65879952D01*
X211839099Y-65778504D01*
X211670396Y-65708624D01*
X211491301Y-65673000D01*
X211308699Y-65673000D01*
X211129604Y-65708624D01*
X210960901Y-65778504D01*
X210809072Y-65879952D01*
X210679952Y-66009072D01*
X210578504Y-66160901D01*
X210508624Y-66329604D01*
X210473000Y-66508699D01*
X163774991Y-66508699D01*
X163821496Y-66439099D01*
X163891376Y-66270396D01*
X163927000Y-66091301D01*
X163927000Y-65908699D01*
X163891376Y-65729604D01*
X163821496Y-65560901D01*
X163720048Y-65409072D01*
X163590928Y-65279952D01*
X163439099Y-65178504D01*
X163270396Y-65108624D01*
X163091301Y-65073000D01*
X162908699Y-65073000D01*
X162729604Y-65108624D01*
X162560901Y-65178504D01*
X162409072Y-65279952D01*
X162279952Y-65409072D01*
X162178504Y-65560901D01*
X162108624Y-65729604D01*
X162073000Y-65908699D01*
X103275510Y-65908699D01*
X103291376Y-65870396D01*
X103327000Y-65691301D01*
X103327000Y-65508699D01*
X103291376Y-65329604D01*
X103221496Y-65160901D01*
X103120048Y-65009072D01*
X102990928Y-64879952D01*
X102839099Y-64778504D01*
X102670396Y-64708624D01*
X102491301Y-64673000D01*
X102308699Y-64673000D01*
X102129604Y-64708624D01*
X101960901Y-64778504D01*
X101809072Y-64879952D01*
X101679952Y-65009072D01*
X101578504Y-65160901D01*
X101508624Y-65329604D01*
X101473000Y-65508699D01*
X95127000Y-65508699D01*
X95127000Y-63190509D01*
X197073000Y-63190509D01*
X197073000Y-63609491D01*
X197154739Y-64020423D01*
X197315077Y-64407512D01*
X197547851Y-64755884D01*
X197844116Y-65052149D01*
X198192488Y-65284923D01*
X198579577Y-65445261D01*
X198990509Y-65527000D01*
X199409491Y-65527000D01*
X199820423Y-65445261D01*
X200207512Y-65284923D01*
X200555884Y-65052149D01*
X200852149Y-64755884D01*
X201084923Y-64407512D01*
X201245261Y-64020423D01*
X201327000Y-63609491D01*
X201327000Y-63190509D01*
X201245261Y-62779577D01*
X201084923Y-62392488D01*
X200852149Y-62044116D01*
X200555884Y-61747851D01*
X200207512Y-61515077D01*
X199820423Y-61354739D01*
X199409491Y-61273000D01*
X198990509Y-61273000D01*
X198579577Y-61354739D01*
X198192488Y-61515077D01*
X197844116Y-61747851D01*
X197547851Y-62044116D01*
X197315077Y-62392488D01*
X197154739Y-62779577D01*
X197073000Y-63190509D01*
X95127000Y-63190509D01*
X95127000Y-62037976D01*
X95209072Y-62120048D01*
X95360901Y-62221496D01*
X95529604Y-62291376D01*
X95708699Y-62327000D01*
X95891301Y-62327000D01*
X96070396Y-62291376D01*
X96239099Y-62221496D01*
X96390928Y-62120048D01*
X96520048Y-61990928D01*
X96621496Y-61839099D01*
X96691376Y-61670396D01*
X96727000Y-61491301D01*
X96727000Y-61308699D01*
X96691376Y-61129604D01*
X96621496Y-60960901D01*
X96520048Y-60809072D01*
X96390928Y-60679952D01*
X96239099Y-60578504D01*
X96114759Y-60527000D01*
X154962024Y-60527000D01*
X154879952Y-60609072D01*
G37*
X154879952Y-60609072D02*
X154778504Y-60760901D01*
X154708624Y-60929604D01*
X154673000Y-61108699D01*
X154673000Y-61291301D01*
X154708624Y-61470396D01*
X154778504Y-61639099D01*
X154879952Y-61790928D01*
X155009072Y-61920048D01*
X155160901Y-62021496D01*
X155329604Y-62091376D01*
X155508699Y-62127000D01*
X155691301Y-62127000D01*
X155870396Y-62091376D01*
X156039099Y-62021496D01*
X156190928Y-61920048D01*
X156320048Y-61790928D01*
X156421496Y-61639099D01*
X156491376Y-61470396D01*
X156527000Y-61291301D01*
X156527000Y-61108699D01*
X156491376Y-60929604D01*
X156421496Y-60760901D01*
X156320048Y-60609072D01*
X156237976Y-60527000D01*
X210763947Y-60527000D01*
X210828757Y-60683464D01*
X210930205Y-60835293D01*
X211059325Y-60964413D01*
X211211154Y-61065861D01*
X211379857Y-61135741D01*
X211558952Y-61171365D01*
X211741554Y-61171365D01*
X211920649Y-61135741D01*
X212089352Y-61065861D01*
X212241181Y-60964413D01*
X212370301Y-60835293D01*
X212471749Y-60683464D01*
X212536559Y-60527000D01*
X224273000Y-60527000D01*
X224273000Y-87285241D01*
X224221496Y-87160901D01*
X224120048Y-87009072D01*
X223990928Y-86879952D01*
X223839099Y-86778504D01*
X223670396Y-86708624D01*
X223491301Y-86673000D01*
X223308699Y-86673000D01*
X223129604Y-86708624D01*
X222960901Y-86778504D01*
X222809072Y-86879952D01*
X222679952Y-87009072D01*
X222578504Y-87160901D01*
X222508624Y-87329604D01*
X222473000Y-87508699D01*
X222473000Y-87691301D01*
X222508624Y-87870396D01*
X222578504Y-88039099D01*
X222679952Y-88190928D01*
X222809072Y-88320048D01*
X222960901Y-88421496D01*
X223129604Y-88491376D01*
X223308699Y-88527000D01*
X223491301Y-88527000D01*
X223670396Y-88491376D01*
X223839099Y-88421496D01*
X223990928Y-88320048D01*
X224120048Y-88190928D01*
X224221496Y-88039099D01*
X224273000Y-87914759D01*
X224273000Y-141873000D01*
X126714759Y-141873000D01*
X126839099Y-141821496D01*
X126990928Y-141720048D01*
X127120048Y-141590928D01*
X127221496Y-141439099D01*
X127291376Y-141270396D01*
X127327000Y-141091301D01*
X127327000Y-140908699D01*
X127291376Y-140729604D01*
X127221496Y-140560901D01*
X127186617Y-140508699D01*
X182873000Y-140508699D01*
X182873000Y-140691301D01*
X182908624Y-140870396D01*
X182978504Y-141039099D01*
X183079952Y-141190928D01*
X183209072Y-141320048D01*
X183360901Y-141421496D01*
X183529604Y-141491376D01*
X183708699Y-141527000D01*
X183891301Y-141527000D01*
X184070396Y-141491376D01*
X184239099Y-141421496D01*
X184390928Y-141320048D01*
X184520048Y-141190928D01*
X184621496Y-141039099D01*
X184691376Y-140870396D01*
X184727000Y-140691301D01*
X184727000Y-140508699D01*
X184691376Y-140329604D01*
X184621496Y-140160901D01*
X184520048Y-140009072D01*
X184390928Y-139879952D01*
X184239099Y-139778504D01*
X184070396Y-139708624D01*
X183891301Y-139673000D01*
X183708699Y-139673000D01*
X183529604Y-139708624D01*
X183360901Y-139778504D01*
X183209072Y-139879952D01*
X183079952Y-140009072D01*
X182978504Y-140160901D01*
X182908624Y-140329604D01*
X182873000Y-140508699D01*
X127186617Y-140508699D01*
X127120048Y-140409072D01*
X126990928Y-140279952D01*
X126839099Y-140178504D01*
X126670396Y-140108624D01*
X126491301Y-140073000D01*
X126308699Y-140073000D01*
X126129604Y-140108624D01*
X125960901Y-140178504D01*
X125809072Y-140279952D01*
X125679952Y-140409072D01*
X125578504Y-140560901D01*
X125508624Y-140729604D01*
X125473000Y-140908699D01*
X125473000Y-141091301D01*
X125508624Y-141270396D01*
X125578504Y-141439099D01*
X125679952Y-141590928D01*
X125809072Y-141720048D01*
X125960901Y-141821496D01*
X126085241Y-141873000D01*
X95127000Y-141873000D01*
X95127000Y-139290509D01*
X197873000Y-139290509D01*
X197873000Y-139709491D01*
X197954739Y-140120423D01*
X198115077Y-140507512D01*
X198347851Y-140855884D01*
X198644116Y-141152149D01*
X198992488Y-141384923D01*
X199379577Y-141545261D01*
X199790509Y-141627000D01*
X200209491Y-141627000D01*
X200620423Y-141545261D01*
X201007512Y-141384923D01*
X201355884Y-141152149D01*
X201652149Y-140855884D01*
X201884923Y-140507512D01*
X202045261Y-140120423D01*
X202127000Y-139709491D01*
X202127000Y-139290509D01*
X202045261Y-138879577D01*
X201884923Y-138492488D01*
X201652149Y-138144116D01*
X201355884Y-137847851D01*
X201007512Y-137615077D01*
X200620423Y-137454739D01*
X200209491Y-137373000D01*
X199790509Y-137373000D01*
X199379577Y-137454739D01*
X198992488Y-137615077D01*
X198644116Y-137847851D01*
X198347851Y-138144116D01*
X198115077Y-138492488D01*
X197954739Y-138879577D01*
X197873000Y-139290509D01*
X95127000Y-139290509D01*
X95127000Y-136508699D01*
X116073000Y-136508699D01*
X116073000Y-136691301D01*
X116108624Y-136870396D01*
X116178504Y-137039099D01*
X116279952Y-137190928D01*
X116409072Y-137320048D01*
X116560901Y-137421496D01*
X116729604Y-137491376D01*
X116908699Y-137527000D01*
X117091301Y-137527000D01*
X117270396Y-137491376D01*
X117439099Y-137421496D01*
X117590928Y-137320048D01*
X117720048Y-137190928D01*
X117821496Y-137039099D01*
X117891376Y-136870396D01*
X117927000Y-136691301D01*
X117927000Y-136508699D01*
X117891376Y-136329604D01*
X117821496Y-136160901D01*
X117786617Y-136108699D01*
X173073000Y-136108699D01*
X173073000Y-136291301D01*
X173108624Y-136470396D01*
X173178504Y-136639099D01*
X173279952Y-136790928D01*
X173409072Y-136920048D01*
X173560901Y-137021496D01*
X173729604Y-137091376D01*
X173908699Y-137127000D01*
X174091301Y-137127000D01*
X174270396Y-137091376D01*
X174439099Y-137021496D01*
X174590928Y-136920048D01*
X174720048Y-136790928D01*
X174821496Y-136639099D01*
X174891376Y-136470396D01*
X174927000Y-136291301D01*
X174927000Y-136108699D01*
X174891376Y-135929604D01*
X174821496Y-135760901D01*
X174720048Y-135609072D01*
X174590928Y-135479952D01*
X174439099Y-135378504D01*
X174270396Y-135308624D01*
X174091301Y-135273000D01*
X173908699Y-135273000D01*
X173729604Y-135308624D01*
X173560901Y-135378504D01*
X173409072Y-135479952D01*
X173279952Y-135609072D01*
X173178504Y-135760901D01*
X173108624Y-135929604D01*
X173073000Y-136108699D01*
X117786617Y-136108699D01*
X117720048Y-136009072D01*
X117590928Y-135879952D01*
X117439099Y-135778504D01*
X117270396Y-135708624D01*
X117091301Y-135673000D01*
X116908699Y-135673000D01*
X116729604Y-135708624D01*
X116560901Y-135778504D01*
X116409072Y-135879952D01*
X116279952Y-136009072D01*
X116178504Y-136160901D01*
X116108624Y-136329604D01*
X116073000Y-136508699D01*
X95127000Y-136508699D01*
X95127000Y-135835033D01*
X95144116Y-135852149D01*
X95492488Y-136084923D01*
X95879577Y-136245261D01*
X96290509Y-136327000D01*
X96709491Y-136327000D01*
X97120423Y-136245261D01*
X97507512Y-136084923D01*
X97855884Y-135852149D01*
X98152149Y-135555884D01*
X98384923Y-135207512D01*
X98545261Y-134820423D01*
X98627000Y-134409491D01*
X98627000Y-133990509D01*
X98545261Y-133579577D01*
X98384923Y-133192488D01*
X98152149Y-132844116D01*
X97855884Y-132547851D01*
X97507512Y-132315077D01*
X97120423Y-132154739D01*
X96709491Y-132073000D01*
X96290509Y-132073000D01*
X95879577Y-132154739D01*
X95492488Y-132315077D01*
X95144116Y-132547851D01*
X95127000Y-132564967D01*
X95127000Y-131246759D01*
X103088834Y-123284925D01*
X103116571Y-123262162D01*
X103190577Y-123171985D01*
X103207420Y-123151462D01*
X103274928Y-123025165D01*
X103316498Y-122888126D01*
X103330535Y-122745609D01*
X103327017Y-122709891D01*
X103327017Y-121344849D01*
X140723208Y-121344849D01*
X140723208Y-121616095D01*
X140776125Y-121882128D01*
X140879926Y-122132726D01*
X141030622Y-122358259D01*
X141222421Y-122550058D01*
X141447954Y-122700754D01*
X141567984Y-122750472D01*
X141447954Y-122800190D01*
X141222421Y-122950886D01*
X141030622Y-123142685D01*
X140879926Y-123368218D01*
X140776125Y-123618816D01*
X140723208Y-123884849D01*
X140723208Y-124156095D01*
X140776125Y-124422128D01*
X140879926Y-124672726D01*
X141030622Y-124898259D01*
X141222421Y-125090058D01*
X141447954Y-125240754D01*
X141698552Y-125344555D01*
X141964585Y-125397472D01*
X142235831Y-125397472D01*
X142501864Y-125344555D01*
X142752462Y-125240754D01*
X142977995Y-125090058D01*
X143169794Y-124898259D01*
X143320490Y-124672726D01*
X143370208Y-124552696D01*
X143419926Y-124672726D01*
X143570622Y-124898259D01*
X143762421Y-125090058D01*
X143987954Y-125240754D01*
X144238552Y-125344555D01*
X144504585Y-125397472D01*
X144775831Y-125397472D01*
X145041864Y-125344555D01*
X145292462Y-125240754D01*
X145517995Y-125090058D01*
X145709794Y-124898259D01*
X145860490Y-124672726D01*
X145910208Y-124552696D01*
X145959926Y-124672726D01*
X146110622Y-124898259D01*
X146302421Y-125090058D01*
X146527954Y-125240754D01*
X146778552Y-125344555D01*
X147044585Y-125397472D01*
X147315831Y-125397472D01*
X147581864Y-125344555D01*
X147832462Y-125240754D01*
X148057995Y-125090058D01*
X148249794Y-124898259D01*
X148400490Y-124672726D01*
X148450208Y-124552696D01*
X148499926Y-124672726D01*
X148650622Y-124898259D01*
X148842421Y-125090058D01*
X149067954Y-125240754D01*
X149318552Y-125344555D01*
X149584585Y-125397472D01*
X149855831Y-125397472D01*
X150121864Y-125344555D01*
X150372462Y-125240754D01*
X150597995Y-125090058D01*
X150789794Y-124898259D01*
X150940490Y-124672726D01*
X150990208Y-124552696D01*
X151039926Y-124672726D01*
X151190622Y-124898259D01*
X151382421Y-125090058D01*
X151607954Y-125240754D01*
X151858552Y-125344555D01*
X152124585Y-125397472D01*
X152395831Y-125397472D01*
X152661864Y-125344555D01*
X152912462Y-125240754D01*
X153137995Y-125090058D01*
X153329794Y-124898259D01*
X153480490Y-124672726D01*
X153530208Y-124552696D01*
X153579926Y-124672726D01*
X153730622Y-124898259D01*
X153922421Y-125090058D01*
X154147954Y-125240754D01*
X154398552Y-125344555D01*
X154664585Y-125397472D01*
X154935831Y-125397472D01*
X155201864Y-125344555D01*
X155452462Y-125240754D01*
X155677995Y-125090058D01*
X155869794Y-124898259D01*
X156020490Y-124672726D01*
X156070208Y-124552696D01*
X156119926Y-124672726D01*
X156270622Y-124898259D01*
X156462421Y-125090058D01*
X156687954Y-125240754D01*
X156938552Y-125344555D01*
X157204585Y-125397472D01*
X157475831Y-125397472D01*
X157741864Y-125344555D01*
X157992462Y-125240754D01*
X158217995Y-125090058D01*
X158409794Y-124898259D01*
X158560490Y-124672726D01*
X158610208Y-124552696D01*
X158659926Y-124672726D01*
X158810622Y-124898259D01*
X159002421Y-125090058D01*
X159227954Y-125240754D01*
X159478552Y-125344555D01*
X159744585Y-125397472D01*
X160015831Y-125397472D01*
X160281864Y-125344555D01*
X160532462Y-125240754D01*
X160757995Y-125090058D01*
X160949794Y-124898259D01*
X161100490Y-124672726D01*
X161150208Y-124552696D01*
X161199926Y-124672726D01*
X161350622Y-124898259D01*
X161542421Y-125090058D01*
X161767954Y-125240754D01*
X162018552Y-125344555D01*
X162284585Y-125397472D01*
X162555831Y-125397472D01*
X162821864Y-125344555D01*
X163072462Y-125240754D01*
X163297995Y-125090058D01*
X163489794Y-124898259D01*
X163640490Y-124672726D01*
X163690208Y-124552696D01*
X163739926Y-124672726D01*
X163890622Y-124898259D01*
X164082421Y-125090058D01*
X164307954Y-125240754D01*
X164558552Y-125344555D01*
X164824585Y-125397472D01*
X165095831Y-125397472D01*
X165361864Y-125344555D01*
X165612462Y-125240754D01*
X165837995Y-125090058D01*
X166029794Y-124898259D01*
X166180490Y-124672726D01*
X166230208Y-124552696D01*
X166279926Y-124672726D01*
X166430622Y-124898259D01*
X166622421Y-125090058D01*
X166847954Y-125240754D01*
X167098552Y-125344555D01*
X167364585Y-125397472D01*
X167635831Y-125397472D01*
X167901864Y-125344555D01*
X168152462Y-125240754D01*
X168377995Y-125090058D01*
X168569794Y-124898259D01*
X168720490Y-124672726D01*
X168770208Y-124552696D01*
X168819926Y-124672726D01*
X168970622Y-124898259D01*
X169162421Y-125090058D01*
X169387954Y-125240754D01*
X169638552Y-125344555D01*
X169904585Y-125397472D01*
X170175831Y-125397472D01*
X170441864Y-125344555D01*
X170692462Y-125240754D01*
X170917995Y-125090058D01*
X171109794Y-124898259D01*
X171260490Y-124672726D01*
X171310208Y-124552696D01*
X171359926Y-124672726D01*
X171510622Y-124898259D01*
X171702421Y-125090058D01*
X171927954Y-125240754D01*
X172178552Y-125344555D01*
X172444585Y-125397472D01*
X172715831Y-125397472D01*
X172981864Y-125344555D01*
X173232462Y-125240754D01*
X173457995Y-125090058D01*
X173649794Y-124898259D01*
X173800490Y-124672726D01*
X173850208Y-124552696D01*
X173899926Y-124672726D01*
X174050622Y-124898259D01*
X174242421Y-125090058D01*
X174467954Y-125240754D01*
X174718552Y-125344555D01*
X174984585Y-125397472D01*
X175255831Y-125397472D01*
X175521864Y-125344555D01*
X175772462Y-125240754D01*
X175997995Y-125090058D01*
X176189794Y-124898259D01*
X176340490Y-124672726D01*
X176390208Y-124552696D01*
X176439926Y-124672726D01*
X176590622Y-124898259D01*
X176782421Y-125090058D01*
X177007954Y-125240754D01*
X177258552Y-125344555D01*
X177524585Y-125397472D01*
X177795831Y-125397472D01*
X178061864Y-125344555D01*
X178312462Y-125240754D01*
X178537995Y-125090058D01*
X178729794Y-124898259D01*
X178880490Y-124672726D01*
X178930208Y-124552696D01*
X178979926Y-124672726D01*
X179130622Y-124898259D01*
X179322421Y-125090058D01*
X179547954Y-125240754D01*
X179798552Y-125344555D01*
X180064585Y-125397472D01*
X180335831Y-125397472D01*
X180601864Y-125344555D01*
X180852462Y-125240754D01*
X181077995Y-125090058D01*
X181269794Y-124898259D01*
X181420490Y-124672726D01*
X181470208Y-124552696D01*
X181519926Y-124672726D01*
X181670622Y-124898259D01*
X181862421Y-125090058D01*
X182087954Y-125240754D01*
X182338552Y-125344555D01*
X182604585Y-125397472D01*
X182875831Y-125397472D01*
X183141864Y-125344555D01*
X183392462Y-125240754D01*
X183617995Y-125090058D01*
X183809794Y-124898259D01*
X183960490Y-124672726D01*
X184010208Y-124552696D01*
X184059926Y-124672726D01*
X184210622Y-124898259D01*
X184402421Y-125090058D01*
X184627954Y-125240754D01*
X184878552Y-125344555D01*
X185144585Y-125397472D01*
X185415831Y-125397472D01*
X185681864Y-125344555D01*
X185932462Y-125240754D01*
X186157995Y-125090058D01*
X186349794Y-124898259D01*
X186500490Y-124672726D01*
X186550208Y-124552696D01*
X186599926Y-124672726D01*
X186750622Y-124898259D01*
X186942421Y-125090058D01*
X187167954Y-125240754D01*
X187418552Y-125344555D01*
X187684585Y-125397472D01*
X187955831Y-125397472D01*
X188221864Y-125344555D01*
X188472462Y-125240754D01*
X188697995Y-125090058D01*
X188889794Y-124898259D01*
X189040490Y-124672726D01*
X189090208Y-124552696D01*
X189139926Y-124672726D01*
X189290622Y-124898259D01*
X189482421Y-125090058D01*
X189707954Y-125240754D01*
X189958552Y-125344555D01*
X190224585Y-125397472D01*
X190495831Y-125397472D01*
X190761864Y-125344555D01*
X191012462Y-125240754D01*
X191237995Y-125090058D01*
X191429794Y-124898259D01*
X191580490Y-124672726D01*
X191648432Y-124508699D01*
X212673000Y-124508699D01*
X212673000Y-124691301D01*
X212708624Y-124870396D01*
X212778504Y-125039099D01*
X212879952Y-125190928D01*
X213009072Y-125320048D01*
X213160901Y-125421496D01*
X213329604Y-125491376D01*
X213508699Y-125527000D01*
X213691301Y-125527000D01*
X213870396Y-125491376D01*
X214039099Y-125421496D01*
X214190928Y-125320048D01*
X214320048Y-125190928D01*
X214421496Y-125039099D01*
X214491376Y-124870396D01*
X214527000Y-124691301D01*
X214527000Y-124508699D01*
X214491376Y-124329604D01*
X214421496Y-124160901D01*
X214320048Y-124009072D01*
X214190928Y-123879952D01*
X214039099Y-123778504D01*
X213870396Y-123708624D01*
X213691301Y-123673000D01*
X213508699Y-123673000D01*
X213329604Y-123708624D01*
X213160901Y-123778504D01*
X213009072Y-123879952D01*
X212879952Y-124009072D01*
X212778504Y-124160901D01*
X212708624Y-124329604D01*
X212673000Y-124508699D01*
X191648432Y-124508699D01*
X191684291Y-124422128D01*
X191737208Y-124156095D01*
X191737208Y-123884849D01*
X191684291Y-123618816D01*
X191580490Y-123368218D01*
X191429794Y-123142685D01*
X191237995Y-122950886D01*
X191102006Y-122860021D01*
X191210208Y-122860021D01*
X191313518Y-122849846D01*
X191412858Y-122819711D01*
X191504410Y-122770776D01*
X191584656Y-122704920D01*
X191650512Y-122624674D01*
X191699447Y-122533122D01*
X191729582Y-122433782D01*
X191739757Y-122330472D01*
X191739757Y-120630472D01*
X191729582Y-120527162D01*
X191699447Y-120427822D01*
X191650512Y-120336270D01*
X191584656Y-120256024D01*
X191504410Y-120190168D01*
X191412858Y-120141233D01*
X191313518Y-120111098D01*
X191210208Y-120100923D01*
X189510208Y-120100923D01*
X189406898Y-120111098D01*
X189307558Y-120141233D01*
X189216006Y-120190168D01*
X189135760Y-120256024D01*
X189069904Y-120336270D01*
X189020969Y-120427822D01*
X188990834Y-120527162D01*
X188980659Y-120630472D01*
X188980659Y-120738674D01*
X188889794Y-120602685D01*
X188697995Y-120410886D01*
X188472462Y-120260190D01*
X188221864Y-120156389D01*
X187955831Y-120103472D01*
X187684585Y-120103472D01*
X187418552Y-120156389D01*
X187167954Y-120260190D01*
X186942421Y-120410886D01*
X186750622Y-120602685D01*
X186599926Y-120828218D01*
X186550208Y-120948248D01*
X186500490Y-120828218D01*
X186349794Y-120602685D01*
X186157995Y-120410886D01*
X185932462Y-120260190D01*
X185681864Y-120156389D01*
X185415831Y-120103472D01*
X185144585Y-120103472D01*
X184878552Y-120156389D01*
X184627954Y-120260190D01*
X184402421Y-120410886D01*
X184210622Y-120602685D01*
X184059926Y-120828218D01*
X184010208Y-120948248D01*
X183960490Y-120828218D01*
X183809794Y-120602685D01*
X183617995Y-120410886D01*
X183392462Y-120260190D01*
X183141864Y-120156389D01*
X182875831Y-120103472D01*
X182604585Y-120103472D01*
X182338552Y-120156389D01*
X182087954Y-120260190D01*
X181862421Y-120410886D01*
X181670622Y-120602685D01*
X181519926Y-120828218D01*
X181470208Y-120948248D01*
X181420490Y-120828218D01*
X181269794Y-120602685D01*
X181077995Y-120410886D01*
X180852462Y-120260190D01*
X180601864Y-120156389D01*
X180335831Y-120103472D01*
X180064585Y-120103472D01*
X179798552Y-120156389D01*
X179547954Y-120260190D01*
X179322421Y-120410886D01*
X179130622Y-120602685D01*
X178979926Y-120828218D01*
X178930208Y-120948248D01*
X178880490Y-120828218D01*
X178729794Y-120602685D01*
X178537995Y-120410886D01*
X178312462Y-120260190D01*
X178061864Y-120156389D01*
X177795831Y-120103472D01*
X177524585Y-120103472D01*
X177258552Y-120156389D01*
X177007954Y-120260190D01*
X176782421Y-120410886D01*
X176590622Y-120602685D01*
X176439926Y-120828218D01*
X176390208Y-120948248D01*
X176340490Y-120828218D01*
X176189794Y-120602685D01*
X175997995Y-120410886D01*
X175772462Y-120260190D01*
X175521864Y-120156389D01*
X175255831Y-120103472D01*
X174984585Y-120103472D01*
X174718552Y-120156389D01*
X174467954Y-120260190D01*
X174242421Y-120410886D01*
X174050622Y-120602685D01*
X173899926Y-120828218D01*
X173850208Y-120948248D01*
X173800490Y-120828218D01*
X173649794Y-120602685D01*
X173457995Y-120410886D01*
X173232462Y-120260190D01*
X172981864Y-120156389D01*
X172715831Y-120103472D01*
X172444585Y-120103472D01*
X172178552Y-120156389D01*
X171927954Y-120260190D01*
X171702421Y-120410886D01*
X171510622Y-120602685D01*
X171359926Y-120828218D01*
X171310208Y-120948248D01*
X171260490Y-120828218D01*
X171109794Y-120602685D01*
X170917995Y-120410886D01*
X170692462Y-120260190D01*
X170441864Y-120156389D01*
X170175831Y-120103472D01*
X169904585Y-120103472D01*
X169638552Y-120156389D01*
X169387954Y-120260190D01*
X169162421Y-120410886D01*
X168970622Y-120602685D01*
X168819926Y-120828218D01*
X168770208Y-120948248D01*
X168720490Y-120828218D01*
X168569794Y-120602685D01*
X168377995Y-120410886D01*
X168152462Y-120260190D01*
X167901864Y-120156389D01*
X167635831Y-120103472D01*
X167364585Y-120103472D01*
X167098552Y-120156389D01*
X166847954Y-120260190D01*
X166622421Y-120410886D01*
X166430622Y-120602685D01*
X166279926Y-120828218D01*
X166230208Y-120948248D01*
X166180490Y-120828218D01*
X166029794Y-120602685D01*
X165837995Y-120410886D01*
X165612462Y-120260190D01*
X165361864Y-120156389D01*
X165095831Y-120103472D01*
X164824585Y-120103472D01*
X164558552Y-120156389D01*
X164307954Y-120260190D01*
X164082421Y-120410886D01*
X163890622Y-120602685D01*
X163739926Y-120828218D01*
X163690208Y-120948248D01*
X163640490Y-120828218D01*
X163489794Y-120602685D01*
X163297995Y-120410886D01*
X163072462Y-120260190D01*
X162821864Y-120156389D01*
X162555831Y-120103472D01*
X162284585Y-120103472D01*
X162018552Y-120156389D01*
X161767954Y-120260190D01*
X161542421Y-120410886D01*
X161350622Y-120602685D01*
X161199926Y-120828218D01*
X161150208Y-120948248D01*
X161100490Y-120828218D01*
X160949794Y-120602685D01*
X160757995Y-120410886D01*
X160532462Y-120260190D01*
X160281864Y-120156389D01*
X160015831Y-120103472D01*
X159744585Y-120103472D01*
X159478552Y-120156389D01*
X159227954Y-120260190D01*
X159002421Y-120410886D01*
X158810622Y-120602685D01*
X158659926Y-120828218D01*
X158610208Y-120948248D01*
X158560490Y-120828218D01*
X158409794Y-120602685D01*
X158217995Y-120410886D01*
X157992462Y-120260190D01*
X157741864Y-120156389D01*
X157475831Y-120103472D01*
X157204585Y-120103472D01*
X156938552Y-120156389D01*
X156687954Y-120260190D01*
X156462421Y-120410886D01*
X156270622Y-120602685D01*
X156126233Y-120818780D01*
X155995386Y-120599117D01*
X155800477Y-120382884D01*
X155567128Y-120208831D01*
X155304307Y-120083647D01*
X155157098Y-120038996D01*
X154927208Y-120160317D01*
X154927208Y-121353472D01*
X154947208Y-121353472D01*
X154947208Y-121607472D01*
X154927208Y-121607472D01*
X154927208Y-121627472D01*
X154673208Y-121627472D01*
X154673208Y-121607472D01*
X154653208Y-121607472D01*
X154653208Y-121353472D01*
X154673208Y-121353472D01*
X154673208Y-120160317D01*
X154443318Y-120038996D01*
X154296109Y-120083647D01*
X154033288Y-120208831D01*
X153799939Y-120382884D01*
X153605030Y-120599117D01*
X153474183Y-120818780D01*
X153329794Y-120602685D01*
X153137995Y-120410886D01*
X152912462Y-120260190D01*
X152661864Y-120156389D01*
X152395831Y-120103472D01*
X152124585Y-120103472D01*
X151858552Y-120156389D01*
X151607954Y-120260190D01*
X151382421Y-120410886D01*
X151190622Y-120602685D01*
X151039926Y-120828218D01*
X150990208Y-120948248D01*
X150940490Y-120828218D01*
X150789794Y-120602685D01*
X150597995Y-120410886D01*
X150372462Y-120260190D01*
X150121864Y-120156389D01*
X149855831Y-120103472D01*
X149584585Y-120103472D01*
X149318552Y-120156389D01*
X149067954Y-120260190D01*
X148842421Y-120410886D01*
X148650622Y-120602685D01*
X148499926Y-120828218D01*
X148450208Y-120948248D01*
X148400490Y-120828218D01*
X148249794Y-120602685D01*
X148057995Y-120410886D01*
X147832462Y-120260190D01*
X147581864Y-120156389D01*
X147315831Y-120103472D01*
X147044585Y-120103472D01*
X146778552Y-120156389D01*
X146527954Y-120260190D01*
X146302421Y-120410886D01*
X146110622Y-120602685D01*
X145959926Y-120828218D01*
X145910208Y-120948248D01*
X145860490Y-120828218D01*
X145709794Y-120602685D01*
X145517995Y-120410886D01*
X145292462Y-120260190D01*
X145041864Y-120156389D01*
X144775831Y-120103472D01*
X144504585Y-120103472D01*
X144238552Y-120156389D01*
X143987954Y-120260190D01*
X143762421Y-120410886D01*
X143570622Y-120602685D01*
X143419926Y-120828218D01*
X143370208Y-120948248D01*
X143320490Y-120828218D01*
X143169794Y-120602685D01*
X142977995Y-120410886D01*
X142752462Y-120260190D01*
X142501864Y-120156389D01*
X142235831Y-120103472D01*
X141964585Y-120103472D01*
X141698552Y-120156389D01*
X141447954Y-120260190D01*
X141222421Y-120410886D01*
X141030622Y-120602685D01*
X140879926Y-120828218D01*
X140776125Y-121078816D01*
X140723208Y-121344849D01*
X103327017Y-121344849D01*
X103327019Y-119954638D01*
X103330536Y-119918932D01*
X103327019Y-119883225D01*
X103316499Y-119776417D01*
X103274929Y-119639377D01*
X103207422Y-119513081D01*
X103207421Y-119513079D01*
X103156462Y-119450986D01*
X103116573Y-119402380D01*
X103088836Y-119379617D01*
X100417918Y-116708699D01*
X216873000Y-116708699D01*
X216873000Y-116891301D01*
X216908624Y-117070396D01*
X216978504Y-117239099D01*
X217079952Y-117390928D01*
X217209072Y-117520048D01*
X217360901Y-117621496D01*
X217529604Y-117691376D01*
X217708699Y-117727000D01*
X217891301Y-117727000D01*
X218070396Y-117691376D01*
X218239099Y-117621496D01*
X218390928Y-117520048D01*
X218520048Y-117390928D01*
X218621496Y-117239099D01*
X218691376Y-117070396D01*
X218727000Y-116891301D01*
X218727000Y-116708699D01*
X218691376Y-116529604D01*
X218621496Y-116360901D01*
X218520048Y-116209072D01*
X218390928Y-116079952D01*
X218239099Y-115978504D01*
X218070396Y-115908624D01*
X217891301Y-115873000D01*
X217708699Y-115873000D01*
X217529604Y-115908624D01*
X217360901Y-115978504D01*
X217209072Y-116079952D01*
X217079952Y-116209072D01*
X216978504Y-116360901D01*
X216908624Y-116529604D01*
X216873000Y-116708699D01*
X100417918Y-116708699D01*
X99304060Y-115594841D01*
X108904853Y-115594841D01*
X108904853Y-115777443D01*
X108940477Y-115956538D01*
X109010357Y-116125241D01*
X109111805Y-116277070D01*
X109240925Y-116406190D01*
X109392754Y-116507638D01*
X109561457Y-116577518D01*
X109740552Y-116613142D01*
X109923154Y-116613142D01*
X110102249Y-116577518D01*
X110270952Y-116507638D01*
X110422781Y-116406190D01*
X110551901Y-116277070D01*
X110653349Y-116125241D01*
X110723229Y-115956538D01*
X110758853Y-115777443D01*
X110758853Y-115594841D01*
X110723229Y-115415746D01*
X110653349Y-115247043D01*
X110551901Y-115095214D01*
X110422781Y-114966094D01*
X110270952Y-114864646D01*
X110102249Y-114794766D01*
X109923154Y-114759142D01*
X109740552Y-114759142D01*
X109561457Y-114794766D01*
X109392754Y-114864646D01*
X109240925Y-114966094D01*
X109111805Y-115095214D01*
X109010357Y-115247043D01*
X108940477Y-115415746D01*
X108904853Y-115594841D01*
X99304060Y-115594841D01*
X95127000Y-111417782D01*
X95127000Y-109037976D01*
X95209072Y-109120048D01*
X95360901Y-109221496D01*
X95529604Y-109291376D01*
X95708699Y-109327000D01*
X95891301Y-109327000D01*
X96070396Y-109291376D01*
X96239099Y-109221496D01*
X96390928Y-109120048D01*
X96520048Y-108990928D01*
X96621496Y-108839099D01*
X96691376Y-108670396D01*
X96727000Y-108491301D01*
X96727000Y-108308699D01*
X96691376Y-108129604D01*
X96621496Y-107960901D01*
X96520048Y-107809072D01*
X96390928Y-107679952D01*
X96239099Y-107578504D01*
X96070396Y-107508624D01*
X95891301Y-107473000D01*
X95708699Y-107473000D01*
X95529604Y-107508624D01*
X95360901Y-107578504D01*
X95209072Y-107679952D01*
X95127000Y-107762024D01*
X95127000Y-102208699D01*
X112373000Y-102208699D01*
X112373000Y-102391301D01*
X112408624Y-102570396D01*
X112478504Y-102739099D01*
X112579952Y-102890928D01*
X112709072Y-103020048D01*
X112860901Y-103121496D01*
X113029604Y-103191376D01*
X113208699Y-103227000D01*
X113391301Y-103227000D01*
X113570396Y-103191376D01*
X113739099Y-103121496D01*
X113890928Y-103020048D01*
X114020048Y-102890928D01*
X114121496Y-102739099D01*
X114191376Y-102570396D01*
X114227000Y-102391301D01*
X114227000Y-102233699D01*
X118948000Y-102233699D01*
X118948000Y-102416301D01*
X118983624Y-102595396D01*
X119053504Y-102764099D01*
X119154952Y-102915928D01*
X119284072Y-103045048D01*
X119435901Y-103146496D01*
X119604604Y-103216376D01*
X119783699Y-103252000D01*
X119966301Y-103252000D01*
X120145396Y-103216376D01*
X120314099Y-103146496D01*
X120465928Y-103045048D01*
X120595048Y-102915928D01*
X120696496Y-102764099D01*
X120766376Y-102595396D01*
X120802000Y-102416301D01*
X120802000Y-102233699D01*
X120766376Y-102054604D01*
X120696496Y-101885901D01*
X120595048Y-101734072D01*
X120465928Y-101604952D01*
X120314099Y-101503504D01*
X120145396Y-101433624D01*
X119966301Y-101398000D01*
X119783699Y-101398000D01*
X119604604Y-101433624D01*
X119435901Y-101503504D01*
X119284072Y-101604952D01*
X119154952Y-101734072D01*
X119053504Y-101885901D01*
X118983624Y-102054604D01*
X118948000Y-102233699D01*
X114227000Y-102233699D01*
X114227000Y-102208699D01*
X114191376Y-102029604D01*
X114121496Y-101860901D01*
X114020048Y-101709072D01*
X113890928Y-101579952D01*
X113739099Y-101478504D01*
X113570396Y-101408624D01*
X113391301Y-101373000D01*
X113208699Y-101373000D01*
X113029604Y-101408624D01*
X112860901Y-101478504D01*
X112709072Y-101579952D01*
X112579952Y-101709072D01*
X112478504Y-101860901D01*
X112408624Y-102029604D01*
X112373000Y-102208699D01*
X95127000Y-102208699D01*
X95127000Y-98859453D01*
X96573000Y-98859453D01*
X96573000Y-99140547D01*
X96627838Y-99416241D01*
X96735409Y-99675938D01*
X96891576Y-99909660D01*
X97090340Y-100108424D01*
X97324062Y-100264591D01*
X97583759Y-100372162D01*
X97859453Y-100427000D01*
X98140547Y-100427000D01*
X98416241Y-100372162D01*
X98675938Y-100264591D01*
X98909660Y-100108424D01*
X99108424Y-99909660D01*
X99264591Y-99675938D01*
X99372162Y-99416241D01*
X99427000Y-99140547D01*
X99427000Y-98859453D01*
X99372162Y-98583759D01*
X99264591Y-98324062D01*
X99108424Y-98090340D01*
X98909660Y-97891576D01*
X98675938Y-97735409D01*
X98416241Y-97627838D01*
X98140547Y-97573000D01*
X97859453Y-97573000D01*
X97583759Y-97627838D01*
X97324062Y-97735409D01*
X97090340Y-97891576D01*
X96891576Y-98090340D01*
X96735409Y-98324062D01*
X96627838Y-98583759D01*
X96573000Y-98859453D01*
X95127000Y-98859453D01*
X95127000Y-97880763D01*
X95359453Y-97927000D01*
X95640547Y-97927000D01*
X95916241Y-97872162D01*
X96175938Y-97764591D01*
X96409660Y-97608424D01*
X96608424Y-97409660D01*
X96764591Y-97175938D01*
X96872162Y-96916241D01*
X96927000Y-96640547D01*
X96927000Y-96359453D01*
X96872162Y-96083759D01*
X96764591Y-95824062D01*
X96608424Y-95590340D01*
X96409660Y-95391576D01*
X96175938Y-95235409D01*
X95916241Y-95127838D01*
X95640547Y-95073000D01*
X95359453Y-95073000D01*
X95127000Y-95119237D01*
X95127000Y-93859453D01*
X96573000Y-93859453D01*
X96573000Y-94140547D01*
X96627838Y-94416241D01*
X96735409Y-94675938D01*
X96891576Y-94909660D01*
X97090340Y-95108424D01*
X97324062Y-95264591D01*
X97583759Y-95372162D01*
X97859453Y-95427000D01*
X98140547Y-95427000D01*
X98416241Y-95372162D01*
X98675938Y-95264591D01*
X98909660Y-95108424D01*
X99108424Y-94909660D01*
X99264591Y-94675938D01*
X99372162Y-94416241D01*
X99395283Y-94300000D01*
X103670451Y-94300000D01*
X103670451Y-95900000D01*
X103680626Y-96003310D01*
X103710761Y-96102650D01*
X103759696Y-96194202D01*
X103825552Y-96274448D01*
X103905798Y-96340304D01*
X103997350Y-96389239D01*
X104096690Y-96419374D01*
X104200000Y-96429549D01*
X105800000Y-96429549D01*
X105903310Y-96419374D01*
X106002650Y-96389239D01*
X106094202Y-96340304D01*
X106174448Y-96274448D01*
X106240304Y-96194202D01*
X106289239Y-96102650D01*
X106319374Y-96003310D01*
X106329549Y-95900000D01*
X106329549Y-95736833D01*
X106469252Y-95945913D01*
X106654087Y-96130748D01*
X106871430Y-96275972D01*
X107112928Y-96376004D01*
X107369302Y-96427000D01*
X107630698Y-96427000D01*
X107887072Y-96376004D01*
X108128570Y-96275972D01*
X108345913Y-96130748D01*
X108530748Y-95945913D01*
X108675972Y-95728570D01*
X108776004Y-95487072D01*
X108827000Y-95230698D01*
X108827000Y-94969302D01*
X108776004Y-94712928D01*
X108675972Y-94471430D01*
X108561427Y-94300000D01*
X111670451Y-94300000D01*
X111670451Y-95900000D01*
X111680626Y-96003310D01*
X111710761Y-96102650D01*
X111759696Y-96194202D01*
X111825552Y-96274448D01*
X111905798Y-96340304D01*
X111997350Y-96389239D01*
X112096690Y-96419374D01*
X112200000Y-96429549D01*
X113800000Y-96429549D01*
X113903310Y-96419374D01*
X114002650Y-96389239D01*
X114094202Y-96340304D01*
X114174448Y-96274448D01*
X114240304Y-96194202D01*
X114289239Y-96102650D01*
X114319374Y-96003310D01*
X114329549Y-95900000D01*
X114329549Y-95736833D01*
X114469252Y-95945913D01*
X114654087Y-96130748D01*
X114871430Y-96275972D01*
X115112928Y-96376004D01*
X115369302Y-96427000D01*
X115630698Y-96427000D01*
X115887072Y-96376004D01*
X116128570Y-96275972D01*
X116345913Y-96130748D01*
X116530748Y-95945913D01*
X116675972Y-95728570D01*
X116776004Y-95487072D01*
X116827000Y-95230698D01*
X116827000Y-94969302D01*
X116776004Y-94712928D01*
X116675972Y-94471430D01*
X116561427Y-94300000D01*
X119670451Y-94300000D01*
X119670451Y-95900000D01*
X119680626Y-96003310D01*
X119710761Y-96102650D01*
X119759696Y-96194202D01*
X119825552Y-96274448D01*
X119905798Y-96340304D01*
X119997350Y-96389239D01*
X120096690Y-96419374D01*
X120200000Y-96429549D01*
X121800000Y-96429549D01*
X121903310Y-96419374D01*
X122002650Y-96389239D01*
X122094202Y-96340304D01*
X122174448Y-96274448D01*
X122240304Y-96194202D01*
X122289239Y-96102650D01*
X122319374Y-96003310D01*
X122329549Y-95900000D01*
X122329549Y-95736833D01*
X122469252Y-95945913D01*
X122654087Y-96130748D01*
X122871430Y-96275972D01*
X123112928Y-96376004D01*
X123369302Y-96427000D01*
X123630698Y-96427000D01*
X123887072Y-96376004D01*
X124128570Y-96275972D01*
X124345913Y-96130748D01*
X124530748Y-95945913D01*
X124675972Y-95728570D01*
X124776004Y-95487072D01*
X124827000Y-95230698D01*
X124827000Y-94969302D01*
X124776004Y-94712928D01*
X124675972Y-94471430D01*
X124561427Y-94300000D01*
X127670451Y-94300000D01*
X127670451Y-95900000D01*
X127680626Y-96003310D01*
X127710761Y-96102650D01*
X127759696Y-96194202D01*
X127825552Y-96274448D01*
X127905798Y-96340304D01*
X127997350Y-96389239D01*
X128096690Y-96419374D01*
X128200000Y-96429549D01*
X129800000Y-96429549D01*
X129903310Y-96419374D01*
X130002650Y-96389239D01*
X130094202Y-96340304D01*
X130174448Y-96274448D01*
X130240304Y-96194202D01*
X130289239Y-96102650D01*
X130319374Y-96003310D01*
X130329549Y-95900000D01*
X130329549Y-95736833D01*
X130469252Y-95945913D01*
X130654087Y-96130748D01*
X130871430Y-96275972D01*
X131112928Y-96376004D01*
X131369302Y-96427000D01*
X131630698Y-96427000D01*
X131887072Y-96376004D01*
X132128570Y-96275972D01*
X132345913Y-96130748D01*
X132530748Y-95945913D01*
X132675972Y-95728570D01*
X132776004Y-95487072D01*
X132827000Y-95230698D01*
X132827000Y-94969302D01*
X132814946Y-94908699D01*
X218273000Y-94908699D01*
X218273000Y-95091301D01*
X218308624Y-95270396D01*
X218378504Y-95439099D01*
X218479952Y-95590928D01*
X218609072Y-95720048D01*
X218760901Y-95821496D01*
X218929604Y-95891376D01*
X219108699Y-95927000D01*
X219291301Y-95927000D01*
X219470396Y-95891376D01*
X219639099Y-95821496D01*
X219790928Y-95720048D01*
X219920048Y-95590928D01*
X220021496Y-95439099D01*
X220091376Y-95270396D01*
X220127000Y-95091301D01*
X220127000Y-94908699D01*
X220091376Y-94729604D01*
X220021496Y-94560901D01*
X219920048Y-94409072D01*
X219790928Y-94279952D01*
X219639099Y-94178504D01*
X219470396Y-94108624D01*
X219291301Y-94073000D01*
X219108699Y-94073000D01*
X218929604Y-94108624D01*
X218760901Y-94178504D01*
X218609072Y-94279952D01*
X218479952Y-94409072D01*
X218378504Y-94560901D01*
X218308624Y-94729604D01*
X218273000Y-94908699D01*
X132814946Y-94908699D01*
X132776004Y-94712928D01*
X132675972Y-94471430D01*
X132530748Y-94254087D01*
X132345913Y-94069252D01*
X132128570Y-93924028D01*
X131887072Y-93823996D01*
X131630698Y-93773000D01*
X131369302Y-93773000D01*
X131112928Y-93823996D01*
X130871430Y-93924028D01*
X130654087Y-94069252D01*
X130469252Y-94254087D01*
X130329549Y-94463167D01*
X130329549Y-94300000D01*
X130319374Y-94196690D01*
X130289239Y-94097350D01*
X130240304Y-94005798D01*
X130174448Y-93925552D01*
X130094202Y-93859696D01*
X130002650Y-93810761D01*
X129903310Y-93780626D01*
X129800000Y-93770451D01*
X128200000Y-93770451D01*
X128096690Y-93780626D01*
X127997350Y-93810761D01*
X127905798Y-93859696D01*
X127825552Y-93925552D01*
X127759696Y-94005798D01*
X127710761Y-94097350D01*
X127680626Y-94196690D01*
X127670451Y-94300000D01*
X124561427Y-94300000D01*
X124530748Y-94254087D01*
X124345913Y-94069252D01*
X124128570Y-93924028D01*
X123887072Y-93823996D01*
X123630698Y-93773000D01*
X123369302Y-93773000D01*
X123112928Y-93823996D01*
X122871430Y-93924028D01*
X122654087Y-94069252D01*
X122469252Y-94254087D01*
X122329549Y-94463167D01*
X122329549Y-94300000D01*
X122319374Y-94196690D01*
X122289239Y-94097350D01*
X122240304Y-94005798D01*
X122174448Y-93925552D01*
X122094202Y-93859696D01*
X122002650Y-93810761D01*
X121903310Y-93780626D01*
X121800000Y-93770451D01*
X120200000Y-93770451D01*
X120096690Y-93780626D01*
X119997350Y-93810761D01*
X119905798Y-93859696D01*
X119825552Y-93925552D01*
X119759696Y-94005798D01*
X119710761Y-94097350D01*
X119680626Y-94196690D01*
X119670451Y-94300000D01*
X116561427Y-94300000D01*
X116530748Y-94254087D01*
X116345913Y-94069252D01*
X116128570Y-93924028D01*
X115887072Y-93823996D01*
X115630698Y-93773000D01*
X115369302Y-93773000D01*
X115112928Y-93823996D01*
X114871430Y-93924028D01*
X114654087Y-94069252D01*
X114469252Y-94254087D01*
X114329549Y-94463167D01*
X114329549Y-94300000D01*
X114319374Y-94196690D01*
X114289239Y-94097350D01*
X114240304Y-94005798D01*
X114174448Y-93925552D01*
X114094202Y-93859696D01*
X114002650Y-93810761D01*
X113903310Y-93780626D01*
X113800000Y-93770451D01*
X112200000Y-93770451D01*
X112096690Y-93780626D01*
X111997350Y-93810761D01*
X111905798Y-93859696D01*
X111825552Y-93925552D01*
X111759696Y-94005798D01*
X111710761Y-94097350D01*
X111680626Y-94196690D01*
X111670451Y-94300000D01*
X108561427Y-94300000D01*
X108530748Y-94254087D01*
X108345913Y-94069252D01*
X108128570Y-93924028D01*
X107887072Y-93823996D01*
X107630698Y-93773000D01*
X107369302Y-93773000D01*
X107112928Y-93823996D01*
X106871430Y-93924028D01*
X106654087Y-94069252D01*
X106469252Y-94254087D01*
X106329549Y-94463167D01*
X106329549Y-94300000D01*
X106319374Y-94196690D01*
X106289239Y-94097350D01*
X106240304Y-94005798D01*
X106174448Y-93925552D01*
X106094202Y-93859696D01*
X106002650Y-93810761D01*
X105903310Y-93780626D01*
X105800000Y-93770451D01*
X104200000Y-93770451D01*
X104096690Y-93780626D01*
X103997350Y-93810761D01*
X103905798Y-93859696D01*
X103825552Y-93925552D01*
X103759696Y-94005798D01*
X103710761Y-94097350D01*
X103680626Y-94196690D01*
X103670451Y-94300000D01*
X99395283Y-94300000D01*
X99427000Y-94140547D01*
X99427000Y-93859453D01*
X99372162Y-93583759D01*
X99264591Y-93324062D01*
X99108424Y-93090340D01*
X98909660Y-92891576D01*
X98675938Y-92735409D01*
X98416241Y-92627838D01*
X98140547Y-92573000D01*
X97859453Y-92573000D01*
X97583759Y-92627838D01*
X97324062Y-92735409D01*
X97090340Y-92891576D01*
X96891576Y-93090340D01*
X96735409Y-93324062D01*
X96627838Y-93583759D01*
X96573000Y-93859453D01*
X95127000Y-93859453D01*
X95127000Y-92880763D01*
X95359453Y-92927000D01*
X95640547Y-92927000D01*
X95916241Y-92872162D01*
X96175938Y-92764591D01*
X96409660Y-92608424D01*
X96608424Y-92409660D01*
X96764591Y-92175938D01*
X96872162Y-91916241D01*
X96927000Y-91640547D01*
X96927000Y-91359453D01*
X96872162Y-91083759D01*
X96764591Y-90824062D01*
X96608424Y-90590340D01*
X96409660Y-90391576D01*
X96175938Y-90235409D01*
X95916241Y-90127838D01*
X95640547Y-90073000D01*
X95359453Y-90073000D01*
X95127000Y-90119237D01*
X95127000Y-79990000D01*
X140720451Y-79990000D01*
X140720451Y-81690000D01*
X140730626Y-81793310D01*
X140760761Y-81892650D01*
X140809696Y-81984202D01*
X140875552Y-82064448D01*
X140955798Y-82130304D01*
X141047350Y-82179239D01*
X141146690Y-82209374D01*
X141250000Y-82219549D01*
X142950000Y-82219549D01*
X143053310Y-82209374D01*
X143152650Y-82179239D01*
X143244202Y-82130304D01*
X143324448Y-82064448D01*
X143390304Y-81984202D01*
X143439239Y-81892650D01*
X143469374Y-81793310D01*
X143479549Y-81690000D01*
X143479549Y-81581798D01*
X143570414Y-81717787D01*
X143762213Y-81909586D01*
X143987746Y-82060282D01*
X144238344Y-82164083D01*
X144504377Y-82217000D01*
X144775623Y-82217000D01*
X145041656Y-82164083D01*
X145292254Y-82060282D01*
X145517787Y-81909586D01*
X145709586Y-81717787D01*
X145860282Y-81492254D01*
X145910000Y-81372224D01*
X145959718Y-81492254D01*
X146110414Y-81717787D01*
X146302213Y-81909586D01*
X146527746Y-82060282D01*
X146778344Y-82164083D01*
X147044377Y-82217000D01*
X147315623Y-82217000D01*
X147581656Y-82164083D01*
X147832254Y-82060282D01*
X148057787Y-81909586D01*
X148249586Y-81717787D01*
X148400282Y-81492254D01*
X148450000Y-81372224D01*
X148499718Y-81492254D01*
X148650414Y-81717787D01*
X148842213Y-81909586D01*
X149067746Y-82060282D01*
X149318344Y-82164083D01*
X149584377Y-82217000D01*
X149855623Y-82217000D01*
X150121656Y-82164083D01*
X150372254Y-82060282D01*
X150597787Y-81909586D01*
X150789586Y-81717787D01*
X150940282Y-81492254D01*
X150990000Y-81372224D01*
X151039718Y-81492254D01*
X151190414Y-81717787D01*
X151382213Y-81909586D01*
X151607746Y-82060282D01*
X151858344Y-82164083D01*
X152124377Y-82217000D01*
X152395623Y-82217000D01*
X152661656Y-82164083D01*
X152912254Y-82060282D01*
X153137787Y-81909586D01*
X153329586Y-81717787D01*
X153480282Y-81492254D01*
X153530000Y-81372224D01*
X153579718Y-81492254D01*
X153730414Y-81717787D01*
X153922213Y-81909586D01*
X154147746Y-82060282D01*
X154398344Y-82164083D01*
X154664377Y-82217000D01*
X154935623Y-82217000D01*
X155201656Y-82164083D01*
X155452254Y-82060282D01*
X155677787Y-81909586D01*
X155869586Y-81717787D01*
X156020282Y-81492254D01*
X156070000Y-81372224D01*
X156119718Y-81492254D01*
X156270414Y-81717787D01*
X156462213Y-81909586D01*
X156687746Y-82060282D01*
X156938344Y-82164083D01*
X157204377Y-82217000D01*
X157475623Y-82217000D01*
X157741656Y-82164083D01*
X157992254Y-82060282D01*
X158217787Y-81909586D01*
X158409586Y-81717787D01*
X158560282Y-81492254D01*
X158610000Y-81372224D01*
X158659718Y-81492254D01*
X158810414Y-81717787D01*
X159002213Y-81909586D01*
X159227746Y-82060282D01*
X159478344Y-82164083D01*
X159744377Y-82217000D01*
X160015623Y-82217000D01*
X160281656Y-82164083D01*
X160532254Y-82060282D01*
X160757787Y-81909586D01*
X160949586Y-81717787D01*
X161100282Y-81492254D01*
X161150000Y-81372224D01*
X161199718Y-81492254D01*
X161350414Y-81717787D01*
X161542213Y-81909586D01*
X161767746Y-82060282D01*
X162018344Y-82164083D01*
X162284377Y-82217000D01*
X162555623Y-82217000D01*
X162821656Y-82164083D01*
X163072254Y-82060282D01*
X163297787Y-81909586D01*
X163489586Y-81717787D01*
X163640282Y-81492254D01*
X163690000Y-81372224D01*
X163739718Y-81492254D01*
X163890414Y-81717787D01*
X164082213Y-81909586D01*
X164307746Y-82060282D01*
X164558344Y-82164083D01*
X164824377Y-82217000D01*
X165095623Y-82217000D01*
X165361656Y-82164083D01*
X165612254Y-82060282D01*
X165837787Y-81909586D01*
X166029586Y-81717787D01*
X166180282Y-81492254D01*
X166230000Y-81372224D01*
X166279718Y-81492254D01*
X166430414Y-81717787D01*
X166622213Y-81909586D01*
X166847746Y-82060282D01*
X167098344Y-82164083D01*
X167364377Y-82217000D01*
X167635623Y-82217000D01*
X167901656Y-82164083D01*
X168152254Y-82060282D01*
X168377787Y-81909586D01*
X168569586Y-81717787D01*
X168720282Y-81492254D01*
X168770000Y-81372224D01*
X168819718Y-81492254D01*
X168970414Y-81717787D01*
X169162213Y-81909586D01*
X169387746Y-82060282D01*
X169638344Y-82164083D01*
X169904377Y-82217000D01*
X170175623Y-82217000D01*
X170441656Y-82164083D01*
X170692254Y-82060282D01*
X170917787Y-81909586D01*
X171109586Y-81717787D01*
X171260282Y-81492254D01*
X171310000Y-81372224D01*
X171359718Y-81492254D01*
X171510414Y-81717787D01*
X171702213Y-81909586D01*
X171927746Y-82060282D01*
X172178344Y-82164083D01*
X172444377Y-82217000D01*
X172715623Y-82217000D01*
X172981656Y-82164083D01*
X173232254Y-82060282D01*
X173457787Y-81909586D01*
X173649586Y-81717787D01*
X173800282Y-81492254D01*
X173850000Y-81372224D01*
X173899718Y-81492254D01*
X174050414Y-81717787D01*
X174242213Y-81909586D01*
X174467746Y-82060282D01*
X174718344Y-82164083D01*
X174984377Y-82217000D01*
X175255623Y-82217000D01*
X175521656Y-82164083D01*
X175772254Y-82060282D01*
X175997787Y-81909586D01*
X176189586Y-81717787D01*
X176333975Y-81501692D01*
X176464822Y-81721355D01*
X176659731Y-81937588D01*
X176893080Y-82111641D01*
X177155901Y-82236825D01*
X177303110Y-82281476D01*
X177533000Y-82160155D01*
X177533000Y-80967000D01*
X177513000Y-80967000D01*
X177513000Y-80713000D01*
X177533000Y-80713000D01*
X177533000Y-80693000D01*
X177787000Y-80693000D01*
X177787000Y-80713000D01*
X177807000Y-80713000D01*
X177807000Y-80967000D01*
X177787000Y-80967000D01*
X177787000Y-82160155D01*
X178016890Y-82281476D01*
X178164099Y-82236825D01*
X178426920Y-82111641D01*
X178660269Y-81937588D01*
X178855178Y-81721355D01*
X178986025Y-81501692D01*
X179130414Y-81717787D01*
X179322213Y-81909586D01*
X179547746Y-82060282D01*
X179798344Y-82164083D01*
X180064377Y-82217000D01*
X180335623Y-82217000D01*
X180601656Y-82164083D01*
X180852254Y-82060282D01*
X181077787Y-81909586D01*
X181269586Y-81717787D01*
X181420282Y-81492254D01*
X181470000Y-81372224D01*
X181519718Y-81492254D01*
X181670414Y-81717787D01*
X181862213Y-81909586D01*
X182087746Y-82060282D01*
X182338344Y-82164083D01*
X182604377Y-82217000D01*
X182875623Y-82217000D01*
X183141656Y-82164083D01*
X183392254Y-82060282D01*
X183617787Y-81909586D01*
X183809586Y-81717787D01*
X183960282Y-81492254D01*
X184010000Y-81372224D01*
X184059718Y-81492254D01*
X184210414Y-81717787D01*
X184402213Y-81909586D01*
X184627746Y-82060282D01*
X184878344Y-82164083D01*
X185144377Y-82217000D01*
X185415623Y-82217000D01*
X185681656Y-82164083D01*
X185932254Y-82060282D01*
X186157787Y-81909586D01*
X186349586Y-81717787D01*
X186500282Y-81492254D01*
X186550000Y-81372224D01*
X186599718Y-81492254D01*
X186750414Y-81717787D01*
X186942213Y-81909586D01*
X187167746Y-82060282D01*
X187418344Y-82164083D01*
X187684377Y-82217000D01*
X187955623Y-82217000D01*
X188221656Y-82164083D01*
X188472254Y-82060282D01*
X188697787Y-81909586D01*
X188889586Y-81717787D01*
X189040282Y-81492254D01*
X189090000Y-81372224D01*
X189139718Y-81492254D01*
X189290414Y-81717787D01*
X189482213Y-81909586D01*
X189707746Y-82060282D01*
X189958344Y-82164083D01*
X190224377Y-82217000D01*
X190495623Y-82217000D01*
X190761656Y-82164083D01*
X191012254Y-82060282D01*
X191237787Y-81909586D01*
X191429586Y-81717787D01*
X191580282Y-81492254D01*
X191684083Y-81241656D01*
X191737000Y-80975623D01*
X191737000Y-80704377D01*
X191684083Y-80438344D01*
X191580282Y-80187746D01*
X191429586Y-79962213D01*
X191237787Y-79770414D01*
X191012254Y-79619718D01*
X190892224Y-79570000D01*
X191012254Y-79520282D01*
X191237787Y-79369586D01*
X191429586Y-79177787D01*
X191580282Y-78952254D01*
X191684083Y-78701656D01*
X191737000Y-78435623D01*
X191737000Y-78164377D01*
X191684083Y-77898344D01*
X191580282Y-77647746D01*
X191429586Y-77422213D01*
X191237787Y-77230414D01*
X191012254Y-77079718D01*
X190761656Y-76975917D01*
X190495623Y-76923000D01*
X190224377Y-76923000D01*
X189958344Y-76975917D01*
X189707746Y-77079718D01*
X189482213Y-77230414D01*
X189290414Y-77422213D01*
X189139718Y-77647746D01*
X189090000Y-77767776D01*
X189040282Y-77647746D01*
X188889586Y-77422213D01*
X188697787Y-77230414D01*
X188472254Y-77079718D01*
X188221656Y-76975917D01*
X187955623Y-76923000D01*
X187684377Y-76923000D01*
X187418344Y-76975917D01*
X187167746Y-77079718D01*
X186942213Y-77230414D01*
X186750414Y-77422213D01*
X186599718Y-77647746D01*
X186550000Y-77767776D01*
X186500282Y-77647746D01*
X186349586Y-77422213D01*
X186157787Y-77230414D01*
X185932254Y-77079718D01*
X185681656Y-76975917D01*
X185415623Y-76923000D01*
X185144377Y-76923000D01*
X184878344Y-76975917D01*
X184627746Y-77079718D01*
X184402213Y-77230414D01*
X184210414Y-77422213D01*
X184059718Y-77647746D01*
X184010000Y-77767776D01*
X183960282Y-77647746D01*
X183809586Y-77422213D01*
X183617787Y-77230414D01*
X183392254Y-77079718D01*
X183141656Y-76975917D01*
X182875623Y-76923000D01*
X182604377Y-76923000D01*
X182338344Y-76975917D01*
X182087746Y-77079718D01*
X181862213Y-77230414D01*
X181670414Y-77422213D01*
X181519718Y-77647746D01*
X181470000Y-77767776D01*
X181420282Y-77647746D01*
X181269586Y-77422213D01*
X181077787Y-77230414D01*
X180852254Y-77079718D01*
X180601656Y-76975917D01*
X180335623Y-76923000D01*
X180064377Y-76923000D01*
X179798344Y-76975917D01*
X179547746Y-77079718D01*
X179322213Y-77230414D01*
X179130414Y-77422213D01*
X178979718Y-77647746D01*
X178930000Y-77767776D01*
X178880282Y-77647746D01*
X178729586Y-77422213D01*
X178537787Y-77230414D01*
X178312254Y-77079718D01*
X178061656Y-76975917D01*
X177795623Y-76923000D01*
X177524377Y-76923000D01*
X177258344Y-76975917D01*
X177007746Y-77079718D01*
X176782213Y-77230414D01*
X176590414Y-77422213D01*
X176439718Y-77647746D01*
X176390000Y-77767776D01*
X176340282Y-77647746D01*
X176189586Y-77422213D01*
X175997787Y-77230414D01*
X175772254Y-77079718D01*
X175521656Y-76975917D01*
X175255623Y-76923000D01*
X174984377Y-76923000D01*
X174718344Y-76975917D01*
X174467746Y-77079718D01*
X174242213Y-77230414D01*
X174050414Y-77422213D01*
X173899718Y-77647746D01*
X173850000Y-77767776D01*
X173800282Y-77647746D01*
X173649586Y-77422213D01*
X173457787Y-77230414D01*
X173232254Y-77079718D01*
X172981656Y-76975917D01*
X172715623Y-76923000D01*
X172444377Y-76923000D01*
X172178344Y-76975917D01*
X171927746Y-77079718D01*
X171702213Y-77230414D01*
X171510414Y-77422213D01*
X171359718Y-77647746D01*
X171310000Y-77767776D01*
X171260282Y-77647746D01*
X171109586Y-77422213D01*
X170917787Y-77230414D01*
X170692254Y-77079718D01*
X170441656Y-76975917D01*
X170175623Y-76923000D01*
X169904377Y-76923000D01*
X169638344Y-76975917D01*
X169387746Y-77079718D01*
X169162213Y-77230414D01*
X168970414Y-77422213D01*
X168819718Y-77647746D01*
X168770000Y-77767776D01*
X168720282Y-77647746D01*
X168569586Y-77422213D01*
X168377787Y-77230414D01*
X168152254Y-77079718D01*
X167901656Y-76975917D01*
X167635623Y-76923000D01*
X167364377Y-76923000D01*
X167098344Y-76975917D01*
X166847746Y-77079718D01*
X166622213Y-77230414D01*
X166430414Y-77422213D01*
X166279718Y-77647746D01*
X166230000Y-77767776D01*
X166180282Y-77647746D01*
X166029586Y-77422213D01*
X165837787Y-77230414D01*
X165612254Y-77079718D01*
X165361656Y-76975917D01*
X165095623Y-76923000D01*
X164824377Y-76923000D01*
X164558344Y-76975917D01*
X164307746Y-77079718D01*
X164082213Y-77230414D01*
X163890414Y-77422213D01*
X163739718Y-77647746D01*
X163690000Y-77767776D01*
X163640282Y-77647746D01*
X163489586Y-77422213D01*
X163297787Y-77230414D01*
X163072254Y-77079718D01*
X162821656Y-76975917D01*
X162555623Y-76923000D01*
X162284377Y-76923000D01*
X162018344Y-76975917D01*
X161767746Y-77079718D01*
X161542213Y-77230414D01*
X161350414Y-77422213D01*
X161199718Y-77647746D01*
X161150000Y-77767776D01*
X161100282Y-77647746D01*
X160949586Y-77422213D01*
X160757787Y-77230414D01*
X160532254Y-77079718D01*
X160281656Y-76975917D01*
X160015623Y-76923000D01*
X159744377Y-76923000D01*
X159478344Y-76975917D01*
X159227746Y-77079718D01*
X159002213Y-77230414D01*
X158810414Y-77422213D01*
X158659718Y-77647746D01*
X158610000Y-77767776D01*
X158560282Y-77647746D01*
X158409586Y-77422213D01*
X158217787Y-77230414D01*
X157992254Y-77079718D01*
X157741656Y-76975917D01*
X157475623Y-76923000D01*
X157204377Y-76923000D01*
X156938344Y-76975917D01*
X156687746Y-77079718D01*
X156462213Y-77230414D01*
X156270414Y-77422213D01*
X156119718Y-77647746D01*
X156070000Y-77767776D01*
X156020282Y-77647746D01*
X155869586Y-77422213D01*
X155677787Y-77230414D01*
X155452254Y-77079718D01*
X155201656Y-76975917D01*
X154935623Y-76923000D01*
X154664377Y-76923000D01*
X154398344Y-76975917D01*
X154147746Y-77079718D01*
X153922213Y-77230414D01*
X153730414Y-77422213D01*
X153579718Y-77647746D01*
X153530000Y-77767776D01*
X153480282Y-77647746D01*
X153329586Y-77422213D01*
X153137787Y-77230414D01*
X152912254Y-77079718D01*
X152661656Y-76975917D01*
X152395623Y-76923000D01*
X152124377Y-76923000D01*
X151858344Y-76975917D01*
X151607746Y-77079718D01*
X151382213Y-77230414D01*
X151190414Y-77422213D01*
X151039718Y-77647746D01*
X150990000Y-77767776D01*
X150940282Y-77647746D01*
X150789586Y-77422213D01*
X150597787Y-77230414D01*
X150372254Y-77079718D01*
X150121656Y-76975917D01*
X149855623Y-76923000D01*
X149584377Y-76923000D01*
X149318344Y-76975917D01*
X149067746Y-77079718D01*
X148842213Y-77230414D01*
X148650414Y-77422213D01*
X148499718Y-77647746D01*
X148450000Y-77767776D01*
X148400282Y-77647746D01*
X148249586Y-77422213D01*
X148057787Y-77230414D01*
X147832254Y-77079718D01*
X147581656Y-76975917D01*
X147315623Y-76923000D01*
X147044377Y-76923000D01*
X146778344Y-76975917D01*
X146527746Y-77079718D01*
X146302213Y-77230414D01*
X146110414Y-77422213D01*
X145959718Y-77647746D01*
X145910000Y-77767776D01*
X145860282Y-77647746D01*
X145709586Y-77422213D01*
X145517787Y-77230414D01*
X145292254Y-77079718D01*
X145041656Y-76975917D01*
X144775623Y-76923000D01*
X144504377Y-76923000D01*
X144238344Y-76975917D01*
X143987746Y-77079718D01*
X143762213Y-77230414D01*
X143570414Y-77422213D01*
X143419718Y-77647746D01*
X143370000Y-77767776D01*
X143320282Y-77647746D01*
X143169586Y-77422213D01*
X142977787Y-77230414D01*
X142752254Y-77079718D01*
X142501656Y-76975917D01*
X142235623Y-76923000D01*
X141964377Y-76923000D01*
X141698344Y-76975917D01*
X141447746Y-77079718D01*
X141222213Y-77230414D01*
X141030414Y-77422213D01*
X140879718Y-77647746D01*
X140775917Y-77898344D01*
X140723000Y-78164377D01*
X140723000Y-78435623D01*
X140775917Y-78701656D01*
X140879718Y-78952254D01*
X141030414Y-79177787D01*
X141222213Y-79369586D01*
X141358202Y-79460451D01*
X141250000Y-79460451D01*
X141146690Y-79470626D01*
X141047350Y-79500761D01*
X140955798Y-79549696D01*
X140875552Y-79615552D01*
X140809696Y-79695798D01*
X140760761Y-79787350D01*
X140730626Y-79886690D01*
X140720451Y-79990000D01*
X95127000Y-79990000D01*
X95127000Y-65508699D01*
X101473000Y-65508699D01*
X101473000Y-65691301D01*
X101508624Y-65870396D01*
X101578504Y-66039099D01*
X101679952Y-66190928D01*
X101809072Y-66320048D01*
X101960901Y-66421496D01*
X102129604Y-66491376D01*
X102308699Y-66527000D01*
X102491301Y-66527000D01*
X102670396Y-66491376D01*
X102839099Y-66421496D01*
X102990928Y-66320048D01*
X103120048Y-66190928D01*
X103221496Y-66039099D01*
X103275510Y-65908699D01*
X162073000Y-65908699D01*
X162073000Y-66091301D01*
X162108624Y-66270396D01*
X162178504Y-66439099D01*
X162279952Y-66590928D01*
X162409072Y-66720048D01*
X162560901Y-66821496D01*
X162729604Y-66891376D01*
X162908699Y-66927000D01*
X163091301Y-66927000D01*
X163270396Y-66891376D01*
X163439099Y-66821496D01*
X163590928Y-66720048D01*
X163720048Y-66590928D01*
X163774991Y-66508699D01*
X210473000Y-66508699D01*
X210473000Y-66691301D01*
X210508624Y-66870396D01*
X210578504Y-67039099D01*
X210679952Y-67190928D01*
X210809072Y-67320048D01*
X210960901Y-67421496D01*
X211129604Y-67491376D01*
X211308699Y-67527000D01*
X211491301Y-67527000D01*
X211670396Y-67491376D01*
X211839099Y-67421496D01*
X211990928Y-67320048D01*
X212120048Y-67190928D01*
X212221496Y-67039099D01*
X212291376Y-66870396D01*
X212327000Y-66691301D01*
X212327000Y-66508699D01*
X212291376Y-66329604D01*
X212221496Y-66160901D01*
X212120048Y-66009072D01*
X211990928Y-65879952D01*
X211839099Y-65778504D01*
X211670396Y-65708624D01*
X211491301Y-65673000D01*
X211308699Y-65673000D01*
X211129604Y-65708624D01*
X210960901Y-65778504D01*
X210809072Y-65879952D01*
X210679952Y-66009072D01*
X210578504Y-66160901D01*
X210508624Y-66329604D01*
X210473000Y-66508699D01*
X163774991Y-66508699D01*
X163821496Y-66439099D01*
X163891376Y-66270396D01*
X163927000Y-66091301D01*
X163927000Y-65908699D01*
X163891376Y-65729604D01*
X163821496Y-65560901D01*
X163720048Y-65409072D01*
X163590928Y-65279952D01*
X163439099Y-65178504D01*
X163270396Y-65108624D01*
X163091301Y-65073000D01*
X162908699Y-65073000D01*
X162729604Y-65108624D01*
X162560901Y-65178504D01*
X162409072Y-65279952D01*
X162279952Y-65409072D01*
X162178504Y-65560901D01*
X162108624Y-65729604D01*
X162073000Y-65908699D01*
X103275510Y-65908699D01*
X103291376Y-65870396D01*
X103327000Y-65691301D01*
X103327000Y-65508699D01*
X103291376Y-65329604D01*
X103221496Y-65160901D01*
X103120048Y-65009072D01*
X102990928Y-64879952D01*
X102839099Y-64778504D01*
X102670396Y-64708624D01*
X102491301Y-64673000D01*
X102308699Y-64673000D01*
X102129604Y-64708624D01*
X101960901Y-64778504D01*
X101809072Y-64879952D01*
X101679952Y-65009072D01*
X101578504Y-65160901D01*
X101508624Y-65329604D01*
X101473000Y-65508699D01*
X95127000Y-65508699D01*
X95127000Y-63190509D01*
X197073000Y-63190509D01*
X197073000Y-63609491D01*
X197154739Y-64020423D01*
X197315077Y-64407512D01*
X197547851Y-64755884D01*
X197844116Y-65052149D01*
X198192488Y-65284923D01*
X198579577Y-65445261D01*
X198990509Y-65527000D01*
X199409491Y-65527000D01*
X199820423Y-65445261D01*
X200207512Y-65284923D01*
X200555884Y-65052149D01*
X200852149Y-64755884D01*
X201084923Y-64407512D01*
X201245261Y-64020423D01*
X201327000Y-63609491D01*
X201327000Y-63190509D01*
X201245261Y-62779577D01*
X201084923Y-62392488D01*
X200852149Y-62044116D01*
X200555884Y-61747851D01*
X200207512Y-61515077D01*
X199820423Y-61354739D01*
X199409491Y-61273000D01*
X198990509Y-61273000D01*
X198579577Y-61354739D01*
X198192488Y-61515077D01*
X197844116Y-61747851D01*
X197547851Y-62044116D01*
X197315077Y-62392488D01*
X197154739Y-62779577D01*
X197073000Y-63190509D01*
X95127000Y-63190509D01*
X95127000Y-62037976D01*
X95209072Y-62120048D01*
X95360901Y-62221496D01*
X95529604Y-62291376D01*
X95708699Y-62327000D01*
X95891301Y-62327000D01*
X96070396Y-62291376D01*
X96239099Y-62221496D01*
X96390928Y-62120048D01*
X96520048Y-61990928D01*
X96621496Y-61839099D01*
X96691376Y-61670396D01*
X96727000Y-61491301D01*
X96727000Y-61308699D01*
X96691376Y-61129604D01*
X96621496Y-60960901D01*
X96520048Y-60809072D01*
X96390928Y-60679952D01*
X96239099Y-60578504D01*
X96114759Y-60527000D01*
X154962024Y-60527000D01*
X154879952Y-60609072D01*
M02*
