M48
; DRILL file {KiCad (5.1.6)-1} date 04/23/21 16:12:29
; FORMAT={-:-/ absolute / metric / decimal}
; #@! TF.CreationDate,2021-04-23T16:12:29+02:00
; #@! TF.GenerationSoftware,Kicad,Pcbnew,(5.1.6)-1
; #@! TF.FileFunction,Plated,1,4,PTH
FMAT,2
METRIC
T1C0.400
T2C0.600
T3C0.711
T4C0.800
T5C1.000
T6C1.200
T7C1.930
%
G90
G05
T1
X76.2Y-125.2
X76.2Y-130.8
X84.618Y-128.078
X85.7Y-116.5
X86.5Y-123.6
X90.2Y-110.2
X90.4Y-108.6
X92.6Y-108.2
X92.8Y-127.8
X95.2Y-115.4
X95.6Y-119.4
X95.8Y-61.4
X95.8Y-108.4
X96.8Y-119.4
X102.4Y-65.6
X103.6Y-69.0
X109.832Y-115.686
X113.3Y-102.3
X117.0Y-136.6
X117.6Y-135.6
X119.875Y-102.325
X126.4Y-141.0
X155.6Y-61.2
X163.0Y-66.0
X163.2Y-68.0
X172.4Y-132.0
X174.0Y-136.2
X183.8Y-140.6
X210.0Y-125.6
X210.4Y-67.8
X211.4Y-66.6
X211.65Y-60.244
X213.6Y-124.6
X216.0Y-96.2
X217.8Y-116.8
X219.2Y-95.0
X223.4Y-87.6
T2
X98.6Y-122.0
X100.1Y-122.0
T3
X83.1Y-119.2
X83.1Y-120.8
X84.3Y-118.4
X84.3Y-120.0
X84.3Y-121.6
T4
X234.8Y-153.4
X236.8Y-153.4
X238.8Y-153.4
X240.8Y-153.4
X182.8Y-48.8
X184.8Y-48.8
X186.8Y-48.8
X188.8Y-48.8
X169.8Y-48.8
X171.8Y-48.8
X173.8Y-48.8
X175.8Y-48.8
X104.8Y-153.4
X106.8Y-153.4
X108.8Y-153.4
X110.8Y-153.4
X247.0Y-98.25
X247.0Y-100.25
X247.0Y-102.25
X247.0Y-104.25
X121.0Y-95.1
X123.5Y-95.1
X247.0Y-111.35
X247.0Y-113.35
X247.0Y-115.35
X247.0Y-117.35
X247.0Y-137.4
X247.0Y-139.4
X247.0Y-141.4
X247.0Y-143.4
X104.8Y-48.8
X106.8Y-48.8
X108.8Y-48.8
X110.8Y-48.8
X208.8Y-48.8
X210.8Y-48.8
X212.8Y-48.8
X214.8Y-48.8
X221.8Y-153.4
X223.8Y-153.4
X225.8Y-153.4
X227.8Y-153.4
X221.8Y-48.8
X223.8Y-48.8
X225.8Y-48.8
X227.8Y-48.8
X247.0Y-124.35
X247.0Y-126.35
X247.0Y-128.35
X247.0Y-130.35
X195.8Y-48.8
X197.8Y-48.8
X199.8Y-48.8
X201.8Y-48.8
X117.8Y-153.4
X119.8Y-153.4
X121.8Y-153.4
X123.8Y-153.4
X208.8Y-153.4
X210.8Y-153.4
X212.8Y-153.4
X214.8Y-153.4
X234.8Y-48.8
X236.8Y-48.8
X238.8Y-48.8
X240.8Y-48.8
X130.8Y-48.8
X132.8Y-48.8
X134.8Y-48.8
X136.8Y-48.8
X91.8Y-153.4
X93.8Y-153.4
X95.8Y-153.4
X97.8Y-153.4
X182.8Y-153.4
X184.8Y-153.4
X186.8Y-153.4
X188.8Y-153.4
X247.0Y-59.25
X247.0Y-61.25
X247.0Y-63.25
X247.0Y-65.25
X78.8Y-153.4
X80.8Y-153.4
X82.8Y-153.4
X84.8Y-153.4
X129.0Y-95.1
X131.5Y-95.1
X169.8Y-153.4
X171.8Y-153.4
X173.8Y-153.4
X175.8Y-153.4
X247.8Y-153.4
X249.8Y-153.4
X251.8Y-153.4
X253.8Y-153.4
X78.8Y-48.8
X80.8Y-48.8
X82.8Y-48.8
X84.8Y-48.8
X91.8Y-48.8
X93.8Y-48.8
X95.8Y-48.8
X97.8Y-48.8
X117.8Y-48.8
X119.8Y-48.8
X121.8Y-48.8
X123.8Y-48.8
X130.8Y-153.4
X132.8Y-153.4
X134.8Y-153.4
X136.8Y-153.4
X247.85Y-48.8
X249.85Y-48.8
X251.85Y-48.8
X253.85Y-48.8
X105.0Y-95.1
X107.5Y-95.1
X156.8Y-153.4
X158.8Y-153.4
X160.8Y-153.4
X162.8Y-153.4
X247.0Y-85.25
X247.0Y-87.25
X247.0Y-89.25
X247.0Y-91.25
X143.8Y-153.4
X145.8Y-153.4
X147.8Y-153.4
X149.8Y-153.4
X156.8Y-48.8
X158.8Y-48.8
X160.8Y-48.8
X162.8Y-48.8
X143.8Y-48.8
X145.8Y-48.8
X147.8Y-48.8
X149.8Y-48.8
X247.0Y-72.25
X247.0Y-74.25
X247.0Y-76.25
X247.0Y-78.25
X113.0Y-95.1
X115.5Y-95.1
X195.8Y-153.4
X197.8Y-153.4
X199.8Y-153.4
X201.8Y-153.4
T5
X81.6Y-134.1
X81.6Y-136.64
X81.6Y-139.18
X81.6Y-141.72
X84.14Y-134.1
X84.14Y-136.64
X84.14Y-139.18
X84.14Y-141.72
X142.1Y-78.3
X142.1Y-80.84
X144.64Y-78.3
X144.64Y-80.84
X147.18Y-78.3
X147.18Y-80.84
X149.72Y-78.3
X149.72Y-80.84
X152.26Y-78.3
X152.26Y-80.84
X154.8Y-78.3
X154.8Y-80.84
X157.34Y-78.3
X157.34Y-80.84
X159.88Y-78.3
X159.88Y-80.84
X162.42Y-78.3
X162.42Y-80.84
X164.96Y-78.3
X164.96Y-80.84
X167.5Y-78.3
X167.5Y-80.84
X170.04Y-78.3
X170.04Y-80.84
X172.58Y-78.3
X172.58Y-80.84
X175.12Y-78.3
X175.12Y-80.84
X177.66Y-78.3
X177.66Y-80.84
X180.2Y-78.3
X180.2Y-80.84
X182.74Y-78.3
X182.74Y-80.84
X185.28Y-78.3
X185.28Y-80.84
X187.82Y-78.3
X187.82Y-80.84
X190.36Y-78.3
X190.36Y-80.84
X142.1Y-121.48
X142.1Y-124.02
X144.64Y-121.48
X144.64Y-124.02
X147.18Y-121.48
X147.18Y-124.02
X149.72Y-121.48
X149.72Y-124.02
X152.26Y-121.48
X152.26Y-124.02
X154.8Y-121.48
X154.8Y-124.02
X157.34Y-121.48
X157.34Y-124.02
X159.88Y-121.48
X159.88Y-124.02
X162.42Y-121.48
X162.42Y-124.02
X164.96Y-121.48
X164.96Y-124.02
X167.5Y-121.48
X167.5Y-124.02
X170.04Y-121.48
X170.04Y-124.02
X172.58Y-121.48
X172.58Y-124.02
X175.12Y-121.48
X175.12Y-124.02
X177.66Y-121.48
X177.66Y-124.02
X180.2Y-121.48
X180.2Y-124.02
X182.74Y-121.48
X182.74Y-124.02
X185.28Y-121.48
X185.28Y-124.02
X187.82Y-121.48
X187.82Y-124.02
X190.36Y-121.48
X190.36Y-124.02
T6
X93.0Y-94.0
X93.0Y-99.0
X95.5Y-91.5
X95.5Y-96.5
X98.0Y-94.0
X98.0Y-99.0
T7
X79.25Y-116.55
X79.25Y-123.45
T5
X81.05Y-92.0G85X79.55Y-92.0
G05
X81.05Y-101.0G85X79.55Y-101.0
G05
X81.3Y-95.85G85X81.3Y-97.15
G05
X87.3Y-95.5G85X87.3Y-97.5
G05
T0
M30
