M48
; DRILL file {KiCad (5.1.6)-1} date 04/23/21 16:12:29
; FORMAT={-:-/ absolute / metric / decimal}
; #@! TF.CreationDate,2021-04-23T16:12:29+02:00
; #@! TF.GenerationSoftware,Kicad,Pcbnew,(5.1.6)-1
; #@! TF.FileFunction,NonPlated,1,4,NPTH
FMAT,2
METRIC
T1C1.200
T2C1.600
T3C3.000
T4C3.200
%
G90
G05
T1
X219.8Y-155.8
X229.8Y-155.8
X219.8Y-46.4
X229.8Y-46.4
X249.4Y-122.35
X249.4Y-132.35
X193.8Y-46.4
X203.8Y-46.4
X115.8Y-155.8
X125.8Y-155.8
X206.8Y-155.8
X216.8Y-155.8
X232.8Y-46.4
X242.8Y-46.4
X128.8Y-46.4
X138.8Y-46.4
X89.8Y-155.8
X99.8Y-155.8
X180.8Y-155.8
X190.8Y-155.8
X249.4Y-57.25
X249.4Y-67.25
X76.8Y-155.8
X86.8Y-155.8
X167.8Y-155.8
X177.8Y-155.8
X245.8Y-155.8
X255.8Y-155.8
X76.8Y-46.4
X86.8Y-46.4
X89.8Y-46.4
X99.8Y-46.4
X115.8Y-46.4
X125.8Y-46.4
X128.8Y-155.8
X138.8Y-155.8
X245.85Y-46.4
X255.85Y-46.4
X154.8Y-155.8
X164.8Y-155.8
X249.4Y-83.25
X249.4Y-93.25
X141.8Y-155.8
X151.8Y-155.8
X154.8Y-46.4
X164.8Y-46.4
X141.8Y-46.4
X151.8Y-46.4
X249.4Y-70.25
X249.4Y-80.25
X193.8Y-155.8
X203.8Y-155.8
X232.8Y-155.8
X242.8Y-155.8
X180.8Y-46.4
X190.8Y-46.4
X167.8Y-46.4
X177.8Y-46.4
X102.8Y-155.8
X112.8Y-155.8
X249.4Y-96.25
X249.4Y-106.25
X249.4Y-109.35
X249.4Y-119.35
X249.4Y-135.4
X249.4Y-145.4
X102.8Y-46.4
X112.8Y-46.4
X206.8Y-46.4
X216.8Y-46.4
T2
X78.3Y-96.5
T3
X253.8Y-53.15
X78.8Y-148.95
X253.8Y-148.9
X78.8Y-53.6
T4
X199.2Y-63.4
X96.5Y-134.2
X86.9Y-68.1
X200.0Y-139.5
T0
M30
