G04 #@! TF.GenerationSoftware,KiCad,Pcbnew,(5.1.6)-1*
G04 #@! TF.CreationDate,2021-04-23T16:10:59+02:00*
G04 #@! TF.ProjectId,FK_fpga_shield,464b5f66-7067-4615-9f73-6869656c642e,rev?*
G04 #@! TF.SameCoordinates,Original*
G04 #@! TF.FileFunction,Paste,Top*
G04 #@! TF.FilePolarity,Positive*
%FSLAX46Y46*%
G04 Gerber Fmt 4.6, Leading zero omitted, Abs format (unit mm)*
G04 Created by KiCad (PCBNEW (5.1.6)-1) date 2021-04-23 16:10:59*
%MOMM*%
%LPD*%
G01*
G04 APERTURE LIST*
%ADD10R,2.000000X4.500000*%
%ADD11R,0.450000X1.750000*%
%ADD12R,2.500000X1.400000*%
G04 APERTURE END LIST*
G36*
G01*
X87975000Y-124850001D02*
X87975000Y-123949999D01*
G75*
G02*
X88224999Y-123700000I249999J0D01*
G01*
X88875001Y-123700000D01*
G75*
G02*
X89125000Y-123949999I0J-249999D01*
G01*
X89125000Y-124850001D01*
G75*
G02*
X88875001Y-125100000I-249999J0D01*
G01*
X88224999Y-125100000D01*
G75*
G02*
X87975000Y-124850001I0J249999D01*
G01*
G37*
G36*
G01*
X90025000Y-124850001D02*
X90025000Y-123949999D01*
G75*
G02*
X90274999Y-123700000I249999J0D01*
G01*
X90925001Y-123700000D01*
G75*
G02*
X91175000Y-123949999I0J-249999D01*
G01*
X91175000Y-124850001D01*
G75*
G02*
X90925001Y-125100000I-249999J0D01*
G01*
X90274999Y-125100000D01*
G75*
G02*
X90025000Y-124850001I0J249999D01*
G01*
G37*
G36*
G01*
X83300000Y-126549999D02*
X83300000Y-127450001D01*
G75*
G02*
X83050001Y-127700000I-249999J0D01*
G01*
X82399999Y-127700000D01*
G75*
G02*
X82150000Y-127450001I0J249999D01*
G01*
X82150000Y-126549999D01*
G75*
G02*
X82399999Y-126300000I249999J0D01*
G01*
X83050001Y-126300000D01*
G75*
G02*
X83300000Y-126549999I0J-249999D01*
G01*
G37*
G36*
G01*
X81250000Y-126549999D02*
X81250000Y-127450001D01*
G75*
G02*
X81000001Y-127700000I-249999J0D01*
G01*
X80349999Y-127700000D01*
G75*
G02*
X80100000Y-127450001I0J249999D01*
G01*
X80100000Y-126549999D01*
G75*
G02*
X80349999Y-126300000I249999J0D01*
G01*
X81000001Y-126300000D01*
G75*
G02*
X81250000Y-126549999I0J-249999D01*
G01*
G37*
G36*
G01*
X83300000Y-128749999D02*
X83300000Y-129650001D01*
G75*
G02*
X83050001Y-129900000I-249999J0D01*
G01*
X82399999Y-129900000D01*
G75*
G02*
X82150000Y-129650001I0J249999D01*
G01*
X82150000Y-128749999D01*
G75*
G02*
X82399999Y-128500000I249999J0D01*
G01*
X83050001Y-128500000D01*
G75*
G02*
X83300000Y-128749999I0J-249999D01*
G01*
G37*
G36*
G01*
X81250000Y-128749999D02*
X81250000Y-129650001D01*
G75*
G02*
X81000001Y-129900000I-249999J0D01*
G01*
X80349999Y-129900000D01*
G75*
G02*
X80100000Y-129650001I0J249999D01*
G01*
X80100000Y-128749999D01*
G75*
G02*
X80349999Y-128500000I249999J0D01*
G01*
X81000001Y-128500000D01*
G75*
G02*
X81250000Y-128749999I0J-249999D01*
G01*
G37*
G36*
G01*
X77674999Y-127450001D02*
X77674999Y-126549999D01*
G75*
G02*
X77924998Y-126300000I249999J0D01*
G01*
X78575000Y-126300000D01*
G75*
G02*
X78824999Y-126549999I0J-249999D01*
G01*
X78824999Y-127450001D01*
G75*
G02*
X78575000Y-127700000I-249999J0D01*
G01*
X77924998Y-127700000D01*
G75*
G02*
X77674999Y-127450001I0J249999D01*
G01*
G37*
G36*
G01*
X75624999Y-127450001D02*
X75624999Y-126549999D01*
G75*
G02*
X75874998Y-126300000I249999J0D01*
G01*
X76525000Y-126300000D01*
G75*
G02*
X76774999Y-126549999I0J-249999D01*
G01*
X76774999Y-127450001D01*
G75*
G02*
X76525000Y-127700000I-249999J0D01*
G01*
X75874998Y-127700000D01*
G75*
G02*
X75624999Y-127450001I0J249999D01*
G01*
G37*
G36*
G01*
X77650000Y-129650001D02*
X77650000Y-128749999D01*
G75*
G02*
X77899999Y-128500000I249999J0D01*
G01*
X78550001Y-128500000D01*
G75*
G02*
X78800000Y-128749999I0J-249999D01*
G01*
X78800000Y-129650001D01*
G75*
G02*
X78550001Y-129900000I-249999J0D01*
G01*
X77899999Y-129900000D01*
G75*
G02*
X77650000Y-129650001I0J249999D01*
G01*
G37*
G36*
G01*
X75600000Y-129650001D02*
X75600000Y-128749999D01*
G75*
G02*
X75849999Y-128500000I249999J0D01*
G01*
X76500001Y-128500000D01*
G75*
G02*
X76750000Y-128749999I0J-249999D01*
G01*
X76750000Y-129650001D01*
G75*
G02*
X76500001Y-129900000I-249999J0D01*
G01*
X75849999Y-129900000D01*
G75*
G02*
X75600000Y-129650001I0J249999D01*
G01*
G37*
G36*
G01*
X125150001Y-100850000D02*
X124249999Y-100850000D01*
G75*
G02*
X124000000Y-100600001I0J249999D01*
G01*
X124000000Y-99949999D01*
G75*
G02*
X124249999Y-99700000I249999J0D01*
G01*
X125150001Y-99700000D01*
G75*
G02*
X125400000Y-99949999I0J-249999D01*
G01*
X125400000Y-100600001D01*
G75*
G02*
X125150001Y-100850000I-249999J0D01*
G01*
G37*
G36*
G01*
X125150001Y-102900000D02*
X124249999Y-102900000D01*
G75*
G02*
X124000000Y-102650001I0J249999D01*
G01*
X124000000Y-101999999D01*
G75*
G02*
X124249999Y-101750000I249999J0D01*
G01*
X125150001Y-101750000D01*
G75*
G02*
X125400000Y-101999999I0J-249999D01*
G01*
X125400000Y-102650001D01*
G75*
G02*
X125150001Y-102900000I-249999J0D01*
G01*
G37*
G36*
G01*
X121950001Y-100874999D02*
X121049999Y-100874999D01*
G75*
G02*
X120800000Y-100625000I0J249999D01*
G01*
X120800000Y-99974998D01*
G75*
G02*
X121049999Y-99724999I249999J0D01*
G01*
X121950001Y-99724999D01*
G75*
G02*
X122200000Y-99974998I0J-249999D01*
G01*
X122200000Y-100625000D01*
G75*
G02*
X121950001Y-100874999I-249999J0D01*
G01*
G37*
G36*
G01*
X121950001Y-102924999D02*
X121049999Y-102924999D01*
G75*
G02*
X120800000Y-102675000I0J249999D01*
G01*
X120800000Y-102024998D01*
G75*
G02*
X121049999Y-101774999I249999J0D01*
G01*
X121950001Y-101774999D01*
G75*
G02*
X122200000Y-102024998I0J-249999D01*
G01*
X122200000Y-102675000D01*
G75*
G02*
X121950001Y-102924999I-249999J0D01*
G01*
G37*
G36*
G01*
X118750001Y-100825000D02*
X117849999Y-100825000D01*
G75*
G02*
X117600000Y-100575001I0J249999D01*
G01*
X117600000Y-99924999D01*
G75*
G02*
X117849999Y-99675000I249999J0D01*
G01*
X118750001Y-99675000D01*
G75*
G02*
X119000000Y-99924999I0J-249999D01*
G01*
X119000000Y-100575001D01*
G75*
G02*
X118750001Y-100825000I-249999J0D01*
G01*
G37*
G36*
G01*
X118750001Y-102875000D02*
X117849999Y-102875000D01*
G75*
G02*
X117600000Y-102625001I0J249999D01*
G01*
X117600000Y-101974999D01*
G75*
G02*
X117849999Y-101725000I249999J0D01*
G01*
X118750001Y-101725000D01*
G75*
G02*
X119000000Y-101974999I0J-249999D01*
G01*
X119000000Y-102625001D01*
G75*
G02*
X118750001Y-102875000I-249999J0D01*
G01*
G37*
G36*
G01*
X115550001Y-100874999D02*
X114649999Y-100874999D01*
G75*
G02*
X114400000Y-100625000I0J249999D01*
G01*
X114400000Y-99974998D01*
G75*
G02*
X114649999Y-99724999I249999J0D01*
G01*
X115550001Y-99724999D01*
G75*
G02*
X115800000Y-99974998I0J-249999D01*
G01*
X115800000Y-100625000D01*
G75*
G02*
X115550001Y-100874999I-249999J0D01*
G01*
G37*
G36*
G01*
X115550001Y-102924999D02*
X114649999Y-102924999D01*
G75*
G02*
X114400000Y-102675000I0J249999D01*
G01*
X114400000Y-102024998D01*
G75*
G02*
X114649999Y-101774999I249999J0D01*
G01*
X115550001Y-101774999D01*
G75*
G02*
X115800000Y-102024998I0J-249999D01*
G01*
X115800000Y-102675000D01*
G75*
G02*
X115550001Y-102924999I-249999J0D01*
G01*
G37*
G36*
G01*
X112150001Y-100874999D02*
X111249999Y-100874999D01*
G75*
G02*
X111000000Y-100625000I0J249999D01*
G01*
X111000000Y-99974998D01*
G75*
G02*
X111249999Y-99724999I249999J0D01*
G01*
X112150001Y-99724999D01*
G75*
G02*
X112400000Y-99974998I0J-249999D01*
G01*
X112400000Y-100625000D01*
G75*
G02*
X112150001Y-100874999I-249999J0D01*
G01*
G37*
G36*
G01*
X112150001Y-102924999D02*
X111249999Y-102924999D01*
G75*
G02*
X111000000Y-102675000I0J249999D01*
G01*
X111000000Y-102024998D01*
G75*
G02*
X111249999Y-101774999I249999J0D01*
G01*
X112150001Y-101774999D01*
G75*
G02*
X112400000Y-102024998I0J-249999D01*
G01*
X112400000Y-102675000D01*
G75*
G02*
X112150001Y-102924999I-249999J0D01*
G01*
G37*
G36*
G01*
X108349999Y-101750000D02*
X109250001Y-101750000D01*
G75*
G02*
X109500000Y-101999999I0J-249999D01*
G01*
X109500000Y-102650001D01*
G75*
G02*
X109250001Y-102900000I-249999J0D01*
G01*
X108349999Y-102900000D01*
G75*
G02*
X108100000Y-102650001I0J249999D01*
G01*
X108100000Y-101999999D01*
G75*
G02*
X108349999Y-101750000I249999J0D01*
G01*
G37*
G36*
G01*
X108349999Y-99700000D02*
X109250001Y-99700000D01*
G75*
G02*
X109500000Y-99949999I0J-249999D01*
G01*
X109500000Y-100600001D01*
G75*
G02*
X109250001Y-100850000I-249999J0D01*
G01*
X108349999Y-100850000D01*
G75*
G02*
X108100000Y-100600001I0J249999D01*
G01*
X108100000Y-99949999D01*
G75*
G02*
X108349999Y-99700000I249999J0D01*
G01*
G37*
G36*
G01*
X104949999Y-101750000D02*
X105850001Y-101750000D01*
G75*
G02*
X106100000Y-101999999I0J-249999D01*
G01*
X106100000Y-102650001D01*
G75*
G02*
X105850001Y-102900000I-249999J0D01*
G01*
X104949999Y-102900000D01*
G75*
G02*
X104700000Y-102650001I0J249999D01*
G01*
X104700000Y-101999999D01*
G75*
G02*
X104949999Y-101750000I249999J0D01*
G01*
G37*
G36*
G01*
X104949999Y-99700000D02*
X105850001Y-99700000D01*
G75*
G02*
X106100000Y-99949999I0J-249999D01*
G01*
X106100000Y-100600001D01*
G75*
G02*
X105850001Y-100850000I-249999J0D01*
G01*
X104949999Y-100850000D01*
G75*
G02*
X104700000Y-100600001I0J249999D01*
G01*
X104700000Y-99949999D01*
G75*
G02*
X104949999Y-99700000I249999J0D01*
G01*
G37*
G36*
G01*
X119549999Y-137625001D02*
X120450001Y-137625001D01*
G75*
G02*
X120700000Y-137875000I0J-249999D01*
G01*
X120700000Y-138525002D01*
G75*
G02*
X120450001Y-138775001I-249999J0D01*
G01*
X119549999Y-138775001D01*
G75*
G02*
X119300000Y-138525002I0J249999D01*
G01*
X119300000Y-137875000D01*
G75*
G02*
X119549999Y-137625001I249999J0D01*
G01*
G37*
G36*
G01*
X119549999Y-135575001D02*
X120450001Y-135575001D01*
G75*
G02*
X120700000Y-135825000I0J-249999D01*
G01*
X120700000Y-136475002D01*
G75*
G02*
X120450001Y-136725001I-249999J0D01*
G01*
X119549999Y-136725001D01*
G75*
G02*
X119300000Y-136475002I0J249999D01*
G01*
X119300000Y-135825000D01*
G75*
G02*
X119549999Y-135575001I249999J0D01*
G01*
G37*
G36*
G01*
X174600001Y-133363604D02*
X173963604Y-134000001D01*
G75*
G02*
X173610052Y-134000001I-176776J176776D01*
G01*
X173150431Y-133540380D01*
G75*
G02*
X173150431Y-133186828I176776J176776D01*
G01*
X173786828Y-132550431D01*
G75*
G02*
X174140380Y-132550431I176776J-176776D01*
G01*
X174600001Y-133010052D01*
G75*
G02*
X174600001Y-133363604I-176776J-176776D01*
G01*
G37*
G36*
G01*
X176049569Y-134813172D02*
X175413172Y-135449569D01*
G75*
G02*
X175059620Y-135449569I-176776J176776D01*
G01*
X174599999Y-134989948D01*
G75*
G02*
X174599999Y-134636396I176776J176776D01*
G01*
X175236396Y-133999999D01*
G75*
G02*
X175589948Y-133999999I176776J-176776D01*
G01*
X176049569Y-134459620D01*
G75*
G02*
X176049569Y-134813172I-176776J-176776D01*
G01*
G37*
G36*
G01*
X209150000Y-122749999D02*
X209150000Y-123650001D01*
G75*
G02*
X208900001Y-123900000I-249999J0D01*
G01*
X208249999Y-123900000D01*
G75*
G02*
X208000000Y-123650001I0J249999D01*
G01*
X208000000Y-122749999D01*
G75*
G02*
X208249999Y-122500000I249999J0D01*
G01*
X208900001Y-122500000D01*
G75*
G02*
X209150000Y-122749999I0J-249999D01*
G01*
G37*
G36*
G01*
X211200000Y-122749999D02*
X211200000Y-123650001D01*
G75*
G02*
X210950001Y-123900000I-249999J0D01*
G01*
X210299999Y-123900000D01*
G75*
G02*
X210050000Y-123650001I0J249999D01*
G01*
X210050000Y-122749999D01*
G75*
G02*
X210299999Y-122500000I249999J0D01*
G01*
X210950001Y-122500000D01*
G75*
G02*
X211200000Y-122749999I0J-249999D01*
G01*
G37*
G36*
G01*
X215350000Y-93949999D02*
X215350000Y-94850001D01*
G75*
G02*
X215100001Y-95100000I-249999J0D01*
G01*
X214449999Y-95100000D01*
G75*
G02*
X214200000Y-94850001I0J249999D01*
G01*
X214200000Y-93949999D01*
G75*
G02*
X214449999Y-93700000I249999J0D01*
G01*
X215100001Y-93700000D01*
G75*
G02*
X215350000Y-93949999I0J-249999D01*
G01*
G37*
G36*
G01*
X217400000Y-93949999D02*
X217400000Y-94850001D01*
G75*
G02*
X217150001Y-95100000I-249999J0D01*
G01*
X216499999Y-95100000D01*
G75*
G02*
X216250000Y-94850001I0J249999D01*
G01*
X216250000Y-93949999D01*
G75*
G02*
X216499999Y-93700000I249999J0D01*
G01*
X217150001Y-93700000D01*
G75*
G02*
X217400000Y-93949999I0J-249999D01*
G01*
G37*
G36*
G01*
X209463604Y-65899999D02*
X210100001Y-66536396D01*
G75*
G02*
X210100001Y-66889948I-176776J-176776D01*
G01*
X209640380Y-67349569D01*
G75*
G02*
X209286828Y-67349569I-176776J176776D01*
G01*
X208650431Y-66713172D01*
G75*
G02*
X208650431Y-66359620I176776J176776D01*
G01*
X209110052Y-65899999D01*
G75*
G02*
X209463604Y-65899999I176776J-176776D01*
G01*
G37*
G36*
G01*
X210913172Y-64450431D02*
X211549569Y-65086828D01*
G75*
G02*
X211549569Y-65440380I-176776J-176776D01*
G01*
X211089948Y-65900001D01*
G75*
G02*
X210736396Y-65900001I-176776J176776D01*
G01*
X210099999Y-65263604D01*
G75*
G02*
X210099999Y-64910052I176776J176776D01*
G01*
X210559620Y-64450431D01*
G75*
G02*
X210913172Y-64450431I176776J-176776D01*
G01*
G37*
G36*
G01*
X160949999Y-67225001D02*
X161850001Y-67225001D01*
G75*
G02*
X162100000Y-67475000I0J-249999D01*
G01*
X162100000Y-68125002D01*
G75*
G02*
X161850001Y-68375001I-249999J0D01*
G01*
X160949999Y-68375001D01*
G75*
G02*
X160700000Y-68125002I0J249999D01*
G01*
X160700000Y-67475000D01*
G75*
G02*
X160949999Y-67225001I249999J0D01*
G01*
G37*
G36*
G01*
X160949999Y-65175001D02*
X161850001Y-65175001D01*
G75*
G02*
X162100000Y-65425000I0J-249999D01*
G01*
X162100000Y-66075002D01*
G75*
G02*
X161850001Y-66325001I-249999J0D01*
G01*
X160949999Y-66325001D01*
G75*
G02*
X160700000Y-66075002I0J249999D01*
G01*
X160700000Y-65425000D01*
G75*
G02*
X160949999Y-65175001I249999J0D01*
G01*
G37*
G36*
G01*
X101399999Y-69836396D02*
X102036396Y-69199999D01*
G75*
G02*
X102389948Y-69199999I176776J-176776D01*
G01*
X102849569Y-69659620D01*
G75*
G02*
X102849569Y-70013172I-176776J-176776D01*
G01*
X102213172Y-70649569D01*
G75*
G02*
X101859620Y-70649569I-176776J176776D01*
G01*
X101399999Y-70189948D01*
G75*
G02*
X101399999Y-69836396I176776J176776D01*
G01*
G37*
G36*
G01*
X99950431Y-68386828D02*
X100586828Y-67750431D01*
G75*
G02*
X100940380Y-67750431I176776J-176776D01*
G01*
X101400001Y-68210052D01*
G75*
G02*
X101400001Y-68563604I-176776J-176776D01*
G01*
X100763604Y-69200001D01*
G75*
G02*
X100410052Y-69200001I-176776J176776D01*
G01*
X99950431Y-68740380D01*
G75*
G02*
X99950431Y-68386828I176776J176776D01*
G01*
G37*
G36*
G01*
X108349999Y-114250000D02*
X109250001Y-114250000D01*
G75*
G02*
X109500000Y-114499999I0J-249999D01*
G01*
X109500000Y-115150001D01*
G75*
G02*
X109250001Y-115400000I-249999J0D01*
G01*
X108349999Y-115400000D01*
G75*
G02*
X108100000Y-115150001I0J249999D01*
G01*
X108100000Y-114499999D01*
G75*
G02*
X108349999Y-114250000I249999J0D01*
G01*
G37*
G36*
G01*
X108349999Y-112200000D02*
X109250001Y-112200000D01*
G75*
G02*
X109500000Y-112449999I0J-249999D01*
G01*
X109500000Y-113100001D01*
G75*
G02*
X109250001Y-113350000I-249999J0D01*
G01*
X108349999Y-113350000D01*
G75*
G02*
X108100000Y-113100001I0J249999D01*
G01*
X108100000Y-112449999D01*
G75*
G02*
X108349999Y-112200000I249999J0D01*
G01*
G37*
G36*
G01*
X109250001Y-117150000D02*
X108349999Y-117150000D01*
G75*
G02*
X108100000Y-116900001I0J249999D01*
G01*
X108100000Y-116249999D01*
G75*
G02*
X108349999Y-116000000I249999J0D01*
G01*
X109250001Y-116000000D01*
G75*
G02*
X109500000Y-116249999I0J-249999D01*
G01*
X109500000Y-116900001D01*
G75*
G02*
X109250001Y-117150000I-249999J0D01*
G01*
G37*
G36*
G01*
X109250001Y-119200000D02*
X108349999Y-119200000D01*
G75*
G02*
X108100000Y-118950001I0J249999D01*
G01*
X108100000Y-118299999D01*
G75*
G02*
X108349999Y-118050000I249999J0D01*
G01*
X109250001Y-118050000D01*
G75*
G02*
X109500000Y-118299999I0J-249999D01*
G01*
X109500000Y-118950001D01*
G75*
G02*
X109250001Y-119200000I-249999J0D01*
G01*
G37*
D10*
X105000000Y-111750000D03*
X105000000Y-120250000D03*
G36*
G01*
X91175001Y-121949999D02*
X91175001Y-122850001D01*
G75*
G02*
X90925002Y-123100000I-249999J0D01*
G01*
X90275000Y-123100000D01*
G75*
G02*
X90025001Y-122850001I0J249999D01*
G01*
X90025001Y-121949999D01*
G75*
G02*
X90275000Y-121700000I249999J0D01*
G01*
X90925002Y-121700000D01*
G75*
G02*
X91175001Y-121949999I0J-249999D01*
G01*
G37*
G36*
G01*
X89125001Y-121949999D02*
X89125001Y-122850001D01*
G75*
G02*
X88875002Y-123100000I-249999J0D01*
G01*
X88225000Y-123100000D01*
G75*
G02*
X87975001Y-122850001I0J249999D01*
G01*
X87975001Y-121949999D01*
G75*
G02*
X88225000Y-121700000I249999J0D01*
G01*
X88875002Y-121700000D01*
G75*
G02*
X89125001Y-121949999I0J-249999D01*
G01*
G37*
G36*
G01*
X93549999Y-122425001D02*
X94450001Y-122425001D01*
G75*
G02*
X94700000Y-122675000I0J-249999D01*
G01*
X94700000Y-123325002D01*
G75*
G02*
X94450001Y-123575001I-249999J0D01*
G01*
X93549999Y-123575001D01*
G75*
G02*
X93300000Y-123325002I0J249999D01*
G01*
X93300000Y-122675000D01*
G75*
G02*
X93549999Y-122425001I249999J0D01*
G01*
G37*
G36*
G01*
X93549999Y-120375001D02*
X94450001Y-120375001D01*
G75*
G02*
X94700000Y-120625000I0J-249999D01*
G01*
X94700000Y-121275002D01*
G75*
G02*
X94450001Y-121525001I-249999J0D01*
G01*
X93549999Y-121525001D01*
G75*
G02*
X93300000Y-121275002I0J249999D01*
G01*
X93300000Y-120625000D01*
G75*
G02*
X93549999Y-120375001I249999J0D01*
G01*
G37*
G36*
G01*
X95549999Y-122425001D02*
X96450001Y-122425001D01*
G75*
G02*
X96700000Y-122675000I0J-249999D01*
G01*
X96700000Y-123325002D01*
G75*
G02*
X96450001Y-123575001I-249999J0D01*
G01*
X95549999Y-123575001D01*
G75*
G02*
X95300000Y-123325002I0J249999D01*
G01*
X95300000Y-122675000D01*
G75*
G02*
X95549999Y-122425001I249999J0D01*
G01*
G37*
G36*
G01*
X95549999Y-120375001D02*
X96450001Y-120375001D01*
G75*
G02*
X96700000Y-120625000I0J-249999D01*
G01*
X96700000Y-121275002D01*
G75*
G02*
X96450001Y-121525001I-249999J0D01*
G01*
X95549999Y-121525001D01*
G75*
G02*
X95300000Y-121275002I0J249999D01*
G01*
X95300000Y-120625000D01*
G75*
G02*
X95549999Y-120375001I249999J0D01*
G01*
G37*
G36*
G01*
X91175001Y-119949999D02*
X91175001Y-120850001D01*
G75*
G02*
X90925002Y-121100000I-249999J0D01*
G01*
X90275000Y-121100000D01*
G75*
G02*
X90025001Y-120850001I0J249999D01*
G01*
X90025001Y-119949999D01*
G75*
G02*
X90275000Y-119700000I249999J0D01*
G01*
X90925002Y-119700000D01*
G75*
G02*
X91175001Y-119949999I0J-249999D01*
G01*
G37*
G36*
G01*
X89125001Y-119949999D02*
X89125001Y-120850001D01*
G75*
G02*
X88875002Y-121100000I-249999J0D01*
G01*
X88225000Y-121100000D01*
G75*
G02*
X87975001Y-120850001I0J249999D01*
G01*
X87975001Y-119949999D01*
G75*
G02*
X88225000Y-119700000I249999J0D01*
G01*
X88875002Y-119700000D01*
G75*
G02*
X89125001Y-119949999I0J-249999D01*
G01*
G37*
G36*
G01*
X115275000Y-140325000D02*
X115475000Y-140325000D01*
G75*
G02*
X115575000Y-140425000I0J-100000D01*
G01*
X115575000Y-141700000D01*
G75*
G02*
X115475000Y-141800000I-100000J0D01*
G01*
X115275000Y-141800000D01*
G75*
G02*
X115175000Y-141700000I0J100000D01*
G01*
X115175000Y-140425000D01*
G75*
G02*
X115275000Y-140325000I100000J0D01*
G01*
G37*
G36*
G01*
X114625000Y-140325000D02*
X114825000Y-140325000D01*
G75*
G02*
X114925000Y-140425000I0J-100000D01*
G01*
X114925000Y-141700000D01*
G75*
G02*
X114825000Y-141800000I-100000J0D01*
G01*
X114625000Y-141800000D01*
G75*
G02*
X114525000Y-141700000I0J100000D01*
G01*
X114525000Y-140425000D01*
G75*
G02*
X114625000Y-140325000I100000J0D01*
G01*
G37*
G36*
G01*
X113975000Y-140325000D02*
X114175000Y-140325000D01*
G75*
G02*
X114275000Y-140425000I0J-100000D01*
G01*
X114275000Y-141700000D01*
G75*
G02*
X114175000Y-141800000I-100000J0D01*
G01*
X113975000Y-141800000D01*
G75*
G02*
X113875000Y-141700000I0J100000D01*
G01*
X113875000Y-140425000D01*
G75*
G02*
X113975000Y-140325000I100000J0D01*
G01*
G37*
G36*
G01*
X113325000Y-140325000D02*
X113525000Y-140325000D01*
G75*
G02*
X113625000Y-140425000I0J-100000D01*
G01*
X113625000Y-141700000D01*
G75*
G02*
X113525000Y-141800000I-100000J0D01*
G01*
X113325000Y-141800000D01*
G75*
G02*
X113225000Y-141700000I0J100000D01*
G01*
X113225000Y-140425000D01*
G75*
G02*
X113325000Y-140325000I100000J0D01*
G01*
G37*
G36*
G01*
X112675000Y-140325000D02*
X112875000Y-140325000D01*
G75*
G02*
X112975000Y-140425000I0J-100000D01*
G01*
X112975000Y-141700000D01*
G75*
G02*
X112875000Y-141800000I-100000J0D01*
G01*
X112675000Y-141800000D01*
G75*
G02*
X112575000Y-141700000I0J100000D01*
G01*
X112575000Y-140425000D01*
G75*
G02*
X112675000Y-140325000I100000J0D01*
G01*
G37*
G36*
G01*
X112025000Y-140325000D02*
X112225000Y-140325000D01*
G75*
G02*
X112325000Y-140425000I0J-100000D01*
G01*
X112325000Y-141700000D01*
G75*
G02*
X112225000Y-141800000I-100000J0D01*
G01*
X112025000Y-141800000D01*
G75*
G02*
X111925000Y-141700000I0J100000D01*
G01*
X111925000Y-140425000D01*
G75*
G02*
X112025000Y-140325000I100000J0D01*
G01*
G37*
G36*
G01*
X111375000Y-140325000D02*
X111575000Y-140325000D01*
G75*
G02*
X111675000Y-140425000I0J-100000D01*
G01*
X111675000Y-141700000D01*
G75*
G02*
X111575000Y-141800000I-100000J0D01*
G01*
X111375000Y-141800000D01*
G75*
G02*
X111275000Y-141700000I0J100000D01*
G01*
X111275000Y-140425000D01*
G75*
G02*
X111375000Y-140325000I100000J0D01*
G01*
G37*
G36*
G01*
X110725000Y-140325000D02*
X110925000Y-140325000D01*
G75*
G02*
X111025000Y-140425000I0J-100000D01*
G01*
X111025000Y-141700000D01*
G75*
G02*
X110925000Y-141800000I-100000J0D01*
G01*
X110725000Y-141800000D01*
G75*
G02*
X110625000Y-141700000I0J100000D01*
G01*
X110625000Y-140425000D01*
G75*
G02*
X110725000Y-140325000I100000J0D01*
G01*
G37*
G36*
G01*
X110075000Y-140325000D02*
X110275000Y-140325000D01*
G75*
G02*
X110375000Y-140425000I0J-100000D01*
G01*
X110375000Y-141700000D01*
G75*
G02*
X110275000Y-141800000I-100000J0D01*
G01*
X110075000Y-141800000D01*
G75*
G02*
X109975000Y-141700000I0J100000D01*
G01*
X109975000Y-140425000D01*
G75*
G02*
X110075000Y-140325000I100000J0D01*
G01*
G37*
G36*
G01*
X109425000Y-140325000D02*
X109625000Y-140325000D01*
G75*
G02*
X109725000Y-140425000I0J-100000D01*
G01*
X109725000Y-141700000D01*
G75*
G02*
X109625000Y-141800000I-100000J0D01*
G01*
X109425000Y-141800000D01*
G75*
G02*
X109325000Y-141700000I0J100000D01*
G01*
X109325000Y-140425000D01*
G75*
G02*
X109425000Y-140325000I100000J0D01*
G01*
G37*
G36*
G01*
X108775000Y-140325000D02*
X108975000Y-140325000D01*
G75*
G02*
X109075000Y-140425000I0J-100000D01*
G01*
X109075000Y-141700000D01*
G75*
G02*
X108975000Y-141800000I-100000J0D01*
G01*
X108775000Y-141800000D01*
G75*
G02*
X108675000Y-141700000I0J100000D01*
G01*
X108675000Y-140425000D01*
G75*
G02*
X108775000Y-140325000I100000J0D01*
G01*
G37*
G36*
G01*
X108125000Y-140325000D02*
X108325000Y-140325000D01*
G75*
G02*
X108425000Y-140425000I0J-100000D01*
G01*
X108425000Y-141700000D01*
G75*
G02*
X108325000Y-141800000I-100000J0D01*
G01*
X108125000Y-141800000D01*
G75*
G02*
X108025000Y-141700000I0J100000D01*
G01*
X108025000Y-140425000D01*
G75*
G02*
X108125000Y-140325000I100000J0D01*
G01*
G37*
G36*
G01*
X108125000Y-134600000D02*
X108325000Y-134600000D01*
G75*
G02*
X108425000Y-134700000I0J-100000D01*
G01*
X108425000Y-135975000D01*
G75*
G02*
X108325000Y-136075000I-100000J0D01*
G01*
X108125000Y-136075000D01*
G75*
G02*
X108025000Y-135975000I0J100000D01*
G01*
X108025000Y-134700000D01*
G75*
G02*
X108125000Y-134600000I100000J0D01*
G01*
G37*
G36*
G01*
X108775000Y-134600000D02*
X108975000Y-134600000D01*
G75*
G02*
X109075000Y-134700000I0J-100000D01*
G01*
X109075000Y-135975000D01*
G75*
G02*
X108975000Y-136075000I-100000J0D01*
G01*
X108775000Y-136075000D01*
G75*
G02*
X108675000Y-135975000I0J100000D01*
G01*
X108675000Y-134700000D01*
G75*
G02*
X108775000Y-134600000I100000J0D01*
G01*
G37*
G36*
G01*
X109425000Y-134600000D02*
X109625000Y-134600000D01*
G75*
G02*
X109725000Y-134700000I0J-100000D01*
G01*
X109725000Y-135975000D01*
G75*
G02*
X109625000Y-136075000I-100000J0D01*
G01*
X109425000Y-136075000D01*
G75*
G02*
X109325000Y-135975000I0J100000D01*
G01*
X109325000Y-134700000D01*
G75*
G02*
X109425000Y-134600000I100000J0D01*
G01*
G37*
G36*
G01*
X110075000Y-134600000D02*
X110275000Y-134600000D01*
G75*
G02*
X110375000Y-134700000I0J-100000D01*
G01*
X110375000Y-135975000D01*
G75*
G02*
X110275000Y-136075000I-100000J0D01*
G01*
X110075000Y-136075000D01*
G75*
G02*
X109975000Y-135975000I0J100000D01*
G01*
X109975000Y-134700000D01*
G75*
G02*
X110075000Y-134600000I100000J0D01*
G01*
G37*
G36*
G01*
X110725000Y-134600000D02*
X110925000Y-134600000D01*
G75*
G02*
X111025000Y-134700000I0J-100000D01*
G01*
X111025000Y-135975000D01*
G75*
G02*
X110925000Y-136075000I-100000J0D01*
G01*
X110725000Y-136075000D01*
G75*
G02*
X110625000Y-135975000I0J100000D01*
G01*
X110625000Y-134700000D01*
G75*
G02*
X110725000Y-134600000I100000J0D01*
G01*
G37*
G36*
G01*
X111375000Y-134600000D02*
X111575000Y-134600000D01*
G75*
G02*
X111675000Y-134700000I0J-100000D01*
G01*
X111675000Y-135975000D01*
G75*
G02*
X111575000Y-136075000I-100000J0D01*
G01*
X111375000Y-136075000D01*
G75*
G02*
X111275000Y-135975000I0J100000D01*
G01*
X111275000Y-134700000D01*
G75*
G02*
X111375000Y-134600000I100000J0D01*
G01*
G37*
G36*
G01*
X112025000Y-134600000D02*
X112225000Y-134600000D01*
G75*
G02*
X112325000Y-134700000I0J-100000D01*
G01*
X112325000Y-135975000D01*
G75*
G02*
X112225000Y-136075000I-100000J0D01*
G01*
X112025000Y-136075000D01*
G75*
G02*
X111925000Y-135975000I0J100000D01*
G01*
X111925000Y-134700000D01*
G75*
G02*
X112025000Y-134600000I100000J0D01*
G01*
G37*
G36*
G01*
X112675000Y-134600000D02*
X112875000Y-134600000D01*
G75*
G02*
X112975000Y-134700000I0J-100000D01*
G01*
X112975000Y-135975000D01*
G75*
G02*
X112875000Y-136075000I-100000J0D01*
G01*
X112675000Y-136075000D01*
G75*
G02*
X112575000Y-135975000I0J100000D01*
G01*
X112575000Y-134700000D01*
G75*
G02*
X112675000Y-134600000I100000J0D01*
G01*
G37*
G36*
G01*
X113325000Y-134600000D02*
X113525000Y-134600000D01*
G75*
G02*
X113625000Y-134700000I0J-100000D01*
G01*
X113625000Y-135975000D01*
G75*
G02*
X113525000Y-136075000I-100000J0D01*
G01*
X113325000Y-136075000D01*
G75*
G02*
X113225000Y-135975000I0J100000D01*
G01*
X113225000Y-134700000D01*
G75*
G02*
X113325000Y-134600000I100000J0D01*
G01*
G37*
G36*
G01*
X113975000Y-134600000D02*
X114175000Y-134600000D01*
G75*
G02*
X114275000Y-134700000I0J-100000D01*
G01*
X114275000Y-135975000D01*
G75*
G02*
X114175000Y-136075000I-100000J0D01*
G01*
X113975000Y-136075000D01*
G75*
G02*
X113875000Y-135975000I0J100000D01*
G01*
X113875000Y-134700000D01*
G75*
G02*
X113975000Y-134600000I100000J0D01*
G01*
G37*
G36*
G01*
X114625000Y-134600000D02*
X114825000Y-134600000D01*
G75*
G02*
X114925000Y-134700000I0J-100000D01*
G01*
X114925000Y-135975000D01*
G75*
G02*
X114825000Y-136075000I-100000J0D01*
G01*
X114625000Y-136075000D01*
G75*
G02*
X114525000Y-135975000I0J100000D01*
G01*
X114525000Y-134700000D01*
G75*
G02*
X114625000Y-134600000I100000J0D01*
G01*
G37*
G36*
G01*
X115275000Y-134600000D02*
X115475000Y-134600000D01*
G75*
G02*
X115575000Y-134700000I0J-100000D01*
G01*
X115575000Y-135975000D01*
G75*
G02*
X115475000Y-136075000I-100000J0D01*
G01*
X115275000Y-136075000D01*
G75*
G02*
X115175000Y-135975000I0J100000D01*
G01*
X115175000Y-134700000D01*
G75*
G02*
X115275000Y-134600000I100000J0D01*
G01*
G37*
G36*
G01*
X172025000Y-140125000D02*
X172225000Y-140125000D01*
G75*
G02*
X172325000Y-140225000I0J-100000D01*
G01*
X172325000Y-141500000D01*
G75*
G02*
X172225000Y-141600000I-100000J0D01*
G01*
X172025000Y-141600000D01*
G75*
G02*
X171925000Y-141500000I0J100000D01*
G01*
X171925000Y-140225000D01*
G75*
G02*
X172025000Y-140125000I100000J0D01*
G01*
G37*
G36*
G01*
X171375000Y-140125000D02*
X171575000Y-140125000D01*
G75*
G02*
X171675000Y-140225000I0J-100000D01*
G01*
X171675000Y-141500000D01*
G75*
G02*
X171575000Y-141600000I-100000J0D01*
G01*
X171375000Y-141600000D01*
G75*
G02*
X171275000Y-141500000I0J100000D01*
G01*
X171275000Y-140225000D01*
G75*
G02*
X171375000Y-140125000I100000J0D01*
G01*
G37*
G36*
G01*
X170725000Y-140125000D02*
X170925000Y-140125000D01*
G75*
G02*
X171025000Y-140225000I0J-100000D01*
G01*
X171025000Y-141500000D01*
G75*
G02*
X170925000Y-141600000I-100000J0D01*
G01*
X170725000Y-141600000D01*
G75*
G02*
X170625000Y-141500000I0J100000D01*
G01*
X170625000Y-140225000D01*
G75*
G02*
X170725000Y-140125000I100000J0D01*
G01*
G37*
G36*
G01*
X170075000Y-140125000D02*
X170275000Y-140125000D01*
G75*
G02*
X170375000Y-140225000I0J-100000D01*
G01*
X170375000Y-141500000D01*
G75*
G02*
X170275000Y-141600000I-100000J0D01*
G01*
X170075000Y-141600000D01*
G75*
G02*
X169975000Y-141500000I0J100000D01*
G01*
X169975000Y-140225000D01*
G75*
G02*
X170075000Y-140125000I100000J0D01*
G01*
G37*
G36*
G01*
X169425000Y-140125000D02*
X169625000Y-140125000D01*
G75*
G02*
X169725000Y-140225000I0J-100000D01*
G01*
X169725000Y-141500000D01*
G75*
G02*
X169625000Y-141600000I-100000J0D01*
G01*
X169425000Y-141600000D01*
G75*
G02*
X169325000Y-141500000I0J100000D01*
G01*
X169325000Y-140225000D01*
G75*
G02*
X169425000Y-140125000I100000J0D01*
G01*
G37*
G36*
G01*
X168775000Y-140125000D02*
X168975000Y-140125000D01*
G75*
G02*
X169075000Y-140225000I0J-100000D01*
G01*
X169075000Y-141500000D01*
G75*
G02*
X168975000Y-141600000I-100000J0D01*
G01*
X168775000Y-141600000D01*
G75*
G02*
X168675000Y-141500000I0J100000D01*
G01*
X168675000Y-140225000D01*
G75*
G02*
X168775000Y-140125000I100000J0D01*
G01*
G37*
G36*
G01*
X168125000Y-140125000D02*
X168325000Y-140125000D01*
G75*
G02*
X168425000Y-140225000I0J-100000D01*
G01*
X168425000Y-141500000D01*
G75*
G02*
X168325000Y-141600000I-100000J0D01*
G01*
X168125000Y-141600000D01*
G75*
G02*
X168025000Y-141500000I0J100000D01*
G01*
X168025000Y-140225000D01*
G75*
G02*
X168125000Y-140125000I100000J0D01*
G01*
G37*
G36*
G01*
X167475000Y-140125000D02*
X167675000Y-140125000D01*
G75*
G02*
X167775000Y-140225000I0J-100000D01*
G01*
X167775000Y-141500000D01*
G75*
G02*
X167675000Y-141600000I-100000J0D01*
G01*
X167475000Y-141600000D01*
G75*
G02*
X167375000Y-141500000I0J100000D01*
G01*
X167375000Y-140225000D01*
G75*
G02*
X167475000Y-140125000I100000J0D01*
G01*
G37*
G36*
G01*
X166825000Y-140125000D02*
X167025000Y-140125000D01*
G75*
G02*
X167125000Y-140225000I0J-100000D01*
G01*
X167125000Y-141500000D01*
G75*
G02*
X167025000Y-141600000I-100000J0D01*
G01*
X166825000Y-141600000D01*
G75*
G02*
X166725000Y-141500000I0J100000D01*
G01*
X166725000Y-140225000D01*
G75*
G02*
X166825000Y-140125000I100000J0D01*
G01*
G37*
G36*
G01*
X166175000Y-140125000D02*
X166375000Y-140125000D01*
G75*
G02*
X166475000Y-140225000I0J-100000D01*
G01*
X166475000Y-141500000D01*
G75*
G02*
X166375000Y-141600000I-100000J0D01*
G01*
X166175000Y-141600000D01*
G75*
G02*
X166075000Y-141500000I0J100000D01*
G01*
X166075000Y-140225000D01*
G75*
G02*
X166175000Y-140125000I100000J0D01*
G01*
G37*
G36*
G01*
X165525000Y-140125000D02*
X165725000Y-140125000D01*
G75*
G02*
X165825000Y-140225000I0J-100000D01*
G01*
X165825000Y-141500000D01*
G75*
G02*
X165725000Y-141600000I-100000J0D01*
G01*
X165525000Y-141600000D01*
G75*
G02*
X165425000Y-141500000I0J100000D01*
G01*
X165425000Y-140225000D01*
G75*
G02*
X165525000Y-140125000I100000J0D01*
G01*
G37*
G36*
G01*
X164875000Y-140125000D02*
X165075000Y-140125000D01*
G75*
G02*
X165175000Y-140225000I0J-100000D01*
G01*
X165175000Y-141500000D01*
G75*
G02*
X165075000Y-141600000I-100000J0D01*
G01*
X164875000Y-141600000D01*
G75*
G02*
X164775000Y-141500000I0J100000D01*
G01*
X164775000Y-140225000D01*
G75*
G02*
X164875000Y-140125000I100000J0D01*
G01*
G37*
G36*
G01*
X164875000Y-134400000D02*
X165075000Y-134400000D01*
G75*
G02*
X165175000Y-134500000I0J-100000D01*
G01*
X165175000Y-135775000D01*
G75*
G02*
X165075000Y-135875000I-100000J0D01*
G01*
X164875000Y-135875000D01*
G75*
G02*
X164775000Y-135775000I0J100000D01*
G01*
X164775000Y-134500000D01*
G75*
G02*
X164875000Y-134400000I100000J0D01*
G01*
G37*
G36*
G01*
X165525000Y-134400000D02*
X165725000Y-134400000D01*
G75*
G02*
X165825000Y-134500000I0J-100000D01*
G01*
X165825000Y-135775000D01*
G75*
G02*
X165725000Y-135875000I-100000J0D01*
G01*
X165525000Y-135875000D01*
G75*
G02*
X165425000Y-135775000I0J100000D01*
G01*
X165425000Y-134500000D01*
G75*
G02*
X165525000Y-134400000I100000J0D01*
G01*
G37*
G36*
G01*
X166175000Y-134400000D02*
X166375000Y-134400000D01*
G75*
G02*
X166475000Y-134500000I0J-100000D01*
G01*
X166475000Y-135775000D01*
G75*
G02*
X166375000Y-135875000I-100000J0D01*
G01*
X166175000Y-135875000D01*
G75*
G02*
X166075000Y-135775000I0J100000D01*
G01*
X166075000Y-134500000D01*
G75*
G02*
X166175000Y-134400000I100000J0D01*
G01*
G37*
G36*
G01*
X166825000Y-134400000D02*
X167025000Y-134400000D01*
G75*
G02*
X167125000Y-134500000I0J-100000D01*
G01*
X167125000Y-135775000D01*
G75*
G02*
X167025000Y-135875000I-100000J0D01*
G01*
X166825000Y-135875000D01*
G75*
G02*
X166725000Y-135775000I0J100000D01*
G01*
X166725000Y-134500000D01*
G75*
G02*
X166825000Y-134400000I100000J0D01*
G01*
G37*
G36*
G01*
X167475000Y-134400000D02*
X167675000Y-134400000D01*
G75*
G02*
X167775000Y-134500000I0J-100000D01*
G01*
X167775000Y-135775000D01*
G75*
G02*
X167675000Y-135875000I-100000J0D01*
G01*
X167475000Y-135875000D01*
G75*
G02*
X167375000Y-135775000I0J100000D01*
G01*
X167375000Y-134500000D01*
G75*
G02*
X167475000Y-134400000I100000J0D01*
G01*
G37*
G36*
G01*
X168125000Y-134400000D02*
X168325000Y-134400000D01*
G75*
G02*
X168425000Y-134500000I0J-100000D01*
G01*
X168425000Y-135775000D01*
G75*
G02*
X168325000Y-135875000I-100000J0D01*
G01*
X168125000Y-135875000D01*
G75*
G02*
X168025000Y-135775000I0J100000D01*
G01*
X168025000Y-134500000D01*
G75*
G02*
X168125000Y-134400000I100000J0D01*
G01*
G37*
G36*
G01*
X168775000Y-134400000D02*
X168975000Y-134400000D01*
G75*
G02*
X169075000Y-134500000I0J-100000D01*
G01*
X169075000Y-135775000D01*
G75*
G02*
X168975000Y-135875000I-100000J0D01*
G01*
X168775000Y-135875000D01*
G75*
G02*
X168675000Y-135775000I0J100000D01*
G01*
X168675000Y-134500000D01*
G75*
G02*
X168775000Y-134400000I100000J0D01*
G01*
G37*
G36*
G01*
X169425000Y-134400000D02*
X169625000Y-134400000D01*
G75*
G02*
X169725000Y-134500000I0J-100000D01*
G01*
X169725000Y-135775000D01*
G75*
G02*
X169625000Y-135875000I-100000J0D01*
G01*
X169425000Y-135875000D01*
G75*
G02*
X169325000Y-135775000I0J100000D01*
G01*
X169325000Y-134500000D01*
G75*
G02*
X169425000Y-134400000I100000J0D01*
G01*
G37*
G36*
G01*
X170075000Y-134400000D02*
X170275000Y-134400000D01*
G75*
G02*
X170375000Y-134500000I0J-100000D01*
G01*
X170375000Y-135775000D01*
G75*
G02*
X170275000Y-135875000I-100000J0D01*
G01*
X170075000Y-135875000D01*
G75*
G02*
X169975000Y-135775000I0J100000D01*
G01*
X169975000Y-134500000D01*
G75*
G02*
X170075000Y-134400000I100000J0D01*
G01*
G37*
G36*
G01*
X170725000Y-134400000D02*
X170925000Y-134400000D01*
G75*
G02*
X171025000Y-134500000I0J-100000D01*
G01*
X171025000Y-135775000D01*
G75*
G02*
X170925000Y-135875000I-100000J0D01*
G01*
X170725000Y-135875000D01*
G75*
G02*
X170625000Y-135775000I0J100000D01*
G01*
X170625000Y-134500000D01*
G75*
G02*
X170725000Y-134400000I100000J0D01*
G01*
G37*
G36*
G01*
X171375000Y-134400000D02*
X171575000Y-134400000D01*
G75*
G02*
X171675000Y-134500000I0J-100000D01*
G01*
X171675000Y-135775000D01*
G75*
G02*
X171575000Y-135875000I-100000J0D01*
G01*
X171375000Y-135875000D01*
G75*
G02*
X171275000Y-135775000I0J100000D01*
G01*
X171275000Y-134500000D01*
G75*
G02*
X171375000Y-134400000I100000J0D01*
G01*
G37*
G36*
G01*
X172025000Y-134400000D02*
X172225000Y-134400000D01*
G75*
G02*
X172325000Y-134500000I0J-100000D01*
G01*
X172325000Y-135775000D01*
G75*
G02*
X172225000Y-135875000I-100000J0D01*
G01*
X172025000Y-135875000D01*
G75*
G02*
X171925000Y-135775000I0J100000D01*
G01*
X171925000Y-134500000D01*
G75*
G02*
X172025000Y-134400000I100000J0D01*
G01*
G37*
G36*
G01*
X217125000Y-126525000D02*
X217125000Y-126325000D01*
G75*
G02*
X217225000Y-126225000I100000J0D01*
G01*
X218500000Y-126225000D01*
G75*
G02*
X218600000Y-126325000I0J-100000D01*
G01*
X218600000Y-126525000D01*
G75*
G02*
X218500000Y-126625000I-100000J0D01*
G01*
X217225000Y-126625000D01*
G75*
G02*
X217125000Y-126525000I0J100000D01*
G01*
G37*
G36*
G01*
X217125000Y-127175000D02*
X217125000Y-126975000D01*
G75*
G02*
X217225000Y-126875000I100000J0D01*
G01*
X218500000Y-126875000D01*
G75*
G02*
X218600000Y-126975000I0J-100000D01*
G01*
X218600000Y-127175000D01*
G75*
G02*
X218500000Y-127275000I-100000J0D01*
G01*
X217225000Y-127275000D01*
G75*
G02*
X217125000Y-127175000I0J100000D01*
G01*
G37*
G36*
G01*
X217125000Y-127825000D02*
X217125000Y-127625000D01*
G75*
G02*
X217225000Y-127525000I100000J0D01*
G01*
X218500000Y-127525000D01*
G75*
G02*
X218600000Y-127625000I0J-100000D01*
G01*
X218600000Y-127825000D01*
G75*
G02*
X218500000Y-127925000I-100000J0D01*
G01*
X217225000Y-127925000D01*
G75*
G02*
X217125000Y-127825000I0J100000D01*
G01*
G37*
G36*
G01*
X217125000Y-128475000D02*
X217125000Y-128275000D01*
G75*
G02*
X217225000Y-128175000I100000J0D01*
G01*
X218500000Y-128175000D01*
G75*
G02*
X218600000Y-128275000I0J-100000D01*
G01*
X218600000Y-128475000D01*
G75*
G02*
X218500000Y-128575000I-100000J0D01*
G01*
X217225000Y-128575000D01*
G75*
G02*
X217125000Y-128475000I0J100000D01*
G01*
G37*
G36*
G01*
X217125000Y-129125000D02*
X217125000Y-128925000D01*
G75*
G02*
X217225000Y-128825000I100000J0D01*
G01*
X218500000Y-128825000D01*
G75*
G02*
X218600000Y-128925000I0J-100000D01*
G01*
X218600000Y-129125000D01*
G75*
G02*
X218500000Y-129225000I-100000J0D01*
G01*
X217225000Y-129225000D01*
G75*
G02*
X217125000Y-129125000I0J100000D01*
G01*
G37*
G36*
G01*
X217125000Y-129775000D02*
X217125000Y-129575000D01*
G75*
G02*
X217225000Y-129475000I100000J0D01*
G01*
X218500000Y-129475000D01*
G75*
G02*
X218600000Y-129575000I0J-100000D01*
G01*
X218600000Y-129775000D01*
G75*
G02*
X218500000Y-129875000I-100000J0D01*
G01*
X217225000Y-129875000D01*
G75*
G02*
X217125000Y-129775000I0J100000D01*
G01*
G37*
G36*
G01*
X217125000Y-130425000D02*
X217125000Y-130225000D01*
G75*
G02*
X217225000Y-130125000I100000J0D01*
G01*
X218500000Y-130125000D01*
G75*
G02*
X218600000Y-130225000I0J-100000D01*
G01*
X218600000Y-130425000D01*
G75*
G02*
X218500000Y-130525000I-100000J0D01*
G01*
X217225000Y-130525000D01*
G75*
G02*
X217125000Y-130425000I0J100000D01*
G01*
G37*
G36*
G01*
X217125000Y-131075000D02*
X217125000Y-130875000D01*
G75*
G02*
X217225000Y-130775000I100000J0D01*
G01*
X218500000Y-130775000D01*
G75*
G02*
X218600000Y-130875000I0J-100000D01*
G01*
X218600000Y-131075000D01*
G75*
G02*
X218500000Y-131175000I-100000J0D01*
G01*
X217225000Y-131175000D01*
G75*
G02*
X217125000Y-131075000I0J100000D01*
G01*
G37*
G36*
G01*
X217125000Y-131725000D02*
X217125000Y-131525000D01*
G75*
G02*
X217225000Y-131425000I100000J0D01*
G01*
X218500000Y-131425000D01*
G75*
G02*
X218600000Y-131525000I0J-100000D01*
G01*
X218600000Y-131725000D01*
G75*
G02*
X218500000Y-131825000I-100000J0D01*
G01*
X217225000Y-131825000D01*
G75*
G02*
X217125000Y-131725000I0J100000D01*
G01*
G37*
G36*
G01*
X217125000Y-132375000D02*
X217125000Y-132175000D01*
G75*
G02*
X217225000Y-132075000I100000J0D01*
G01*
X218500000Y-132075000D01*
G75*
G02*
X218600000Y-132175000I0J-100000D01*
G01*
X218600000Y-132375000D01*
G75*
G02*
X218500000Y-132475000I-100000J0D01*
G01*
X217225000Y-132475000D01*
G75*
G02*
X217125000Y-132375000I0J100000D01*
G01*
G37*
G36*
G01*
X217125000Y-133025000D02*
X217125000Y-132825000D01*
G75*
G02*
X217225000Y-132725000I100000J0D01*
G01*
X218500000Y-132725000D01*
G75*
G02*
X218600000Y-132825000I0J-100000D01*
G01*
X218600000Y-133025000D01*
G75*
G02*
X218500000Y-133125000I-100000J0D01*
G01*
X217225000Y-133125000D01*
G75*
G02*
X217125000Y-133025000I0J100000D01*
G01*
G37*
G36*
G01*
X217125000Y-133675000D02*
X217125000Y-133475000D01*
G75*
G02*
X217225000Y-133375000I100000J0D01*
G01*
X218500000Y-133375000D01*
G75*
G02*
X218600000Y-133475000I0J-100000D01*
G01*
X218600000Y-133675000D01*
G75*
G02*
X218500000Y-133775000I-100000J0D01*
G01*
X217225000Y-133775000D01*
G75*
G02*
X217125000Y-133675000I0J100000D01*
G01*
G37*
G36*
G01*
X211400000Y-133675000D02*
X211400000Y-133475000D01*
G75*
G02*
X211500000Y-133375000I100000J0D01*
G01*
X212775000Y-133375000D01*
G75*
G02*
X212875000Y-133475000I0J-100000D01*
G01*
X212875000Y-133675000D01*
G75*
G02*
X212775000Y-133775000I-100000J0D01*
G01*
X211500000Y-133775000D01*
G75*
G02*
X211400000Y-133675000I0J100000D01*
G01*
G37*
G36*
G01*
X211400000Y-133025000D02*
X211400000Y-132825000D01*
G75*
G02*
X211500000Y-132725000I100000J0D01*
G01*
X212775000Y-132725000D01*
G75*
G02*
X212875000Y-132825000I0J-100000D01*
G01*
X212875000Y-133025000D01*
G75*
G02*
X212775000Y-133125000I-100000J0D01*
G01*
X211500000Y-133125000D01*
G75*
G02*
X211400000Y-133025000I0J100000D01*
G01*
G37*
G36*
G01*
X211400000Y-132375000D02*
X211400000Y-132175000D01*
G75*
G02*
X211500000Y-132075000I100000J0D01*
G01*
X212775000Y-132075000D01*
G75*
G02*
X212875000Y-132175000I0J-100000D01*
G01*
X212875000Y-132375000D01*
G75*
G02*
X212775000Y-132475000I-100000J0D01*
G01*
X211500000Y-132475000D01*
G75*
G02*
X211400000Y-132375000I0J100000D01*
G01*
G37*
G36*
G01*
X211400000Y-131725000D02*
X211400000Y-131525000D01*
G75*
G02*
X211500000Y-131425000I100000J0D01*
G01*
X212775000Y-131425000D01*
G75*
G02*
X212875000Y-131525000I0J-100000D01*
G01*
X212875000Y-131725000D01*
G75*
G02*
X212775000Y-131825000I-100000J0D01*
G01*
X211500000Y-131825000D01*
G75*
G02*
X211400000Y-131725000I0J100000D01*
G01*
G37*
G36*
G01*
X211400000Y-131075000D02*
X211400000Y-130875000D01*
G75*
G02*
X211500000Y-130775000I100000J0D01*
G01*
X212775000Y-130775000D01*
G75*
G02*
X212875000Y-130875000I0J-100000D01*
G01*
X212875000Y-131075000D01*
G75*
G02*
X212775000Y-131175000I-100000J0D01*
G01*
X211500000Y-131175000D01*
G75*
G02*
X211400000Y-131075000I0J100000D01*
G01*
G37*
G36*
G01*
X211400000Y-130425000D02*
X211400000Y-130225000D01*
G75*
G02*
X211500000Y-130125000I100000J0D01*
G01*
X212775000Y-130125000D01*
G75*
G02*
X212875000Y-130225000I0J-100000D01*
G01*
X212875000Y-130425000D01*
G75*
G02*
X212775000Y-130525000I-100000J0D01*
G01*
X211500000Y-130525000D01*
G75*
G02*
X211400000Y-130425000I0J100000D01*
G01*
G37*
G36*
G01*
X211400000Y-129775000D02*
X211400000Y-129575000D01*
G75*
G02*
X211500000Y-129475000I100000J0D01*
G01*
X212775000Y-129475000D01*
G75*
G02*
X212875000Y-129575000I0J-100000D01*
G01*
X212875000Y-129775000D01*
G75*
G02*
X212775000Y-129875000I-100000J0D01*
G01*
X211500000Y-129875000D01*
G75*
G02*
X211400000Y-129775000I0J100000D01*
G01*
G37*
G36*
G01*
X211400000Y-129125000D02*
X211400000Y-128925000D01*
G75*
G02*
X211500000Y-128825000I100000J0D01*
G01*
X212775000Y-128825000D01*
G75*
G02*
X212875000Y-128925000I0J-100000D01*
G01*
X212875000Y-129125000D01*
G75*
G02*
X212775000Y-129225000I-100000J0D01*
G01*
X211500000Y-129225000D01*
G75*
G02*
X211400000Y-129125000I0J100000D01*
G01*
G37*
G36*
G01*
X211400000Y-128475000D02*
X211400000Y-128275000D01*
G75*
G02*
X211500000Y-128175000I100000J0D01*
G01*
X212775000Y-128175000D01*
G75*
G02*
X212875000Y-128275000I0J-100000D01*
G01*
X212875000Y-128475000D01*
G75*
G02*
X212775000Y-128575000I-100000J0D01*
G01*
X211500000Y-128575000D01*
G75*
G02*
X211400000Y-128475000I0J100000D01*
G01*
G37*
G36*
G01*
X211400000Y-127825000D02*
X211400000Y-127625000D01*
G75*
G02*
X211500000Y-127525000I100000J0D01*
G01*
X212775000Y-127525000D01*
G75*
G02*
X212875000Y-127625000I0J-100000D01*
G01*
X212875000Y-127825000D01*
G75*
G02*
X212775000Y-127925000I-100000J0D01*
G01*
X211500000Y-127925000D01*
G75*
G02*
X211400000Y-127825000I0J100000D01*
G01*
G37*
G36*
G01*
X211400000Y-127175000D02*
X211400000Y-126975000D01*
G75*
G02*
X211500000Y-126875000I100000J0D01*
G01*
X212775000Y-126875000D01*
G75*
G02*
X212875000Y-126975000I0J-100000D01*
G01*
X212875000Y-127175000D01*
G75*
G02*
X212775000Y-127275000I-100000J0D01*
G01*
X211500000Y-127275000D01*
G75*
G02*
X211400000Y-127175000I0J100000D01*
G01*
G37*
G36*
G01*
X211400000Y-126525000D02*
X211400000Y-126325000D01*
G75*
G02*
X211500000Y-126225000I100000J0D01*
G01*
X212775000Y-126225000D01*
G75*
G02*
X212875000Y-126325000I0J-100000D01*
G01*
X212875000Y-126525000D01*
G75*
G02*
X212775000Y-126625000I-100000J0D01*
G01*
X211500000Y-126625000D01*
G75*
G02*
X211400000Y-126525000I0J100000D01*
G01*
G37*
G36*
G01*
X222525000Y-97325000D02*
X222525000Y-97125000D01*
G75*
G02*
X222625000Y-97025000I100000J0D01*
G01*
X223900000Y-97025000D01*
G75*
G02*
X224000000Y-97125000I0J-100000D01*
G01*
X224000000Y-97325000D01*
G75*
G02*
X223900000Y-97425000I-100000J0D01*
G01*
X222625000Y-97425000D01*
G75*
G02*
X222525000Y-97325000I0J100000D01*
G01*
G37*
G36*
G01*
X222525000Y-97975000D02*
X222525000Y-97775000D01*
G75*
G02*
X222625000Y-97675000I100000J0D01*
G01*
X223900000Y-97675000D01*
G75*
G02*
X224000000Y-97775000I0J-100000D01*
G01*
X224000000Y-97975000D01*
G75*
G02*
X223900000Y-98075000I-100000J0D01*
G01*
X222625000Y-98075000D01*
G75*
G02*
X222525000Y-97975000I0J100000D01*
G01*
G37*
G36*
G01*
X222525000Y-98625000D02*
X222525000Y-98425000D01*
G75*
G02*
X222625000Y-98325000I100000J0D01*
G01*
X223900000Y-98325000D01*
G75*
G02*
X224000000Y-98425000I0J-100000D01*
G01*
X224000000Y-98625000D01*
G75*
G02*
X223900000Y-98725000I-100000J0D01*
G01*
X222625000Y-98725000D01*
G75*
G02*
X222525000Y-98625000I0J100000D01*
G01*
G37*
G36*
G01*
X222525000Y-99275000D02*
X222525000Y-99075000D01*
G75*
G02*
X222625000Y-98975000I100000J0D01*
G01*
X223900000Y-98975000D01*
G75*
G02*
X224000000Y-99075000I0J-100000D01*
G01*
X224000000Y-99275000D01*
G75*
G02*
X223900000Y-99375000I-100000J0D01*
G01*
X222625000Y-99375000D01*
G75*
G02*
X222525000Y-99275000I0J100000D01*
G01*
G37*
G36*
G01*
X222525000Y-99925000D02*
X222525000Y-99725000D01*
G75*
G02*
X222625000Y-99625000I100000J0D01*
G01*
X223900000Y-99625000D01*
G75*
G02*
X224000000Y-99725000I0J-100000D01*
G01*
X224000000Y-99925000D01*
G75*
G02*
X223900000Y-100025000I-100000J0D01*
G01*
X222625000Y-100025000D01*
G75*
G02*
X222525000Y-99925000I0J100000D01*
G01*
G37*
G36*
G01*
X222525000Y-100575000D02*
X222525000Y-100375000D01*
G75*
G02*
X222625000Y-100275000I100000J0D01*
G01*
X223900000Y-100275000D01*
G75*
G02*
X224000000Y-100375000I0J-100000D01*
G01*
X224000000Y-100575000D01*
G75*
G02*
X223900000Y-100675000I-100000J0D01*
G01*
X222625000Y-100675000D01*
G75*
G02*
X222525000Y-100575000I0J100000D01*
G01*
G37*
G36*
G01*
X222525000Y-101225000D02*
X222525000Y-101025000D01*
G75*
G02*
X222625000Y-100925000I100000J0D01*
G01*
X223900000Y-100925000D01*
G75*
G02*
X224000000Y-101025000I0J-100000D01*
G01*
X224000000Y-101225000D01*
G75*
G02*
X223900000Y-101325000I-100000J0D01*
G01*
X222625000Y-101325000D01*
G75*
G02*
X222525000Y-101225000I0J100000D01*
G01*
G37*
G36*
G01*
X222525000Y-101875000D02*
X222525000Y-101675000D01*
G75*
G02*
X222625000Y-101575000I100000J0D01*
G01*
X223900000Y-101575000D01*
G75*
G02*
X224000000Y-101675000I0J-100000D01*
G01*
X224000000Y-101875000D01*
G75*
G02*
X223900000Y-101975000I-100000J0D01*
G01*
X222625000Y-101975000D01*
G75*
G02*
X222525000Y-101875000I0J100000D01*
G01*
G37*
G36*
G01*
X222525000Y-102525000D02*
X222525000Y-102325000D01*
G75*
G02*
X222625000Y-102225000I100000J0D01*
G01*
X223900000Y-102225000D01*
G75*
G02*
X224000000Y-102325000I0J-100000D01*
G01*
X224000000Y-102525000D01*
G75*
G02*
X223900000Y-102625000I-100000J0D01*
G01*
X222625000Y-102625000D01*
G75*
G02*
X222525000Y-102525000I0J100000D01*
G01*
G37*
G36*
G01*
X222525000Y-103175000D02*
X222525000Y-102975000D01*
G75*
G02*
X222625000Y-102875000I100000J0D01*
G01*
X223900000Y-102875000D01*
G75*
G02*
X224000000Y-102975000I0J-100000D01*
G01*
X224000000Y-103175000D01*
G75*
G02*
X223900000Y-103275000I-100000J0D01*
G01*
X222625000Y-103275000D01*
G75*
G02*
X222525000Y-103175000I0J100000D01*
G01*
G37*
G36*
G01*
X222525000Y-103825000D02*
X222525000Y-103625000D01*
G75*
G02*
X222625000Y-103525000I100000J0D01*
G01*
X223900000Y-103525000D01*
G75*
G02*
X224000000Y-103625000I0J-100000D01*
G01*
X224000000Y-103825000D01*
G75*
G02*
X223900000Y-103925000I-100000J0D01*
G01*
X222625000Y-103925000D01*
G75*
G02*
X222525000Y-103825000I0J100000D01*
G01*
G37*
G36*
G01*
X222525000Y-104475000D02*
X222525000Y-104275000D01*
G75*
G02*
X222625000Y-104175000I100000J0D01*
G01*
X223900000Y-104175000D01*
G75*
G02*
X224000000Y-104275000I0J-100000D01*
G01*
X224000000Y-104475000D01*
G75*
G02*
X223900000Y-104575000I-100000J0D01*
G01*
X222625000Y-104575000D01*
G75*
G02*
X222525000Y-104475000I0J100000D01*
G01*
G37*
G36*
G01*
X216800000Y-104475000D02*
X216800000Y-104275000D01*
G75*
G02*
X216900000Y-104175000I100000J0D01*
G01*
X218175000Y-104175000D01*
G75*
G02*
X218275000Y-104275000I0J-100000D01*
G01*
X218275000Y-104475000D01*
G75*
G02*
X218175000Y-104575000I-100000J0D01*
G01*
X216900000Y-104575000D01*
G75*
G02*
X216800000Y-104475000I0J100000D01*
G01*
G37*
G36*
G01*
X216800000Y-103825000D02*
X216800000Y-103625000D01*
G75*
G02*
X216900000Y-103525000I100000J0D01*
G01*
X218175000Y-103525000D01*
G75*
G02*
X218275000Y-103625000I0J-100000D01*
G01*
X218275000Y-103825000D01*
G75*
G02*
X218175000Y-103925000I-100000J0D01*
G01*
X216900000Y-103925000D01*
G75*
G02*
X216800000Y-103825000I0J100000D01*
G01*
G37*
G36*
G01*
X216800000Y-103175000D02*
X216800000Y-102975000D01*
G75*
G02*
X216900000Y-102875000I100000J0D01*
G01*
X218175000Y-102875000D01*
G75*
G02*
X218275000Y-102975000I0J-100000D01*
G01*
X218275000Y-103175000D01*
G75*
G02*
X218175000Y-103275000I-100000J0D01*
G01*
X216900000Y-103275000D01*
G75*
G02*
X216800000Y-103175000I0J100000D01*
G01*
G37*
G36*
G01*
X216800000Y-102525000D02*
X216800000Y-102325000D01*
G75*
G02*
X216900000Y-102225000I100000J0D01*
G01*
X218175000Y-102225000D01*
G75*
G02*
X218275000Y-102325000I0J-100000D01*
G01*
X218275000Y-102525000D01*
G75*
G02*
X218175000Y-102625000I-100000J0D01*
G01*
X216900000Y-102625000D01*
G75*
G02*
X216800000Y-102525000I0J100000D01*
G01*
G37*
G36*
G01*
X216800000Y-101875000D02*
X216800000Y-101675000D01*
G75*
G02*
X216900000Y-101575000I100000J0D01*
G01*
X218175000Y-101575000D01*
G75*
G02*
X218275000Y-101675000I0J-100000D01*
G01*
X218275000Y-101875000D01*
G75*
G02*
X218175000Y-101975000I-100000J0D01*
G01*
X216900000Y-101975000D01*
G75*
G02*
X216800000Y-101875000I0J100000D01*
G01*
G37*
G36*
G01*
X216800000Y-101225000D02*
X216800000Y-101025000D01*
G75*
G02*
X216900000Y-100925000I100000J0D01*
G01*
X218175000Y-100925000D01*
G75*
G02*
X218275000Y-101025000I0J-100000D01*
G01*
X218275000Y-101225000D01*
G75*
G02*
X218175000Y-101325000I-100000J0D01*
G01*
X216900000Y-101325000D01*
G75*
G02*
X216800000Y-101225000I0J100000D01*
G01*
G37*
G36*
G01*
X216800000Y-100575000D02*
X216800000Y-100375000D01*
G75*
G02*
X216900000Y-100275000I100000J0D01*
G01*
X218175000Y-100275000D01*
G75*
G02*
X218275000Y-100375000I0J-100000D01*
G01*
X218275000Y-100575000D01*
G75*
G02*
X218175000Y-100675000I-100000J0D01*
G01*
X216900000Y-100675000D01*
G75*
G02*
X216800000Y-100575000I0J100000D01*
G01*
G37*
G36*
G01*
X216800000Y-99925000D02*
X216800000Y-99725000D01*
G75*
G02*
X216900000Y-99625000I100000J0D01*
G01*
X218175000Y-99625000D01*
G75*
G02*
X218275000Y-99725000I0J-100000D01*
G01*
X218275000Y-99925000D01*
G75*
G02*
X218175000Y-100025000I-100000J0D01*
G01*
X216900000Y-100025000D01*
G75*
G02*
X216800000Y-99925000I0J100000D01*
G01*
G37*
G36*
G01*
X216800000Y-99275000D02*
X216800000Y-99075000D01*
G75*
G02*
X216900000Y-98975000I100000J0D01*
G01*
X218175000Y-98975000D01*
G75*
G02*
X218275000Y-99075000I0J-100000D01*
G01*
X218275000Y-99275000D01*
G75*
G02*
X218175000Y-99375000I-100000J0D01*
G01*
X216900000Y-99375000D01*
G75*
G02*
X216800000Y-99275000I0J100000D01*
G01*
G37*
G36*
G01*
X216800000Y-98625000D02*
X216800000Y-98425000D01*
G75*
G02*
X216900000Y-98325000I100000J0D01*
G01*
X218175000Y-98325000D01*
G75*
G02*
X218275000Y-98425000I0J-100000D01*
G01*
X218275000Y-98625000D01*
G75*
G02*
X218175000Y-98725000I-100000J0D01*
G01*
X216900000Y-98725000D01*
G75*
G02*
X216800000Y-98625000I0J100000D01*
G01*
G37*
G36*
G01*
X216800000Y-97975000D02*
X216800000Y-97775000D01*
G75*
G02*
X216900000Y-97675000I100000J0D01*
G01*
X218175000Y-97675000D01*
G75*
G02*
X218275000Y-97775000I0J-100000D01*
G01*
X218275000Y-97975000D01*
G75*
G02*
X218175000Y-98075000I-100000J0D01*
G01*
X216900000Y-98075000D01*
G75*
G02*
X216800000Y-97975000I0J100000D01*
G01*
G37*
G36*
G01*
X216800000Y-97325000D02*
X216800000Y-97125000D01*
G75*
G02*
X216900000Y-97025000I100000J0D01*
G01*
X218175000Y-97025000D01*
G75*
G02*
X218275000Y-97125000I0J-100000D01*
G01*
X218275000Y-97325000D01*
G75*
G02*
X218175000Y-97425000I-100000J0D01*
G01*
X216900000Y-97425000D01*
G75*
G02*
X216800000Y-97325000I0J100000D01*
G01*
G37*
G36*
G01*
X216875000Y-68775000D02*
X216875000Y-68575000D01*
G75*
G02*
X216975000Y-68475000I100000J0D01*
G01*
X218250000Y-68475000D01*
G75*
G02*
X218350000Y-68575000I0J-100000D01*
G01*
X218350000Y-68775000D01*
G75*
G02*
X218250000Y-68875000I-100000J0D01*
G01*
X216975000Y-68875000D01*
G75*
G02*
X216875000Y-68775000I0J100000D01*
G01*
G37*
G36*
G01*
X216875000Y-69425000D02*
X216875000Y-69225000D01*
G75*
G02*
X216975000Y-69125000I100000J0D01*
G01*
X218250000Y-69125000D01*
G75*
G02*
X218350000Y-69225000I0J-100000D01*
G01*
X218350000Y-69425000D01*
G75*
G02*
X218250000Y-69525000I-100000J0D01*
G01*
X216975000Y-69525000D01*
G75*
G02*
X216875000Y-69425000I0J100000D01*
G01*
G37*
G36*
G01*
X216875000Y-70075000D02*
X216875000Y-69875000D01*
G75*
G02*
X216975000Y-69775000I100000J0D01*
G01*
X218250000Y-69775000D01*
G75*
G02*
X218350000Y-69875000I0J-100000D01*
G01*
X218350000Y-70075000D01*
G75*
G02*
X218250000Y-70175000I-100000J0D01*
G01*
X216975000Y-70175000D01*
G75*
G02*
X216875000Y-70075000I0J100000D01*
G01*
G37*
G36*
G01*
X216875000Y-70725000D02*
X216875000Y-70525000D01*
G75*
G02*
X216975000Y-70425000I100000J0D01*
G01*
X218250000Y-70425000D01*
G75*
G02*
X218350000Y-70525000I0J-100000D01*
G01*
X218350000Y-70725000D01*
G75*
G02*
X218250000Y-70825000I-100000J0D01*
G01*
X216975000Y-70825000D01*
G75*
G02*
X216875000Y-70725000I0J100000D01*
G01*
G37*
G36*
G01*
X216875000Y-71375000D02*
X216875000Y-71175000D01*
G75*
G02*
X216975000Y-71075000I100000J0D01*
G01*
X218250000Y-71075000D01*
G75*
G02*
X218350000Y-71175000I0J-100000D01*
G01*
X218350000Y-71375000D01*
G75*
G02*
X218250000Y-71475000I-100000J0D01*
G01*
X216975000Y-71475000D01*
G75*
G02*
X216875000Y-71375000I0J100000D01*
G01*
G37*
G36*
G01*
X216875000Y-72025000D02*
X216875000Y-71825000D01*
G75*
G02*
X216975000Y-71725000I100000J0D01*
G01*
X218250000Y-71725000D01*
G75*
G02*
X218350000Y-71825000I0J-100000D01*
G01*
X218350000Y-72025000D01*
G75*
G02*
X218250000Y-72125000I-100000J0D01*
G01*
X216975000Y-72125000D01*
G75*
G02*
X216875000Y-72025000I0J100000D01*
G01*
G37*
G36*
G01*
X216875000Y-72675000D02*
X216875000Y-72475000D01*
G75*
G02*
X216975000Y-72375000I100000J0D01*
G01*
X218250000Y-72375000D01*
G75*
G02*
X218350000Y-72475000I0J-100000D01*
G01*
X218350000Y-72675000D01*
G75*
G02*
X218250000Y-72775000I-100000J0D01*
G01*
X216975000Y-72775000D01*
G75*
G02*
X216875000Y-72675000I0J100000D01*
G01*
G37*
G36*
G01*
X216875000Y-73325000D02*
X216875000Y-73125000D01*
G75*
G02*
X216975000Y-73025000I100000J0D01*
G01*
X218250000Y-73025000D01*
G75*
G02*
X218350000Y-73125000I0J-100000D01*
G01*
X218350000Y-73325000D01*
G75*
G02*
X218250000Y-73425000I-100000J0D01*
G01*
X216975000Y-73425000D01*
G75*
G02*
X216875000Y-73325000I0J100000D01*
G01*
G37*
G36*
G01*
X216875000Y-73975000D02*
X216875000Y-73775000D01*
G75*
G02*
X216975000Y-73675000I100000J0D01*
G01*
X218250000Y-73675000D01*
G75*
G02*
X218350000Y-73775000I0J-100000D01*
G01*
X218350000Y-73975000D01*
G75*
G02*
X218250000Y-74075000I-100000J0D01*
G01*
X216975000Y-74075000D01*
G75*
G02*
X216875000Y-73975000I0J100000D01*
G01*
G37*
G36*
G01*
X216875000Y-74625000D02*
X216875000Y-74425000D01*
G75*
G02*
X216975000Y-74325000I100000J0D01*
G01*
X218250000Y-74325000D01*
G75*
G02*
X218350000Y-74425000I0J-100000D01*
G01*
X218350000Y-74625000D01*
G75*
G02*
X218250000Y-74725000I-100000J0D01*
G01*
X216975000Y-74725000D01*
G75*
G02*
X216875000Y-74625000I0J100000D01*
G01*
G37*
G36*
G01*
X216875000Y-75275000D02*
X216875000Y-75075000D01*
G75*
G02*
X216975000Y-74975000I100000J0D01*
G01*
X218250000Y-74975000D01*
G75*
G02*
X218350000Y-75075000I0J-100000D01*
G01*
X218350000Y-75275000D01*
G75*
G02*
X218250000Y-75375000I-100000J0D01*
G01*
X216975000Y-75375000D01*
G75*
G02*
X216875000Y-75275000I0J100000D01*
G01*
G37*
G36*
G01*
X216875000Y-75925000D02*
X216875000Y-75725000D01*
G75*
G02*
X216975000Y-75625000I100000J0D01*
G01*
X218250000Y-75625000D01*
G75*
G02*
X218350000Y-75725000I0J-100000D01*
G01*
X218350000Y-75925000D01*
G75*
G02*
X218250000Y-76025000I-100000J0D01*
G01*
X216975000Y-76025000D01*
G75*
G02*
X216875000Y-75925000I0J100000D01*
G01*
G37*
G36*
G01*
X211150000Y-75925000D02*
X211150000Y-75725000D01*
G75*
G02*
X211250000Y-75625000I100000J0D01*
G01*
X212525000Y-75625000D01*
G75*
G02*
X212625000Y-75725000I0J-100000D01*
G01*
X212625000Y-75925000D01*
G75*
G02*
X212525000Y-76025000I-100000J0D01*
G01*
X211250000Y-76025000D01*
G75*
G02*
X211150000Y-75925000I0J100000D01*
G01*
G37*
G36*
G01*
X211150000Y-75275000D02*
X211150000Y-75075000D01*
G75*
G02*
X211250000Y-74975000I100000J0D01*
G01*
X212525000Y-74975000D01*
G75*
G02*
X212625000Y-75075000I0J-100000D01*
G01*
X212625000Y-75275000D01*
G75*
G02*
X212525000Y-75375000I-100000J0D01*
G01*
X211250000Y-75375000D01*
G75*
G02*
X211150000Y-75275000I0J100000D01*
G01*
G37*
G36*
G01*
X211150000Y-74625000D02*
X211150000Y-74425000D01*
G75*
G02*
X211250000Y-74325000I100000J0D01*
G01*
X212525000Y-74325000D01*
G75*
G02*
X212625000Y-74425000I0J-100000D01*
G01*
X212625000Y-74625000D01*
G75*
G02*
X212525000Y-74725000I-100000J0D01*
G01*
X211250000Y-74725000D01*
G75*
G02*
X211150000Y-74625000I0J100000D01*
G01*
G37*
G36*
G01*
X211150000Y-73975000D02*
X211150000Y-73775000D01*
G75*
G02*
X211250000Y-73675000I100000J0D01*
G01*
X212525000Y-73675000D01*
G75*
G02*
X212625000Y-73775000I0J-100000D01*
G01*
X212625000Y-73975000D01*
G75*
G02*
X212525000Y-74075000I-100000J0D01*
G01*
X211250000Y-74075000D01*
G75*
G02*
X211150000Y-73975000I0J100000D01*
G01*
G37*
G36*
G01*
X211150000Y-73325000D02*
X211150000Y-73125000D01*
G75*
G02*
X211250000Y-73025000I100000J0D01*
G01*
X212525000Y-73025000D01*
G75*
G02*
X212625000Y-73125000I0J-100000D01*
G01*
X212625000Y-73325000D01*
G75*
G02*
X212525000Y-73425000I-100000J0D01*
G01*
X211250000Y-73425000D01*
G75*
G02*
X211150000Y-73325000I0J100000D01*
G01*
G37*
G36*
G01*
X211150000Y-72675000D02*
X211150000Y-72475000D01*
G75*
G02*
X211250000Y-72375000I100000J0D01*
G01*
X212525000Y-72375000D01*
G75*
G02*
X212625000Y-72475000I0J-100000D01*
G01*
X212625000Y-72675000D01*
G75*
G02*
X212525000Y-72775000I-100000J0D01*
G01*
X211250000Y-72775000D01*
G75*
G02*
X211150000Y-72675000I0J100000D01*
G01*
G37*
G36*
G01*
X211150000Y-72025000D02*
X211150000Y-71825000D01*
G75*
G02*
X211250000Y-71725000I100000J0D01*
G01*
X212525000Y-71725000D01*
G75*
G02*
X212625000Y-71825000I0J-100000D01*
G01*
X212625000Y-72025000D01*
G75*
G02*
X212525000Y-72125000I-100000J0D01*
G01*
X211250000Y-72125000D01*
G75*
G02*
X211150000Y-72025000I0J100000D01*
G01*
G37*
G36*
G01*
X211150000Y-71375000D02*
X211150000Y-71175000D01*
G75*
G02*
X211250000Y-71075000I100000J0D01*
G01*
X212525000Y-71075000D01*
G75*
G02*
X212625000Y-71175000I0J-100000D01*
G01*
X212625000Y-71375000D01*
G75*
G02*
X212525000Y-71475000I-100000J0D01*
G01*
X211250000Y-71475000D01*
G75*
G02*
X211150000Y-71375000I0J100000D01*
G01*
G37*
G36*
G01*
X211150000Y-70725000D02*
X211150000Y-70525000D01*
G75*
G02*
X211250000Y-70425000I100000J0D01*
G01*
X212525000Y-70425000D01*
G75*
G02*
X212625000Y-70525000I0J-100000D01*
G01*
X212625000Y-70725000D01*
G75*
G02*
X212525000Y-70825000I-100000J0D01*
G01*
X211250000Y-70825000D01*
G75*
G02*
X211150000Y-70725000I0J100000D01*
G01*
G37*
G36*
G01*
X211150000Y-70075000D02*
X211150000Y-69875000D01*
G75*
G02*
X211250000Y-69775000I100000J0D01*
G01*
X212525000Y-69775000D01*
G75*
G02*
X212625000Y-69875000I0J-100000D01*
G01*
X212625000Y-70075000D01*
G75*
G02*
X212525000Y-70175000I-100000J0D01*
G01*
X211250000Y-70175000D01*
G75*
G02*
X211150000Y-70075000I0J100000D01*
G01*
G37*
G36*
G01*
X211150000Y-69425000D02*
X211150000Y-69225000D01*
G75*
G02*
X211250000Y-69125000I100000J0D01*
G01*
X212525000Y-69125000D01*
G75*
G02*
X212625000Y-69225000I0J-100000D01*
G01*
X212625000Y-69425000D01*
G75*
G02*
X212525000Y-69525000I-100000J0D01*
G01*
X211250000Y-69525000D01*
G75*
G02*
X211150000Y-69425000I0J100000D01*
G01*
G37*
G36*
G01*
X211150000Y-68775000D02*
X211150000Y-68575000D01*
G75*
G02*
X211250000Y-68475000I100000J0D01*
G01*
X212525000Y-68475000D01*
G75*
G02*
X212625000Y-68575000I0J-100000D01*
G01*
X212625000Y-68775000D01*
G75*
G02*
X212525000Y-68875000I-100000J0D01*
G01*
X211250000Y-68875000D01*
G75*
G02*
X211150000Y-68775000I0J100000D01*
G01*
G37*
G36*
G01*
X165075000Y-62075000D02*
X164875000Y-62075000D01*
G75*
G02*
X164775000Y-61975000I0J100000D01*
G01*
X164775000Y-60700000D01*
G75*
G02*
X164875000Y-60600000I100000J0D01*
G01*
X165075000Y-60600000D01*
G75*
G02*
X165175000Y-60700000I0J-100000D01*
G01*
X165175000Y-61975000D01*
G75*
G02*
X165075000Y-62075000I-100000J0D01*
G01*
G37*
G36*
G01*
X165725000Y-62075000D02*
X165525000Y-62075000D01*
G75*
G02*
X165425000Y-61975000I0J100000D01*
G01*
X165425000Y-60700000D01*
G75*
G02*
X165525000Y-60600000I100000J0D01*
G01*
X165725000Y-60600000D01*
G75*
G02*
X165825000Y-60700000I0J-100000D01*
G01*
X165825000Y-61975000D01*
G75*
G02*
X165725000Y-62075000I-100000J0D01*
G01*
G37*
G36*
G01*
X166375000Y-62075000D02*
X166175000Y-62075000D01*
G75*
G02*
X166075000Y-61975000I0J100000D01*
G01*
X166075000Y-60700000D01*
G75*
G02*
X166175000Y-60600000I100000J0D01*
G01*
X166375000Y-60600000D01*
G75*
G02*
X166475000Y-60700000I0J-100000D01*
G01*
X166475000Y-61975000D01*
G75*
G02*
X166375000Y-62075000I-100000J0D01*
G01*
G37*
G36*
G01*
X167025000Y-62075000D02*
X166825000Y-62075000D01*
G75*
G02*
X166725000Y-61975000I0J100000D01*
G01*
X166725000Y-60700000D01*
G75*
G02*
X166825000Y-60600000I100000J0D01*
G01*
X167025000Y-60600000D01*
G75*
G02*
X167125000Y-60700000I0J-100000D01*
G01*
X167125000Y-61975000D01*
G75*
G02*
X167025000Y-62075000I-100000J0D01*
G01*
G37*
G36*
G01*
X167675000Y-62075000D02*
X167475000Y-62075000D01*
G75*
G02*
X167375000Y-61975000I0J100000D01*
G01*
X167375000Y-60700000D01*
G75*
G02*
X167475000Y-60600000I100000J0D01*
G01*
X167675000Y-60600000D01*
G75*
G02*
X167775000Y-60700000I0J-100000D01*
G01*
X167775000Y-61975000D01*
G75*
G02*
X167675000Y-62075000I-100000J0D01*
G01*
G37*
G36*
G01*
X168325000Y-62075000D02*
X168125000Y-62075000D01*
G75*
G02*
X168025000Y-61975000I0J100000D01*
G01*
X168025000Y-60700000D01*
G75*
G02*
X168125000Y-60600000I100000J0D01*
G01*
X168325000Y-60600000D01*
G75*
G02*
X168425000Y-60700000I0J-100000D01*
G01*
X168425000Y-61975000D01*
G75*
G02*
X168325000Y-62075000I-100000J0D01*
G01*
G37*
G36*
G01*
X168975000Y-62075000D02*
X168775000Y-62075000D01*
G75*
G02*
X168675000Y-61975000I0J100000D01*
G01*
X168675000Y-60700000D01*
G75*
G02*
X168775000Y-60600000I100000J0D01*
G01*
X168975000Y-60600000D01*
G75*
G02*
X169075000Y-60700000I0J-100000D01*
G01*
X169075000Y-61975000D01*
G75*
G02*
X168975000Y-62075000I-100000J0D01*
G01*
G37*
G36*
G01*
X169625000Y-62075000D02*
X169425000Y-62075000D01*
G75*
G02*
X169325000Y-61975000I0J100000D01*
G01*
X169325000Y-60700000D01*
G75*
G02*
X169425000Y-60600000I100000J0D01*
G01*
X169625000Y-60600000D01*
G75*
G02*
X169725000Y-60700000I0J-100000D01*
G01*
X169725000Y-61975000D01*
G75*
G02*
X169625000Y-62075000I-100000J0D01*
G01*
G37*
G36*
G01*
X170275000Y-62075000D02*
X170075000Y-62075000D01*
G75*
G02*
X169975000Y-61975000I0J100000D01*
G01*
X169975000Y-60700000D01*
G75*
G02*
X170075000Y-60600000I100000J0D01*
G01*
X170275000Y-60600000D01*
G75*
G02*
X170375000Y-60700000I0J-100000D01*
G01*
X170375000Y-61975000D01*
G75*
G02*
X170275000Y-62075000I-100000J0D01*
G01*
G37*
G36*
G01*
X170925000Y-62075000D02*
X170725000Y-62075000D01*
G75*
G02*
X170625000Y-61975000I0J100000D01*
G01*
X170625000Y-60700000D01*
G75*
G02*
X170725000Y-60600000I100000J0D01*
G01*
X170925000Y-60600000D01*
G75*
G02*
X171025000Y-60700000I0J-100000D01*
G01*
X171025000Y-61975000D01*
G75*
G02*
X170925000Y-62075000I-100000J0D01*
G01*
G37*
G36*
G01*
X171575000Y-62075000D02*
X171375000Y-62075000D01*
G75*
G02*
X171275000Y-61975000I0J100000D01*
G01*
X171275000Y-60700000D01*
G75*
G02*
X171375000Y-60600000I100000J0D01*
G01*
X171575000Y-60600000D01*
G75*
G02*
X171675000Y-60700000I0J-100000D01*
G01*
X171675000Y-61975000D01*
G75*
G02*
X171575000Y-62075000I-100000J0D01*
G01*
G37*
G36*
G01*
X172225000Y-62075000D02*
X172025000Y-62075000D01*
G75*
G02*
X171925000Y-61975000I0J100000D01*
G01*
X171925000Y-60700000D01*
G75*
G02*
X172025000Y-60600000I100000J0D01*
G01*
X172225000Y-60600000D01*
G75*
G02*
X172325000Y-60700000I0J-100000D01*
G01*
X172325000Y-61975000D01*
G75*
G02*
X172225000Y-62075000I-100000J0D01*
G01*
G37*
G36*
G01*
X172225000Y-67800000D02*
X172025000Y-67800000D01*
G75*
G02*
X171925000Y-67700000I0J100000D01*
G01*
X171925000Y-66425000D01*
G75*
G02*
X172025000Y-66325000I100000J0D01*
G01*
X172225000Y-66325000D01*
G75*
G02*
X172325000Y-66425000I0J-100000D01*
G01*
X172325000Y-67700000D01*
G75*
G02*
X172225000Y-67800000I-100000J0D01*
G01*
G37*
G36*
G01*
X171575000Y-67800000D02*
X171375000Y-67800000D01*
G75*
G02*
X171275000Y-67700000I0J100000D01*
G01*
X171275000Y-66425000D01*
G75*
G02*
X171375000Y-66325000I100000J0D01*
G01*
X171575000Y-66325000D01*
G75*
G02*
X171675000Y-66425000I0J-100000D01*
G01*
X171675000Y-67700000D01*
G75*
G02*
X171575000Y-67800000I-100000J0D01*
G01*
G37*
G36*
G01*
X170925000Y-67800000D02*
X170725000Y-67800000D01*
G75*
G02*
X170625000Y-67700000I0J100000D01*
G01*
X170625000Y-66425000D01*
G75*
G02*
X170725000Y-66325000I100000J0D01*
G01*
X170925000Y-66325000D01*
G75*
G02*
X171025000Y-66425000I0J-100000D01*
G01*
X171025000Y-67700000D01*
G75*
G02*
X170925000Y-67800000I-100000J0D01*
G01*
G37*
G36*
G01*
X170275000Y-67800000D02*
X170075000Y-67800000D01*
G75*
G02*
X169975000Y-67700000I0J100000D01*
G01*
X169975000Y-66425000D01*
G75*
G02*
X170075000Y-66325000I100000J0D01*
G01*
X170275000Y-66325000D01*
G75*
G02*
X170375000Y-66425000I0J-100000D01*
G01*
X170375000Y-67700000D01*
G75*
G02*
X170275000Y-67800000I-100000J0D01*
G01*
G37*
G36*
G01*
X169625000Y-67800000D02*
X169425000Y-67800000D01*
G75*
G02*
X169325000Y-67700000I0J100000D01*
G01*
X169325000Y-66425000D01*
G75*
G02*
X169425000Y-66325000I100000J0D01*
G01*
X169625000Y-66325000D01*
G75*
G02*
X169725000Y-66425000I0J-100000D01*
G01*
X169725000Y-67700000D01*
G75*
G02*
X169625000Y-67800000I-100000J0D01*
G01*
G37*
G36*
G01*
X168975000Y-67800000D02*
X168775000Y-67800000D01*
G75*
G02*
X168675000Y-67700000I0J100000D01*
G01*
X168675000Y-66425000D01*
G75*
G02*
X168775000Y-66325000I100000J0D01*
G01*
X168975000Y-66325000D01*
G75*
G02*
X169075000Y-66425000I0J-100000D01*
G01*
X169075000Y-67700000D01*
G75*
G02*
X168975000Y-67800000I-100000J0D01*
G01*
G37*
G36*
G01*
X168325000Y-67800000D02*
X168125000Y-67800000D01*
G75*
G02*
X168025000Y-67700000I0J100000D01*
G01*
X168025000Y-66425000D01*
G75*
G02*
X168125000Y-66325000I100000J0D01*
G01*
X168325000Y-66325000D01*
G75*
G02*
X168425000Y-66425000I0J-100000D01*
G01*
X168425000Y-67700000D01*
G75*
G02*
X168325000Y-67800000I-100000J0D01*
G01*
G37*
G36*
G01*
X167675000Y-67800000D02*
X167475000Y-67800000D01*
G75*
G02*
X167375000Y-67700000I0J100000D01*
G01*
X167375000Y-66425000D01*
G75*
G02*
X167475000Y-66325000I100000J0D01*
G01*
X167675000Y-66325000D01*
G75*
G02*
X167775000Y-66425000I0J-100000D01*
G01*
X167775000Y-67700000D01*
G75*
G02*
X167675000Y-67800000I-100000J0D01*
G01*
G37*
G36*
G01*
X167025000Y-67800000D02*
X166825000Y-67800000D01*
G75*
G02*
X166725000Y-67700000I0J100000D01*
G01*
X166725000Y-66425000D01*
G75*
G02*
X166825000Y-66325000I100000J0D01*
G01*
X167025000Y-66325000D01*
G75*
G02*
X167125000Y-66425000I0J-100000D01*
G01*
X167125000Y-67700000D01*
G75*
G02*
X167025000Y-67800000I-100000J0D01*
G01*
G37*
G36*
G01*
X166375000Y-67800000D02*
X166175000Y-67800000D01*
G75*
G02*
X166075000Y-67700000I0J100000D01*
G01*
X166075000Y-66425000D01*
G75*
G02*
X166175000Y-66325000I100000J0D01*
G01*
X166375000Y-66325000D01*
G75*
G02*
X166475000Y-66425000I0J-100000D01*
G01*
X166475000Y-67700000D01*
G75*
G02*
X166375000Y-67800000I-100000J0D01*
G01*
G37*
G36*
G01*
X165725000Y-67800000D02*
X165525000Y-67800000D01*
G75*
G02*
X165425000Y-67700000I0J100000D01*
G01*
X165425000Y-66425000D01*
G75*
G02*
X165525000Y-66325000I100000J0D01*
G01*
X165725000Y-66325000D01*
G75*
G02*
X165825000Y-66425000I0J-100000D01*
G01*
X165825000Y-67700000D01*
G75*
G02*
X165725000Y-67800000I-100000J0D01*
G01*
G37*
G36*
G01*
X165075000Y-67800000D02*
X164875000Y-67800000D01*
G75*
G02*
X164775000Y-67700000I0J100000D01*
G01*
X164775000Y-66425000D01*
G75*
G02*
X164875000Y-66325000I100000J0D01*
G01*
X165075000Y-66325000D01*
G75*
G02*
X165175000Y-66425000I0J-100000D01*
G01*
X165175000Y-67700000D01*
G75*
G02*
X165075000Y-67800000I-100000J0D01*
G01*
G37*
G36*
G01*
X104325000Y-62075000D02*
X104125000Y-62075000D01*
G75*
G02*
X104025000Y-61975000I0J100000D01*
G01*
X104025000Y-60700000D01*
G75*
G02*
X104125000Y-60600000I100000J0D01*
G01*
X104325000Y-60600000D01*
G75*
G02*
X104425000Y-60700000I0J-100000D01*
G01*
X104425000Y-61975000D01*
G75*
G02*
X104325000Y-62075000I-100000J0D01*
G01*
G37*
G36*
G01*
X104975000Y-62075000D02*
X104775000Y-62075000D01*
G75*
G02*
X104675000Y-61975000I0J100000D01*
G01*
X104675000Y-60700000D01*
G75*
G02*
X104775000Y-60600000I100000J0D01*
G01*
X104975000Y-60600000D01*
G75*
G02*
X105075000Y-60700000I0J-100000D01*
G01*
X105075000Y-61975000D01*
G75*
G02*
X104975000Y-62075000I-100000J0D01*
G01*
G37*
G36*
G01*
X105625000Y-62075000D02*
X105425000Y-62075000D01*
G75*
G02*
X105325000Y-61975000I0J100000D01*
G01*
X105325000Y-60700000D01*
G75*
G02*
X105425000Y-60600000I100000J0D01*
G01*
X105625000Y-60600000D01*
G75*
G02*
X105725000Y-60700000I0J-100000D01*
G01*
X105725000Y-61975000D01*
G75*
G02*
X105625000Y-62075000I-100000J0D01*
G01*
G37*
G36*
G01*
X106275000Y-62075000D02*
X106075000Y-62075000D01*
G75*
G02*
X105975000Y-61975000I0J100000D01*
G01*
X105975000Y-60700000D01*
G75*
G02*
X106075000Y-60600000I100000J0D01*
G01*
X106275000Y-60600000D01*
G75*
G02*
X106375000Y-60700000I0J-100000D01*
G01*
X106375000Y-61975000D01*
G75*
G02*
X106275000Y-62075000I-100000J0D01*
G01*
G37*
G36*
G01*
X106925000Y-62075000D02*
X106725000Y-62075000D01*
G75*
G02*
X106625000Y-61975000I0J100000D01*
G01*
X106625000Y-60700000D01*
G75*
G02*
X106725000Y-60600000I100000J0D01*
G01*
X106925000Y-60600000D01*
G75*
G02*
X107025000Y-60700000I0J-100000D01*
G01*
X107025000Y-61975000D01*
G75*
G02*
X106925000Y-62075000I-100000J0D01*
G01*
G37*
G36*
G01*
X107575000Y-62075000D02*
X107375000Y-62075000D01*
G75*
G02*
X107275000Y-61975000I0J100000D01*
G01*
X107275000Y-60700000D01*
G75*
G02*
X107375000Y-60600000I100000J0D01*
G01*
X107575000Y-60600000D01*
G75*
G02*
X107675000Y-60700000I0J-100000D01*
G01*
X107675000Y-61975000D01*
G75*
G02*
X107575000Y-62075000I-100000J0D01*
G01*
G37*
G36*
G01*
X108225000Y-62075000D02*
X108025000Y-62075000D01*
G75*
G02*
X107925000Y-61975000I0J100000D01*
G01*
X107925000Y-60700000D01*
G75*
G02*
X108025000Y-60600000I100000J0D01*
G01*
X108225000Y-60600000D01*
G75*
G02*
X108325000Y-60700000I0J-100000D01*
G01*
X108325000Y-61975000D01*
G75*
G02*
X108225000Y-62075000I-100000J0D01*
G01*
G37*
G36*
G01*
X108875000Y-62075000D02*
X108675000Y-62075000D01*
G75*
G02*
X108575000Y-61975000I0J100000D01*
G01*
X108575000Y-60700000D01*
G75*
G02*
X108675000Y-60600000I100000J0D01*
G01*
X108875000Y-60600000D01*
G75*
G02*
X108975000Y-60700000I0J-100000D01*
G01*
X108975000Y-61975000D01*
G75*
G02*
X108875000Y-62075000I-100000J0D01*
G01*
G37*
G36*
G01*
X109525000Y-62075000D02*
X109325000Y-62075000D01*
G75*
G02*
X109225000Y-61975000I0J100000D01*
G01*
X109225000Y-60700000D01*
G75*
G02*
X109325000Y-60600000I100000J0D01*
G01*
X109525000Y-60600000D01*
G75*
G02*
X109625000Y-60700000I0J-100000D01*
G01*
X109625000Y-61975000D01*
G75*
G02*
X109525000Y-62075000I-100000J0D01*
G01*
G37*
G36*
G01*
X110175000Y-62075000D02*
X109975000Y-62075000D01*
G75*
G02*
X109875000Y-61975000I0J100000D01*
G01*
X109875000Y-60700000D01*
G75*
G02*
X109975000Y-60600000I100000J0D01*
G01*
X110175000Y-60600000D01*
G75*
G02*
X110275000Y-60700000I0J-100000D01*
G01*
X110275000Y-61975000D01*
G75*
G02*
X110175000Y-62075000I-100000J0D01*
G01*
G37*
G36*
G01*
X110825000Y-62075000D02*
X110625000Y-62075000D01*
G75*
G02*
X110525000Y-61975000I0J100000D01*
G01*
X110525000Y-60700000D01*
G75*
G02*
X110625000Y-60600000I100000J0D01*
G01*
X110825000Y-60600000D01*
G75*
G02*
X110925000Y-60700000I0J-100000D01*
G01*
X110925000Y-61975000D01*
G75*
G02*
X110825000Y-62075000I-100000J0D01*
G01*
G37*
G36*
G01*
X111475000Y-62075000D02*
X111275000Y-62075000D01*
G75*
G02*
X111175000Y-61975000I0J100000D01*
G01*
X111175000Y-60700000D01*
G75*
G02*
X111275000Y-60600000I100000J0D01*
G01*
X111475000Y-60600000D01*
G75*
G02*
X111575000Y-60700000I0J-100000D01*
G01*
X111575000Y-61975000D01*
G75*
G02*
X111475000Y-62075000I-100000J0D01*
G01*
G37*
G36*
G01*
X111475000Y-67800000D02*
X111275000Y-67800000D01*
G75*
G02*
X111175000Y-67700000I0J100000D01*
G01*
X111175000Y-66425000D01*
G75*
G02*
X111275000Y-66325000I100000J0D01*
G01*
X111475000Y-66325000D01*
G75*
G02*
X111575000Y-66425000I0J-100000D01*
G01*
X111575000Y-67700000D01*
G75*
G02*
X111475000Y-67800000I-100000J0D01*
G01*
G37*
G36*
G01*
X110825000Y-67800000D02*
X110625000Y-67800000D01*
G75*
G02*
X110525000Y-67700000I0J100000D01*
G01*
X110525000Y-66425000D01*
G75*
G02*
X110625000Y-66325000I100000J0D01*
G01*
X110825000Y-66325000D01*
G75*
G02*
X110925000Y-66425000I0J-100000D01*
G01*
X110925000Y-67700000D01*
G75*
G02*
X110825000Y-67800000I-100000J0D01*
G01*
G37*
G36*
G01*
X110175000Y-67800000D02*
X109975000Y-67800000D01*
G75*
G02*
X109875000Y-67700000I0J100000D01*
G01*
X109875000Y-66425000D01*
G75*
G02*
X109975000Y-66325000I100000J0D01*
G01*
X110175000Y-66325000D01*
G75*
G02*
X110275000Y-66425000I0J-100000D01*
G01*
X110275000Y-67700000D01*
G75*
G02*
X110175000Y-67800000I-100000J0D01*
G01*
G37*
G36*
G01*
X109525000Y-67800000D02*
X109325000Y-67800000D01*
G75*
G02*
X109225000Y-67700000I0J100000D01*
G01*
X109225000Y-66425000D01*
G75*
G02*
X109325000Y-66325000I100000J0D01*
G01*
X109525000Y-66325000D01*
G75*
G02*
X109625000Y-66425000I0J-100000D01*
G01*
X109625000Y-67700000D01*
G75*
G02*
X109525000Y-67800000I-100000J0D01*
G01*
G37*
G36*
G01*
X108875000Y-67800000D02*
X108675000Y-67800000D01*
G75*
G02*
X108575000Y-67700000I0J100000D01*
G01*
X108575000Y-66425000D01*
G75*
G02*
X108675000Y-66325000I100000J0D01*
G01*
X108875000Y-66325000D01*
G75*
G02*
X108975000Y-66425000I0J-100000D01*
G01*
X108975000Y-67700000D01*
G75*
G02*
X108875000Y-67800000I-100000J0D01*
G01*
G37*
G36*
G01*
X108225000Y-67800000D02*
X108025000Y-67800000D01*
G75*
G02*
X107925000Y-67700000I0J100000D01*
G01*
X107925000Y-66425000D01*
G75*
G02*
X108025000Y-66325000I100000J0D01*
G01*
X108225000Y-66325000D01*
G75*
G02*
X108325000Y-66425000I0J-100000D01*
G01*
X108325000Y-67700000D01*
G75*
G02*
X108225000Y-67800000I-100000J0D01*
G01*
G37*
G36*
G01*
X107575000Y-67800000D02*
X107375000Y-67800000D01*
G75*
G02*
X107275000Y-67700000I0J100000D01*
G01*
X107275000Y-66425000D01*
G75*
G02*
X107375000Y-66325000I100000J0D01*
G01*
X107575000Y-66325000D01*
G75*
G02*
X107675000Y-66425000I0J-100000D01*
G01*
X107675000Y-67700000D01*
G75*
G02*
X107575000Y-67800000I-100000J0D01*
G01*
G37*
G36*
G01*
X106925000Y-67800000D02*
X106725000Y-67800000D01*
G75*
G02*
X106625000Y-67700000I0J100000D01*
G01*
X106625000Y-66425000D01*
G75*
G02*
X106725000Y-66325000I100000J0D01*
G01*
X106925000Y-66325000D01*
G75*
G02*
X107025000Y-66425000I0J-100000D01*
G01*
X107025000Y-67700000D01*
G75*
G02*
X106925000Y-67800000I-100000J0D01*
G01*
G37*
G36*
G01*
X106275000Y-67800000D02*
X106075000Y-67800000D01*
G75*
G02*
X105975000Y-67700000I0J100000D01*
G01*
X105975000Y-66425000D01*
G75*
G02*
X106075000Y-66325000I100000J0D01*
G01*
X106275000Y-66325000D01*
G75*
G02*
X106375000Y-66425000I0J-100000D01*
G01*
X106375000Y-67700000D01*
G75*
G02*
X106275000Y-67800000I-100000J0D01*
G01*
G37*
G36*
G01*
X105625000Y-67800000D02*
X105425000Y-67800000D01*
G75*
G02*
X105325000Y-67700000I0J100000D01*
G01*
X105325000Y-66425000D01*
G75*
G02*
X105425000Y-66325000I100000J0D01*
G01*
X105625000Y-66325000D01*
G75*
G02*
X105725000Y-66425000I0J-100000D01*
G01*
X105725000Y-67700000D01*
G75*
G02*
X105625000Y-67800000I-100000J0D01*
G01*
G37*
G36*
G01*
X104975000Y-67800000D02*
X104775000Y-67800000D01*
G75*
G02*
X104675000Y-67700000I0J100000D01*
G01*
X104675000Y-66425000D01*
G75*
G02*
X104775000Y-66325000I100000J0D01*
G01*
X104975000Y-66325000D01*
G75*
G02*
X105075000Y-66425000I0J-100000D01*
G01*
X105075000Y-67700000D01*
G75*
G02*
X104975000Y-67800000I-100000J0D01*
G01*
G37*
G36*
G01*
X104325000Y-67800000D02*
X104125000Y-67800000D01*
G75*
G02*
X104025000Y-67700000I0J100000D01*
G01*
X104025000Y-66425000D01*
G75*
G02*
X104125000Y-66325000I100000J0D01*
G01*
X104325000Y-66325000D01*
G75*
G02*
X104425000Y-66425000I0J-100000D01*
G01*
X104425000Y-67700000D01*
G75*
G02*
X104325000Y-67800000I-100000J0D01*
G01*
G37*
D11*
X99825000Y-117600000D03*
X99175000Y-117600000D03*
X98525000Y-117600000D03*
X97875000Y-117600000D03*
X97225000Y-117600000D03*
X96575000Y-117600000D03*
X95925000Y-117600000D03*
X95275000Y-117600000D03*
X94625000Y-117600000D03*
X93975000Y-117600000D03*
X93325000Y-117600000D03*
X92675000Y-117600000D03*
X92025000Y-117600000D03*
X91375000Y-117600000D03*
X91375000Y-110400000D03*
X92025000Y-110400000D03*
X92675000Y-110400000D03*
X93325000Y-110400000D03*
X93975000Y-110400000D03*
X94625000Y-110400000D03*
X95275000Y-110400000D03*
X95925000Y-110400000D03*
X96575000Y-110400000D03*
X97225000Y-110400000D03*
X97875000Y-110400000D03*
X98525000Y-110400000D03*
X99175000Y-110400000D03*
X99825000Y-110400000D03*
G36*
G01*
X123574999Y-140549999D02*
X123574999Y-141450001D01*
G75*
G02*
X123325000Y-141700000I-249999J0D01*
G01*
X122674998Y-141700000D01*
G75*
G02*
X122424999Y-141450001I0J249999D01*
G01*
X122424999Y-140549999D01*
G75*
G02*
X122674998Y-140300000I249999J0D01*
G01*
X123325000Y-140300000D01*
G75*
G02*
X123574999Y-140549999I0J-249999D01*
G01*
G37*
G36*
G01*
X125624999Y-140549999D02*
X125624999Y-141450001D01*
G75*
G02*
X125375000Y-141700000I-249999J0D01*
G01*
X124724998Y-141700000D01*
G75*
G02*
X124474999Y-141450001I0J249999D01*
G01*
X124474999Y-140549999D01*
G75*
G02*
X124724998Y-140300000I249999J0D01*
G01*
X125375000Y-140300000D01*
G75*
G02*
X125624999Y-140549999I0J-249999D01*
G01*
G37*
G36*
G01*
X180974999Y-140149999D02*
X180974999Y-141050001D01*
G75*
G02*
X180725000Y-141300000I-249999J0D01*
G01*
X180074998Y-141300000D01*
G75*
G02*
X179824999Y-141050001I0J249999D01*
G01*
X179824999Y-140149999D01*
G75*
G02*
X180074998Y-139900000I249999J0D01*
G01*
X180725000Y-139900000D01*
G75*
G02*
X180974999Y-140149999I0J-249999D01*
G01*
G37*
G36*
G01*
X183024999Y-140149999D02*
X183024999Y-141050001D01*
G75*
G02*
X182775000Y-141300000I-249999J0D01*
G01*
X182124998Y-141300000D01*
G75*
G02*
X181874999Y-141050001I0J249999D01*
G01*
X181874999Y-140149999D01*
G75*
G02*
X182124998Y-139900000I249999J0D01*
G01*
X182775000Y-139900000D01*
G75*
G02*
X183024999Y-140149999I0J-249999D01*
G01*
G37*
G36*
G01*
X137850000Y-149650001D02*
X137850000Y-148749999D01*
G75*
G02*
X138099999Y-148500000I249999J0D01*
G01*
X138750001Y-148500000D01*
G75*
G02*
X139000000Y-148749999I0J-249999D01*
G01*
X139000000Y-149650001D01*
G75*
G02*
X138750001Y-149900000I-249999J0D01*
G01*
X138099999Y-149900000D01*
G75*
G02*
X137850000Y-149650001I0J249999D01*
G01*
G37*
G36*
G01*
X135800000Y-149650001D02*
X135800000Y-148749999D01*
G75*
G02*
X136049999Y-148500000I249999J0D01*
G01*
X136700001Y-148500000D01*
G75*
G02*
X136950000Y-148749999I0J-249999D01*
G01*
X136950000Y-149650001D01*
G75*
G02*
X136700001Y-149900000I-249999J0D01*
G01*
X136049999Y-149900000D01*
G75*
G02*
X135800000Y-149650001I0J249999D01*
G01*
G37*
G36*
G01*
X195000000Y-149650001D02*
X195000000Y-148749999D01*
G75*
G02*
X195249999Y-148500000I249999J0D01*
G01*
X195900001Y-148500000D01*
G75*
G02*
X196150000Y-148749999I0J-249999D01*
G01*
X196150000Y-149650001D01*
G75*
G02*
X195900001Y-149900000I-249999J0D01*
G01*
X195249999Y-149900000D01*
G75*
G02*
X195000000Y-149650001I0J249999D01*
G01*
G37*
G36*
G01*
X192950000Y-149650001D02*
X192950000Y-148749999D01*
G75*
G02*
X193199999Y-148500000I249999J0D01*
G01*
X193850001Y-148500000D01*
G75*
G02*
X194100000Y-148749999I0J-249999D01*
G01*
X194100000Y-149650001D01*
G75*
G02*
X193850001Y-149900000I-249999J0D01*
G01*
X193199999Y-149900000D01*
G75*
G02*
X192950000Y-149650001I0J249999D01*
G01*
G37*
G36*
G01*
X133150000Y-148749999D02*
X133150000Y-149650001D01*
G75*
G02*
X132900001Y-149900000I-249999J0D01*
G01*
X132249999Y-149900000D01*
G75*
G02*
X132000000Y-149650001I0J249999D01*
G01*
X132000000Y-148749999D01*
G75*
G02*
X132249999Y-148500000I249999J0D01*
G01*
X132900001Y-148500000D01*
G75*
G02*
X133150000Y-148749999I0J-249999D01*
G01*
G37*
G36*
G01*
X135200000Y-148749999D02*
X135200000Y-149650001D01*
G75*
G02*
X134950001Y-149900000I-249999J0D01*
G01*
X134299999Y-149900000D01*
G75*
G02*
X134050000Y-149650001I0J249999D01*
G01*
X134050000Y-148749999D01*
G75*
G02*
X134299999Y-148500000I249999J0D01*
G01*
X134950001Y-148500000D01*
G75*
G02*
X135200000Y-148749999I0J-249999D01*
G01*
G37*
G36*
G01*
X190300000Y-148749999D02*
X190300000Y-149650001D01*
G75*
G02*
X190050001Y-149900000I-249999J0D01*
G01*
X189399999Y-149900000D01*
G75*
G02*
X189150000Y-149650001I0J249999D01*
G01*
X189150000Y-148749999D01*
G75*
G02*
X189399999Y-148500000I249999J0D01*
G01*
X190050001Y-148500000D01*
G75*
G02*
X190300000Y-148749999I0J-249999D01*
G01*
G37*
G36*
G01*
X192350000Y-148749999D02*
X192350000Y-149650001D01*
G75*
G02*
X192100001Y-149900000I-249999J0D01*
G01*
X191449999Y-149900000D01*
G75*
G02*
X191200000Y-149650001I0J249999D01*
G01*
X191200000Y-148749999D01*
G75*
G02*
X191449999Y-148500000I249999J0D01*
G01*
X192100001Y-148500000D01*
G75*
G02*
X192350000Y-148749999I0J-249999D01*
G01*
G37*
G36*
G01*
X126850000Y-149650001D02*
X126850000Y-148749999D01*
G75*
G02*
X127099999Y-148500000I249999J0D01*
G01*
X127750001Y-148500000D01*
G75*
G02*
X128000000Y-148749999I0J-249999D01*
G01*
X128000000Y-149650001D01*
G75*
G02*
X127750001Y-149900000I-249999J0D01*
G01*
X127099999Y-149900000D01*
G75*
G02*
X126850000Y-149650001I0J249999D01*
G01*
G37*
G36*
G01*
X124800000Y-149650001D02*
X124800000Y-148749999D01*
G75*
G02*
X125049999Y-148500000I249999J0D01*
G01*
X125700001Y-148500000D01*
G75*
G02*
X125950000Y-148749999I0J-249999D01*
G01*
X125950000Y-149650001D01*
G75*
G02*
X125700001Y-149900000I-249999J0D01*
G01*
X125049999Y-149900000D01*
G75*
G02*
X124800000Y-149650001I0J249999D01*
G01*
G37*
G36*
G01*
X184000000Y-149650001D02*
X184000000Y-148749999D01*
G75*
G02*
X184249999Y-148500000I249999J0D01*
G01*
X184900001Y-148500000D01*
G75*
G02*
X185150000Y-148749999I0J-249999D01*
G01*
X185150000Y-149650001D01*
G75*
G02*
X184900001Y-149900000I-249999J0D01*
G01*
X184249999Y-149900000D01*
G75*
G02*
X184000000Y-149650001I0J249999D01*
G01*
G37*
G36*
G01*
X181950000Y-149650001D02*
X181950000Y-148749999D01*
G75*
G02*
X182199999Y-148500000I249999J0D01*
G01*
X182850001Y-148500000D01*
G75*
G02*
X183100000Y-148749999I0J-249999D01*
G01*
X183100000Y-149650001D01*
G75*
G02*
X182850001Y-149900000I-249999J0D01*
G01*
X182199999Y-149900000D01*
G75*
G02*
X181950000Y-149650001I0J249999D01*
G01*
G37*
G36*
G01*
X122150000Y-148749999D02*
X122150000Y-149650001D01*
G75*
G02*
X121900001Y-149900000I-249999J0D01*
G01*
X121249999Y-149900000D01*
G75*
G02*
X121000000Y-149650001I0J249999D01*
G01*
X121000000Y-148749999D01*
G75*
G02*
X121249999Y-148500000I249999J0D01*
G01*
X121900001Y-148500000D01*
G75*
G02*
X122150000Y-148749999I0J-249999D01*
G01*
G37*
G36*
G01*
X124200000Y-148749999D02*
X124200000Y-149650001D01*
G75*
G02*
X123950001Y-149900000I-249999J0D01*
G01*
X123299999Y-149900000D01*
G75*
G02*
X123050000Y-149650001I0J249999D01*
G01*
X123050000Y-148749999D01*
G75*
G02*
X123299999Y-148500000I249999J0D01*
G01*
X123950001Y-148500000D01*
G75*
G02*
X124200000Y-148749999I0J-249999D01*
G01*
G37*
G36*
G01*
X179300000Y-148749999D02*
X179300000Y-149650001D01*
G75*
G02*
X179050001Y-149900000I-249999J0D01*
G01*
X178399999Y-149900000D01*
G75*
G02*
X178150000Y-149650001I0J249999D01*
G01*
X178150000Y-148749999D01*
G75*
G02*
X178399999Y-148500000I249999J0D01*
G01*
X179050001Y-148500000D01*
G75*
G02*
X179300000Y-148749999I0J-249999D01*
G01*
G37*
G36*
G01*
X181350000Y-148749999D02*
X181350000Y-149650001D01*
G75*
G02*
X181100001Y-149900000I-249999J0D01*
G01*
X180449999Y-149900000D01*
G75*
G02*
X180200000Y-149650001I0J249999D01*
G01*
X180200000Y-148749999D01*
G75*
G02*
X180449999Y-148500000I249999J0D01*
G01*
X181100001Y-148500000D01*
G75*
G02*
X181350000Y-148749999I0J-249999D01*
G01*
G37*
G36*
G01*
X115450000Y-149650001D02*
X115450000Y-148749999D01*
G75*
G02*
X115699999Y-148500000I249999J0D01*
G01*
X116350001Y-148500000D01*
G75*
G02*
X116600000Y-148749999I0J-249999D01*
G01*
X116600000Y-149650001D01*
G75*
G02*
X116350001Y-149900000I-249999J0D01*
G01*
X115699999Y-149900000D01*
G75*
G02*
X115450000Y-149650001I0J249999D01*
G01*
G37*
G36*
G01*
X113400000Y-149650001D02*
X113400000Y-148749999D01*
G75*
G02*
X113649999Y-148500000I249999J0D01*
G01*
X114300001Y-148500000D01*
G75*
G02*
X114550000Y-148749999I0J-249999D01*
G01*
X114550000Y-149650001D01*
G75*
G02*
X114300001Y-149900000I-249999J0D01*
G01*
X113649999Y-149900000D01*
G75*
G02*
X113400000Y-149650001I0J249999D01*
G01*
G37*
G36*
G01*
X171400000Y-149650001D02*
X171400000Y-148749999D01*
G75*
G02*
X171649999Y-148500000I249999J0D01*
G01*
X172300001Y-148500000D01*
G75*
G02*
X172550000Y-148749999I0J-249999D01*
G01*
X172550000Y-149650001D01*
G75*
G02*
X172300001Y-149900000I-249999J0D01*
G01*
X171649999Y-149900000D01*
G75*
G02*
X171400000Y-149650001I0J249999D01*
G01*
G37*
G36*
G01*
X169350000Y-149650001D02*
X169350000Y-148749999D01*
G75*
G02*
X169599999Y-148500000I249999J0D01*
G01*
X170250001Y-148500000D01*
G75*
G02*
X170500000Y-148749999I0J-249999D01*
G01*
X170500000Y-149650001D01*
G75*
G02*
X170250001Y-149900000I-249999J0D01*
G01*
X169599999Y-149900000D01*
G75*
G02*
X169350000Y-149650001I0J249999D01*
G01*
G37*
G36*
G01*
X110750000Y-148749999D02*
X110750000Y-149650001D01*
G75*
G02*
X110500001Y-149900000I-249999J0D01*
G01*
X109849999Y-149900000D01*
G75*
G02*
X109600000Y-149650001I0J249999D01*
G01*
X109600000Y-148749999D01*
G75*
G02*
X109849999Y-148500000I249999J0D01*
G01*
X110500001Y-148500000D01*
G75*
G02*
X110750000Y-148749999I0J-249999D01*
G01*
G37*
G36*
G01*
X112800000Y-148749999D02*
X112800000Y-149650001D01*
G75*
G02*
X112550001Y-149900000I-249999J0D01*
G01*
X111899999Y-149900000D01*
G75*
G02*
X111650000Y-149650001I0J249999D01*
G01*
X111650000Y-148749999D01*
G75*
G02*
X111899999Y-148500000I249999J0D01*
G01*
X112550001Y-148500000D01*
G75*
G02*
X112800000Y-148749999I0J-249999D01*
G01*
G37*
G36*
G01*
X166700000Y-148749999D02*
X166700000Y-149650001D01*
G75*
G02*
X166450001Y-149900000I-249999J0D01*
G01*
X165799999Y-149900000D01*
G75*
G02*
X165550000Y-149650001I0J249999D01*
G01*
X165550000Y-148749999D01*
G75*
G02*
X165799999Y-148500000I249999J0D01*
G01*
X166450001Y-148500000D01*
G75*
G02*
X166700000Y-148749999I0J-249999D01*
G01*
G37*
G36*
G01*
X168750000Y-148749999D02*
X168750000Y-149650001D01*
G75*
G02*
X168500001Y-149900000I-249999J0D01*
G01*
X167849999Y-149900000D01*
G75*
G02*
X167600000Y-149650001I0J249999D01*
G01*
X167600000Y-148749999D01*
G75*
G02*
X167849999Y-148500000I249999J0D01*
G01*
X168500001Y-148500000D01*
G75*
G02*
X168750000Y-148749999I0J-249999D01*
G01*
G37*
G36*
G01*
X104050000Y-149650001D02*
X104050000Y-148749999D01*
G75*
G02*
X104299999Y-148500000I249999J0D01*
G01*
X104950001Y-148500000D01*
G75*
G02*
X105200000Y-148749999I0J-249999D01*
G01*
X105200000Y-149650001D01*
G75*
G02*
X104950001Y-149900000I-249999J0D01*
G01*
X104299999Y-149900000D01*
G75*
G02*
X104050000Y-149650001I0J249999D01*
G01*
G37*
G36*
G01*
X102000000Y-149650001D02*
X102000000Y-148749999D01*
G75*
G02*
X102249999Y-148500000I249999J0D01*
G01*
X102900001Y-148500000D01*
G75*
G02*
X103150000Y-148749999I0J-249999D01*
G01*
X103150000Y-149650001D01*
G75*
G02*
X102900001Y-149900000I-249999J0D01*
G01*
X102249999Y-149900000D01*
G75*
G02*
X102000000Y-149650001I0J249999D01*
G01*
G37*
G36*
G01*
X159800000Y-149650001D02*
X159800000Y-148749999D01*
G75*
G02*
X160049999Y-148500000I249999J0D01*
G01*
X160700001Y-148500000D01*
G75*
G02*
X160950000Y-148749999I0J-249999D01*
G01*
X160950000Y-149650001D01*
G75*
G02*
X160700001Y-149900000I-249999J0D01*
G01*
X160049999Y-149900000D01*
G75*
G02*
X159800000Y-149650001I0J249999D01*
G01*
G37*
G36*
G01*
X157750000Y-149650001D02*
X157750000Y-148749999D01*
G75*
G02*
X157999999Y-148500000I249999J0D01*
G01*
X158650001Y-148500000D01*
G75*
G02*
X158900000Y-148749999I0J-249999D01*
G01*
X158900000Y-149650001D01*
G75*
G02*
X158650001Y-149900000I-249999J0D01*
G01*
X157999999Y-149900000D01*
G75*
G02*
X157750000Y-149650001I0J249999D01*
G01*
G37*
G36*
G01*
X99350000Y-148749999D02*
X99350000Y-149650001D01*
G75*
G02*
X99100001Y-149900000I-249999J0D01*
G01*
X98449999Y-149900000D01*
G75*
G02*
X98200000Y-149650001I0J249999D01*
G01*
X98200000Y-148749999D01*
G75*
G02*
X98449999Y-148500000I249999J0D01*
G01*
X99100001Y-148500000D01*
G75*
G02*
X99350000Y-148749999I0J-249999D01*
G01*
G37*
G36*
G01*
X101400000Y-148749999D02*
X101400000Y-149650001D01*
G75*
G02*
X101150001Y-149900000I-249999J0D01*
G01*
X100499999Y-149900000D01*
G75*
G02*
X100250000Y-149650001I0J249999D01*
G01*
X100250000Y-148749999D01*
G75*
G02*
X100499999Y-148500000I249999J0D01*
G01*
X101150001Y-148500000D01*
G75*
G02*
X101400000Y-148749999I0J-249999D01*
G01*
G37*
G36*
G01*
X155100000Y-148749999D02*
X155100000Y-149650001D01*
G75*
G02*
X154850001Y-149900000I-249999J0D01*
G01*
X154199999Y-149900000D01*
G75*
G02*
X153950000Y-149650001I0J249999D01*
G01*
X153950000Y-148749999D01*
G75*
G02*
X154199999Y-148500000I249999J0D01*
G01*
X154850001Y-148500000D01*
G75*
G02*
X155100000Y-148749999I0J-249999D01*
G01*
G37*
G36*
G01*
X157150000Y-148749999D02*
X157150000Y-149650001D01*
G75*
G02*
X156900001Y-149900000I-249999J0D01*
G01*
X156249999Y-149900000D01*
G75*
G02*
X156000000Y-149650001I0J249999D01*
G01*
X156000000Y-148749999D01*
G75*
G02*
X156249999Y-148500000I249999J0D01*
G01*
X156900001Y-148500000D01*
G75*
G02*
X157150000Y-148749999I0J-249999D01*
G01*
G37*
G36*
G01*
X92450000Y-149650001D02*
X92450000Y-148749999D01*
G75*
G02*
X92699999Y-148500000I249999J0D01*
G01*
X93350001Y-148500000D01*
G75*
G02*
X93600000Y-148749999I0J-249999D01*
G01*
X93600000Y-149650001D01*
G75*
G02*
X93350001Y-149900000I-249999J0D01*
G01*
X92699999Y-149900000D01*
G75*
G02*
X92450000Y-149650001I0J249999D01*
G01*
G37*
G36*
G01*
X90400000Y-149650001D02*
X90400000Y-148749999D01*
G75*
G02*
X90649999Y-148500000I249999J0D01*
G01*
X91300001Y-148500000D01*
G75*
G02*
X91550000Y-148749999I0J-249999D01*
G01*
X91550000Y-149650001D01*
G75*
G02*
X91300001Y-149900000I-249999J0D01*
G01*
X90649999Y-149900000D01*
G75*
G02*
X90400000Y-149650001I0J249999D01*
G01*
G37*
G36*
G01*
X148800000Y-149650001D02*
X148800000Y-148749999D01*
G75*
G02*
X149049999Y-148500000I249999J0D01*
G01*
X149700001Y-148500000D01*
G75*
G02*
X149950000Y-148749999I0J-249999D01*
G01*
X149950000Y-149650001D01*
G75*
G02*
X149700001Y-149900000I-249999J0D01*
G01*
X149049999Y-149900000D01*
G75*
G02*
X148800000Y-149650001I0J249999D01*
G01*
G37*
G36*
G01*
X146750000Y-149650001D02*
X146750000Y-148749999D01*
G75*
G02*
X146999999Y-148500000I249999J0D01*
G01*
X147650001Y-148500000D01*
G75*
G02*
X147900000Y-148749999I0J-249999D01*
G01*
X147900000Y-149650001D01*
G75*
G02*
X147650001Y-149900000I-249999J0D01*
G01*
X146999999Y-149900000D01*
G75*
G02*
X146750000Y-149650001I0J249999D01*
G01*
G37*
G36*
G01*
X87750000Y-148749999D02*
X87750000Y-149650001D01*
G75*
G02*
X87500001Y-149900000I-249999J0D01*
G01*
X86849999Y-149900000D01*
G75*
G02*
X86600000Y-149650001I0J249999D01*
G01*
X86600000Y-148749999D01*
G75*
G02*
X86849999Y-148500000I249999J0D01*
G01*
X87500001Y-148500000D01*
G75*
G02*
X87750000Y-148749999I0J-249999D01*
G01*
G37*
G36*
G01*
X89800000Y-148749999D02*
X89800000Y-149650001D01*
G75*
G02*
X89550001Y-149900000I-249999J0D01*
G01*
X88899999Y-149900000D01*
G75*
G02*
X88650000Y-149650001I0J249999D01*
G01*
X88650000Y-148749999D01*
G75*
G02*
X88899999Y-148500000I249999J0D01*
G01*
X89550001Y-148500000D01*
G75*
G02*
X89800000Y-148749999I0J-249999D01*
G01*
G37*
G36*
G01*
X144100000Y-148749999D02*
X144100000Y-149650001D01*
G75*
G02*
X143850001Y-149900000I-249999J0D01*
G01*
X143199999Y-149900000D01*
G75*
G02*
X142950000Y-149650001I0J249999D01*
G01*
X142950000Y-148749999D01*
G75*
G02*
X143199999Y-148500000I249999J0D01*
G01*
X143850001Y-148500000D01*
G75*
G02*
X144100000Y-148749999I0J-249999D01*
G01*
G37*
G36*
G01*
X146150000Y-148749999D02*
X146150000Y-149650001D01*
G75*
G02*
X145900001Y-149900000I-249999J0D01*
G01*
X145249999Y-149900000D01*
G75*
G02*
X145000000Y-149650001I0J249999D01*
G01*
X145000000Y-148749999D01*
G75*
G02*
X145249999Y-148500000I249999J0D01*
G01*
X145900001Y-148500000D01*
G75*
G02*
X146150000Y-148749999I0J-249999D01*
G01*
G37*
G36*
G01*
X217349999Y-119650000D02*
X218250001Y-119650000D01*
G75*
G02*
X218500000Y-119899999I0J-249999D01*
G01*
X218500000Y-120550001D01*
G75*
G02*
X218250001Y-120800000I-249999J0D01*
G01*
X217349999Y-120800000D01*
G75*
G02*
X217100000Y-120550001I0J249999D01*
G01*
X217100000Y-119899999D01*
G75*
G02*
X217349999Y-119650000I249999J0D01*
G01*
G37*
G36*
G01*
X217349999Y-117600000D02*
X218250001Y-117600000D01*
G75*
G02*
X218500000Y-117849999I0J-249999D01*
G01*
X218500000Y-118500001D01*
G75*
G02*
X218250001Y-118750000I-249999J0D01*
G01*
X217349999Y-118750000D01*
G75*
G02*
X217100000Y-118500001I0J249999D01*
G01*
X217100000Y-117849999D01*
G75*
G02*
X217349999Y-117600000I249999J0D01*
G01*
G37*
G36*
G01*
X222949999Y-90425000D02*
X223850001Y-90425000D01*
G75*
G02*
X224100000Y-90674999I0J-249999D01*
G01*
X224100000Y-91325001D01*
G75*
G02*
X223850001Y-91575000I-249999J0D01*
G01*
X222949999Y-91575000D01*
G75*
G02*
X222700000Y-91325001I0J249999D01*
G01*
X222700000Y-90674999D01*
G75*
G02*
X222949999Y-90425000I249999J0D01*
G01*
G37*
G36*
G01*
X222949999Y-88375000D02*
X223850001Y-88375000D01*
G75*
G02*
X224100000Y-88624999I0J-249999D01*
G01*
X224100000Y-89275001D01*
G75*
G02*
X223850001Y-89525000I-249999J0D01*
G01*
X222949999Y-89525000D01*
G75*
G02*
X222700000Y-89275001I0J249999D01*
G01*
X222700000Y-88624999D01*
G75*
G02*
X222949999Y-88375000I249999J0D01*
G01*
G37*
G36*
G01*
X213895316Y-62277298D02*
X214531713Y-61640901D01*
G75*
G02*
X214885265Y-61640901I176776J-176776D01*
G01*
X215344886Y-62100522D01*
G75*
G02*
X215344886Y-62454074I-176776J-176776D01*
G01*
X214708489Y-63090471D01*
G75*
G02*
X214354937Y-63090471I-176776J176776D01*
G01*
X213895316Y-62630850D01*
G75*
G02*
X213895316Y-62277298I176776J176776D01*
G01*
G37*
G36*
G01*
X212445748Y-60827730D02*
X213082145Y-60191333D01*
G75*
G02*
X213435697Y-60191333I176776J-176776D01*
G01*
X213895318Y-60650954D01*
G75*
G02*
X213895318Y-61004506I-176776J-176776D01*
G01*
X213258921Y-61640903D01*
G75*
G02*
X212905369Y-61640903I-176776J176776D01*
G01*
X212445748Y-61181282D01*
G75*
G02*
X212445748Y-60827730I176776J176776D01*
G01*
G37*
G36*
G01*
X158450000Y-61650001D02*
X158450000Y-60749999D01*
G75*
G02*
X158699999Y-60500000I249999J0D01*
G01*
X159350001Y-60500000D01*
G75*
G02*
X159600000Y-60749999I0J-249999D01*
G01*
X159600000Y-61650001D01*
G75*
G02*
X159350001Y-61900000I-249999J0D01*
G01*
X158699999Y-61900000D01*
G75*
G02*
X158450000Y-61650001I0J249999D01*
G01*
G37*
G36*
G01*
X156400000Y-61650001D02*
X156400000Y-60749999D01*
G75*
G02*
X156649999Y-60500000I249999J0D01*
G01*
X157300001Y-60500000D01*
G75*
G02*
X157550000Y-60749999I0J-249999D01*
G01*
X157550000Y-61650001D01*
G75*
G02*
X157300001Y-61900000I-249999J0D01*
G01*
X156649999Y-61900000D01*
G75*
G02*
X156400000Y-61650001I0J249999D01*
G01*
G37*
G36*
G01*
X98850000Y-61850001D02*
X98850000Y-60949999D01*
G75*
G02*
X99099999Y-60700000I249999J0D01*
G01*
X99750001Y-60700000D01*
G75*
G02*
X100000000Y-60949999I0J-249999D01*
G01*
X100000000Y-61850001D01*
G75*
G02*
X99750001Y-62100000I-249999J0D01*
G01*
X99099999Y-62100000D01*
G75*
G02*
X98850000Y-61850001I0J249999D01*
G01*
G37*
G36*
G01*
X96800000Y-61850001D02*
X96800000Y-60949999D01*
G75*
G02*
X97049999Y-60700000I249999J0D01*
G01*
X97700001Y-60700000D01*
G75*
G02*
X97950000Y-60949999I0J-249999D01*
G01*
X97950000Y-61850001D01*
G75*
G02*
X97700001Y-62100000I-249999J0D01*
G01*
X97049999Y-62100000D01*
G75*
G02*
X96800000Y-61850001I0J249999D01*
G01*
G37*
G36*
G01*
X243250001Y-133950000D02*
X242349999Y-133950000D01*
G75*
G02*
X242100000Y-133700001I0J249999D01*
G01*
X242100000Y-133049999D01*
G75*
G02*
X242349999Y-132800000I249999J0D01*
G01*
X243250001Y-132800000D01*
G75*
G02*
X243500000Y-133049999I0J-249999D01*
G01*
X243500000Y-133700001D01*
G75*
G02*
X243250001Y-133950000I-249999J0D01*
G01*
G37*
G36*
G01*
X243250001Y-136000000D02*
X242349999Y-136000000D01*
G75*
G02*
X242100000Y-135750001I0J249999D01*
G01*
X242100000Y-135099999D01*
G75*
G02*
X242349999Y-134850000I249999J0D01*
G01*
X243250001Y-134850000D01*
G75*
G02*
X243500000Y-135099999I0J-249999D01*
G01*
X243500000Y-135750001D01*
G75*
G02*
X243250001Y-136000000I-249999J0D01*
G01*
G37*
G36*
G01*
X243250001Y-71550000D02*
X242349999Y-71550000D01*
G75*
G02*
X242100000Y-71300001I0J249999D01*
G01*
X242100000Y-70649999D01*
G75*
G02*
X242349999Y-70400000I249999J0D01*
G01*
X243250001Y-70400000D01*
G75*
G02*
X243500000Y-70649999I0J-249999D01*
G01*
X243500000Y-71300001D01*
G75*
G02*
X243250001Y-71550000I-249999J0D01*
G01*
G37*
G36*
G01*
X243250001Y-73600000D02*
X242349999Y-73600000D01*
G75*
G02*
X242100000Y-73350001I0J249999D01*
G01*
X242100000Y-72699999D01*
G75*
G02*
X242349999Y-72450000I249999J0D01*
G01*
X243250001Y-72450000D01*
G75*
G02*
X243500000Y-72699999I0J-249999D01*
G01*
X243500000Y-73350001D01*
G75*
G02*
X243250001Y-73600000I-249999J0D01*
G01*
G37*
G36*
G01*
X211200000Y-52549999D02*
X211200000Y-53450001D01*
G75*
G02*
X210950001Y-53700000I-249999J0D01*
G01*
X210299999Y-53700000D01*
G75*
G02*
X210050000Y-53450001I0J249999D01*
G01*
X210050000Y-52549999D01*
G75*
G02*
X210299999Y-52300000I249999J0D01*
G01*
X210950001Y-52300000D01*
G75*
G02*
X211200000Y-52549999I0J-249999D01*
G01*
G37*
G36*
G01*
X213250000Y-52549999D02*
X213250000Y-53450001D01*
G75*
G02*
X213000001Y-53700000I-249999J0D01*
G01*
X212349999Y-53700000D01*
G75*
G02*
X212100000Y-53450001I0J249999D01*
G01*
X212100000Y-52549999D01*
G75*
G02*
X212349999Y-52300000I249999J0D01*
G01*
X213000001Y-52300000D01*
G75*
G02*
X213250000Y-52549999I0J-249999D01*
G01*
G37*
G36*
G01*
X142724999Y-52549999D02*
X142724999Y-53450001D01*
G75*
G02*
X142475000Y-53700000I-249999J0D01*
G01*
X141824998Y-53700000D01*
G75*
G02*
X141574999Y-53450001I0J249999D01*
G01*
X141574999Y-52549999D01*
G75*
G02*
X141824998Y-52300000I249999J0D01*
G01*
X142475000Y-52300000D01*
G75*
G02*
X142724999Y-52549999I0J-249999D01*
G01*
G37*
G36*
G01*
X144774999Y-52549999D02*
X144774999Y-53450001D01*
G75*
G02*
X144525000Y-53700000I-249999J0D01*
G01*
X143874998Y-53700000D01*
G75*
G02*
X143624999Y-53450001I0J249999D01*
G01*
X143624999Y-52549999D01*
G75*
G02*
X143874998Y-52300000I249999J0D01*
G01*
X144525000Y-52300000D01*
G75*
G02*
X144774999Y-52549999I0J-249999D01*
G01*
G37*
G36*
G01*
X83550000Y-52549999D02*
X83550000Y-53450001D01*
G75*
G02*
X83300001Y-53700000I-249999J0D01*
G01*
X82649999Y-53700000D01*
G75*
G02*
X82400000Y-53450001I0J249999D01*
G01*
X82400000Y-52549999D01*
G75*
G02*
X82649999Y-52300000I249999J0D01*
G01*
X83300001Y-52300000D01*
G75*
G02*
X83550000Y-52549999I0J-249999D01*
G01*
G37*
G36*
G01*
X85600000Y-52549999D02*
X85600000Y-53450001D01*
G75*
G02*
X85350001Y-53700000I-249999J0D01*
G01*
X84699999Y-53700000D01*
G75*
G02*
X84450000Y-53450001I0J249999D01*
G01*
X84450000Y-52549999D01*
G75*
G02*
X84699999Y-52300000I249999J0D01*
G01*
X85350001Y-52300000D01*
G75*
G02*
X85600000Y-52549999I0J-249999D01*
G01*
G37*
G36*
G01*
X242349999Y-138650000D02*
X243250001Y-138650000D01*
G75*
G02*
X243500000Y-138899999I0J-249999D01*
G01*
X243500000Y-139550001D01*
G75*
G02*
X243250001Y-139800000I-249999J0D01*
G01*
X242349999Y-139800000D01*
G75*
G02*
X242100000Y-139550001I0J249999D01*
G01*
X242100000Y-138899999D01*
G75*
G02*
X242349999Y-138650000I249999J0D01*
G01*
G37*
G36*
G01*
X242349999Y-136600000D02*
X243250001Y-136600000D01*
G75*
G02*
X243500000Y-136849999I0J-249999D01*
G01*
X243500000Y-137500001D01*
G75*
G02*
X243250001Y-137750000I-249999J0D01*
G01*
X242349999Y-137750000D01*
G75*
G02*
X242100000Y-137500001I0J249999D01*
G01*
X242100000Y-136849999D01*
G75*
G02*
X242349999Y-136600000I249999J0D01*
G01*
G37*
G36*
G01*
X242349999Y-76250000D02*
X243250001Y-76250000D01*
G75*
G02*
X243500000Y-76499999I0J-249999D01*
G01*
X243500000Y-77150001D01*
G75*
G02*
X243250001Y-77400000I-249999J0D01*
G01*
X242349999Y-77400000D01*
G75*
G02*
X242100000Y-77150001I0J249999D01*
G01*
X242100000Y-76499999D01*
G75*
G02*
X242349999Y-76250000I249999J0D01*
G01*
G37*
G36*
G01*
X242349999Y-74200000D02*
X243250001Y-74200000D01*
G75*
G02*
X243500000Y-74449999I0J-249999D01*
G01*
X243500000Y-75100001D01*
G75*
G02*
X243250001Y-75350000I-249999J0D01*
G01*
X242349999Y-75350000D01*
G75*
G02*
X242100000Y-75100001I0J249999D01*
G01*
X242100000Y-74449999D01*
G75*
G02*
X242349999Y-74200000I249999J0D01*
G01*
G37*
G36*
G01*
X215900000Y-53450001D02*
X215900000Y-52549999D01*
G75*
G02*
X216149999Y-52300000I249999J0D01*
G01*
X216800001Y-52300000D01*
G75*
G02*
X217050000Y-52549999I0J-249999D01*
G01*
X217050000Y-53450001D01*
G75*
G02*
X216800001Y-53700000I-249999J0D01*
G01*
X216149999Y-53700000D01*
G75*
G02*
X215900000Y-53450001I0J249999D01*
G01*
G37*
G36*
G01*
X213850000Y-53450001D02*
X213850000Y-52549999D01*
G75*
G02*
X214099999Y-52300000I249999J0D01*
G01*
X214750001Y-52300000D01*
G75*
G02*
X215000000Y-52549999I0J-249999D01*
G01*
X215000000Y-53450001D01*
G75*
G02*
X214750001Y-53700000I-249999J0D01*
G01*
X214099999Y-53700000D01*
G75*
G02*
X213850000Y-53450001I0J249999D01*
G01*
G37*
G36*
G01*
X147475000Y-53450001D02*
X147475000Y-52549999D01*
G75*
G02*
X147724999Y-52300000I249999J0D01*
G01*
X148375001Y-52300000D01*
G75*
G02*
X148625000Y-52549999I0J-249999D01*
G01*
X148625000Y-53450001D01*
G75*
G02*
X148375001Y-53700000I-249999J0D01*
G01*
X147724999Y-53700000D01*
G75*
G02*
X147475000Y-53450001I0J249999D01*
G01*
G37*
G36*
G01*
X145425000Y-53450001D02*
X145425000Y-52549999D01*
G75*
G02*
X145674999Y-52300000I249999J0D01*
G01*
X146325001Y-52300000D01*
G75*
G02*
X146575000Y-52549999I0J-249999D01*
G01*
X146575000Y-53450001D01*
G75*
G02*
X146325001Y-53700000I-249999J0D01*
G01*
X145674999Y-53700000D01*
G75*
G02*
X145425000Y-53450001I0J249999D01*
G01*
G37*
G36*
G01*
X88250000Y-53450001D02*
X88250000Y-52549999D01*
G75*
G02*
X88499999Y-52300000I249999J0D01*
G01*
X89150001Y-52300000D01*
G75*
G02*
X89400000Y-52549999I0J-249999D01*
G01*
X89400000Y-53450001D01*
G75*
G02*
X89150001Y-53700000I-249999J0D01*
G01*
X88499999Y-53700000D01*
G75*
G02*
X88250000Y-53450001I0J249999D01*
G01*
G37*
G36*
G01*
X86200000Y-53450001D02*
X86200000Y-52549999D01*
G75*
G02*
X86449999Y-52300000I249999J0D01*
G01*
X87100001Y-52300000D01*
G75*
G02*
X87350000Y-52549999I0J-249999D01*
G01*
X87350000Y-53450001D01*
G75*
G02*
X87100001Y-53700000I-249999J0D01*
G01*
X86449999Y-53700000D01*
G75*
G02*
X86200000Y-53450001I0J249999D01*
G01*
G37*
G36*
G01*
X242906676Y-143219671D02*
X242270279Y-142583274D01*
G75*
G02*
X242270279Y-142229722I176776J176776D01*
G01*
X242729900Y-141770101D01*
G75*
G02*
X243083452Y-141770101I176776J-176776D01*
G01*
X243719849Y-142406498D01*
G75*
G02*
X243719849Y-142760050I-176776J-176776D01*
G01*
X243260228Y-143219671D01*
G75*
G02*
X242906676Y-143219671I-176776J176776D01*
G01*
G37*
G36*
G01*
X241457108Y-144669239D02*
X240820711Y-144032842D01*
G75*
G02*
X240820711Y-143679290I176776J176776D01*
G01*
X241280332Y-143219669D01*
G75*
G02*
X241633884Y-143219669I176776J-176776D01*
G01*
X242270281Y-143856066D01*
G75*
G02*
X242270281Y-144209618I-176776J-176776D01*
G01*
X241810660Y-144669239D01*
G75*
G02*
X241457108Y-144669239I-176776J176776D01*
G01*
G37*
G36*
G01*
X243250001Y-85350000D02*
X242349999Y-85350000D01*
G75*
G02*
X242100000Y-85100001I0J249999D01*
G01*
X242100000Y-84449999D01*
G75*
G02*
X242349999Y-84200000I249999J0D01*
G01*
X243250001Y-84200000D01*
G75*
G02*
X243500000Y-84449999I0J-249999D01*
G01*
X243500000Y-85100001D01*
G75*
G02*
X243250001Y-85350000I-249999J0D01*
G01*
G37*
G36*
G01*
X243250001Y-87400000D02*
X242349999Y-87400000D01*
G75*
G02*
X242100000Y-87150001I0J249999D01*
G01*
X242100000Y-86499999D01*
G75*
G02*
X242349999Y-86250000I249999J0D01*
G01*
X243250001Y-86250000D01*
G75*
G02*
X243500000Y-86499999I0J-249999D01*
G01*
X243500000Y-87150001D01*
G75*
G02*
X243250001Y-87400000I-249999J0D01*
G01*
G37*
G36*
G01*
X221100000Y-52549999D02*
X221100000Y-53450001D01*
G75*
G02*
X220850001Y-53700000I-249999J0D01*
G01*
X220199999Y-53700000D01*
G75*
G02*
X219950000Y-53450001I0J249999D01*
G01*
X219950000Y-52549999D01*
G75*
G02*
X220199999Y-52300000I249999J0D01*
G01*
X220850001Y-52300000D01*
G75*
G02*
X221100000Y-52549999I0J-249999D01*
G01*
G37*
G36*
G01*
X223150000Y-52549999D02*
X223150000Y-53450001D01*
G75*
G02*
X222900001Y-53700000I-249999J0D01*
G01*
X222249999Y-53700000D01*
G75*
G02*
X222000000Y-53450001I0J249999D01*
G01*
X222000000Y-52549999D01*
G75*
G02*
X222249999Y-52300000I249999J0D01*
G01*
X222900001Y-52300000D01*
G75*
G02*
X223150000Y-52549999I0J-249999D01*
G01*
G37*
G36*
G01*
X155200000Y-52549999D02*
X155200000Y-53450001D01*
G75*
G02*
X154950001Y-53700000I-249999J0D01*
G01*
X154299999Y-53700000D01*
G75*
G02*
X154050000Y-53450001I0J249999D01*
G01*
X154050000Y-52549999D01*
G75*
G02*
X154299999Y-52300000I249999J0D01*
G01*
X154950001Y-52300000D01*
G75*
G02*
X155200000Y-52549999I0J-249999D01*
G01*
G37*
G36*
G01*
X157250000Y-52549999D02*
X157250000Y-53450001D01*
G75*
G02*
X157000001Y-53700000I-249999J0D01*
G01*
X156349999Y-53700000D01*
G75*
G02*
X156100000Y-53450001I0J249999D01*
G01*
X156100000Y-52549999D01*
G75*
G02*
X156349999Y-52300000I249999J0D01*
G01*
X157000001Y-52300000D01*
G75*
G02*
X157250000Y-52549999I0J-249999D01*
G01*
G37*
G36*
G01*
X92950000Y-52549999D02*
X92950000Y-53450001D01*
G75*
G02*
X92700001Y-53700000I-249999J0D01*
G01*
X92049999Y-53700000D01*
G75*
G02*
X91800000Y-53450001I0J249999D01*
G01*
X91800000Y-52549999D01*
G75*
G02*
X92049999Y-52300000I249999J0D01*
G01*
X92700001Y-52300000D01*
G75*
G02*
X92950000Y-52549999I0J-249999D01*
G01*
G37*
G36*
G01*
X95000000Y-52549999D02*
X95000000Y-53450001D01*
G75*
G02*
X94750001Y-53700000I-249999J0D01*
G01*
X94099999Y-53700000D01*
G75*
G02*
X93850000Y-53450001I0J249999D01*
G01*
X93850000Y-52549999D01*
G75*
G02*
X94099999Y-52300000I249999J0D01*
G01*
X94750001Y-52300000D01*
G75*
G02*
X95000000Y-52549999I0J-249999D01*
G01*
G37*
G36*
G01*
X238946878Y-145906675D02*
X239583275Y-146543072D01*
G75*
G02*
X239583275Y-146896624I-176776J-176776D01*
G01*
X239123654Y-147356245D01*
G75*
G02*
X238770102Y-147356245I-176776J176776D01*
G01*
X238133705Y-146719848D01*
G75*
G02*
X238133705Y-146366296I176776J176776D01*
G01*
X238593326Y-145906675D01*
G75*
G02*
X238946878Y-145906675I176776J-176776D01*
G01*
G37*
G36*
G01*
X240396446Y-144457107D02*
X241032843Y-145093504D01*
G75*
G02*
X241032843Y-145447056I-176776J-176776D01*
G01*
X240573222Y-145906677D01*
G75*
G02*
X240219670Y-145906677I-176776J176776D01*
G01*
X239583273Y-145270280D01*
G75*
G02*
X239583273Y-144916728I176776J176776D01*
G01*
X240042894Y-144457107D01*
G75*
G02*
X240396446Y-144457107I176776J-176776D01*
G01*
G37*
G36*
G01*
X242349999Y-90050000D02*
X243250001Y-90050000D01*
G75*
G02*
X243500000Y-90299999I0J-249999D01*
G01*
X243500000Y-90950001D01*
G75*
G02*
X243250001Y-91200000I-249999J0D01*
G01*
X242349999Y-91200000D01*
G75*
G02*
X242100000Y-90950001I0J249999D01*
G01*
X242100000Y-90299999D01*
G75*
G02*
X242349999Y-90050000I249999J0D01*
G01*
G37*
G36*
G01*
X242349999Y-88000000D02*
X243250001Y-88000000D01*
G75*
G02*
X243500000Y-88249999I0J-249999D01*
G01*
X243500000Y-88900001D01*
G75*
G02*
X243250001Y-89150000I-249999J0D01*
G01*
X242349999Y-89150000D01*
G75*
G02*
X242100000Y-88900001I0J249999D01*
G01*
X242100000Y-88249999D01*
G75*
G02*
X242349999Y-88000000I249999J0D01*
G01*
G37*
G36*
G01*
X225800000Y-53450001D02*
X225800000Y-52549999D01*
G75*
G02*
X226049999Y-52300000I249999J0D01*
G01*
X226700001Y-52300000D01*
G75*
G02*
X226950000Y-52549999I0J-249999D01*
G01*
X226950000Y-53450001D01*
G75*
G02*
X226700001Y-53700000I-249999J0D01*
G01*
X226049999Y-53700000D01*
G75*
G02*
X225800000Y-53450001I0J249999D01*
G01*
G37*
G36*
G01*
X223750000Y-53450001D02*
X223750000Y-52549999D01*
G75*
G02*
X223999999Y-52300000I249999J0D01*
G01*
X224650001Y-52300000D01*
G75*
G02*
X224900000Y-52549999I0J-249999D01*
G01*
X224900000Y-53450001D01*
G75*
G02*
X224650001Y-53700000I-249999J0D01*
G01*
X223999999Y-53700000D01*
G75*
G02*
X223750000Y-53450001I0J249999D01*
G01*
G37*
G36*
G01*
X159900000Y-53450001D02*
X159900000Y-52549999D01*
G75*
G02*
X160149999Y-52300000I249999J0D01*
G01*
X160800001Y-52300000D01*
G75*
G02*
X161050000Y-52549999I0J-249999D01*
G01*
X161050000Y-53450001D01*
G75*
G02*
X160800001Y-53700000I-249999J0D01*
G01*
X160149999Y-53700000D01*
G75*
G02*
X159900000Y-53450001I0J249999D01*
G01*
G37*
G36*
G01*
X157850000Y-53450001D02*
X157850000Y-52549999D01*
G75*
G02*
X158099999Y-52300000I249999J0D01*
G01*
X158750001Y-52300000D01*
G75*
G02*
X159000000Y-52549999I0J-249999D01*
G01*
X159000000Y-53450001D01*
G75*
G02*
X158750001Y-53700000I-249999J0D01*
G01*
X158099999Y-53700000D01*
G75*
G02*
X157850000Y-53450001I0J249999D01*
G01*
G37*
G36*
G01*
X97650000Y-53450001D02*
X97650000Y-52549999D01*
G75*
G02*
X97899999Y-52300000I249999J0D01*
G01*
X98550001Y-52300000D01*
G75*
G02*
X98800000Y-52549999I0J-249999D01*
G01*
X98800000Y-53450001D01*
G75*
G02*
X98550001Y-53700000I-249999J0D01*
G01*
X97899999Y-53700000D01*
G75*
G02*
X97650000Y-53450001I0J249999D01*
G01*
G37*
G36*
G01*
X95600000Y-53450001D02*
X95600000Y-52549999D01*
G75*
G02*
X95849999Y-52300000I249999J0D01*
G01*
X96500001Y-52300000D01*
G75*
G02*
X96750000Y-52549999I0J-249999D01*
G01*
X96750000Y-53450001D01*
G75*
G02*
X96500001Y-53700000I-249999J0D01*
G01*
X95849999Y-53700000D01*
G75*
G02*
X95600000Y-53450001I0J249999D01*
G01*
G37*
G36*
G01*
X236850000Y-149650001D02*
X236850000Y-148749999D01*
G75*
G02*
X237099999Y-148500000I249999J0D01*
G01*
X237750001Y-148500000D01*
G75*
G02*
X238000000Y-148749999I0J-249999D01*
G01*
X238000000Y-149650001D01*
G75*
G02*
X237750001Y-149900000I-249999J0D01*
G01*
X237099999Y-149900000D01*
G75*
G02*
X236850000Y-149650001I0J249999D01*
G01*
G37*
G36*
G01*
X234800000Y-149650001D02*
X234800000Y-148749999D01*
G75*
G02*
X235049999Y-148500000I249999J0D01*
G01*
X235700001Y-148500000D01*
G75*
G02*
X235950000Y-148749999I0J-249999D01*
G01*
X235950000Y-149650001D01*
G75*
G02*
X235700001Y-149900000I-249999J0D01*
G01*
X235049999Y-149900000D01*
G75*
G02*
X234800000Y-149650001I0J249999D01*
G01*
G37*
G36*
G01*
X243250001Y-97550000D02*
X242349999Y-97550000D01*
G75*
G02*
X242100000Y-97300001I0J249999D01*
G01*
X242100000Y-96649999D01*
G75*
G02*
X242349999Y-96400000I249999J0D01*
G01*
X243250001Y-96400000D01*
G75*
G02*
X243500000Y-96649999I0J-249999D01*
G01*
X243500000Y-97300001D01*
G75*
G02*
X243250001Y-97550000I-249999J0D01*
G01*
G37*
G36*
G01*
X243250001Y-99600000D02*
X242349999Y-99600000D01*
G75*
G02*
X242100000Y-99350001I0J249999D01*
G01*
X242100000Y-98699999D01*
G75*
G02*
X242349999Y-98450000I249999J0D01*
G01*
X243250001Y-98450000D01*
G75*
G02*
X243500000Y-98699999I0J-249999D01*
G01*
X243500000Y-99350001D01*
G75*
G02*
X243250001Y-99600000I-249999J0D01*
G01*
G37*
G36*
G01*
X230000000Y-52549999D02*
X230000000Y-53450001D01*
G75*
G02*
X229750001Y-53700000I-249999J0D01*
G01*
X229099999Y-53700000D01*
G75*
G02*
X228850000Y-53450001I0J249999D01*
G01*
X228850000Y-52549999D01*
G75*
G02*
X229099999Y-52300000I249999J0D01*
G01*
X229750001Y-52300000D01*
G75*
G02*
X230000000Y-52549999I0J-249999D01*
G01*
G37*
G36*
G01*
X232050000Y-52549999D02*
X232050000Y-53450001D01*
G75*
G02*
X231800001Y-53700000I-249999J0D01*
G01*
X231149999Y-53700000D01*
G75*
G02*
X230900000Y-53450001I0J249999D01*
G01*
X230900000Y-52549999D01*
G75*
G02*
X231149999Y-52300000I249999J0D01*
G01*
X231800001Y-52300000D01*
G75*
G02*
X232050000Y-52549999I0J-249999D01*
G01*
G37*
G36*
G01*
X165800000Y-52549999D02*
X165800000Y-53450001D01*
G75*
G02*
X165550001Y-53700000I-249999J0D01*
G01*
X164899999Y-53700000D01*
G75*
G02*
X164650000Y-53450001I0J249999D01*
G01*
X164650000Y-52549999D01*
G75*
G02*
X164899999Y-52300000I249999J0D01*
G01*
X165550001Y-52300000D01*
G75*
G02*
X165800000Y-52549999I0J-249999D01*
G01*
G37*
G36*
G01*
X167850000Y-52549999D02*
X167850000Y-53450001D01*
G75*
G02*
X167600001Y-53700000I-249999J0D01*
G01*
X166949999Y-53700000D01*
G75*
G02*
X166700000Y-53450001I0J249999D01*
G01*
X166700000Y-52549999D01*
G75*
G02*
X166949999Y-52300000I249999J0D01*
G01*
X167600001Y-52300000D01*
G75*
G02*
X167850000Y-52549999I0J-249999D01*
G01*
G37*
G36*
G01*
X104550000Y-52549999D02*
X104550000Y-53450001D01*
G75*
G02*
X104300001Y-53700000I-249999J0D01*
G01*
X103649999Y-53700000D01*
G75*
G02*
X103400000Y-53450001I0J249999D01*
G01*
X103400000Y-52549999D01*
G75*
G02*
X103649999Y-52300000I249999J0D01*
G01*
X104300001Y-52300000D01*
G75*
G02*
X104550000Y-52549999I0J-249999D01*
G01*
G37*
G36*
G01*
X106600000Y-52549999D02*
X106600000Y-53450001D01*
G75*
G02*
X106350001Y-53700000I-249999J0D01*
G01*
X105699999Y-53700000D01*
G75*
G02*
X105450000Y-53450001I0J249999D01*
G01*
X105450000Y-52549999D01*
G75*
G02*
X105699999Y-52300000I249999J0D01*
G01*
X106350001Y-52300000D01*
G75*
G02*
X106600000Y-52549999I0J-249999D01*
G01*
G37*
G36*
G01*
X232150000Y-148749999D02*
X232150000Y-149650001D01*
G75*
G02*
X231900001Y-149900000I-249999J0D01*
G01*
X231249999Y-149900000D01*
G75*
G02*
X231000000Y-149650001I0J249999D01*
G01*
X231000000Y-148749999D01*
G75*
G02*
X231249999Y-148500000I249999J0D01*
G01*
X231900001Y-148500000D01*
G75*
G02*
X232150000Y-148749999I0J-249999D01*
G01*
G37*
G36*
G01*
X234200000Y-148749999D02*
X234200000Y-149650001D01*
G75*
G02*
X233950001Y-149900000I-249999J0D01*
G01*
X233299999Y-149900000D01*
G75*
G02*
X233050000Y-149650001I0J249999D01*
G01*
X233050000Y-148749999D01*
G75*
G02*
X233299999Y-148500000I249999J0D01*
G01*
X233950001Y-148500000D01*
G75*
G02*
X234200000Y-148749999I0J-249999D01*
G01*
G37*
G36*
G01*
X242349999Y-102250000D02*
X243250001Y-102250000D01*
G75*
G02*
X243500000Y-102499999I0J-249999D01*
G01*
X243500000Y-103150001D01*
G75*
G02*
X243250001Y-103400000I-249999J0D01*
G01*
X242349999Y-103400000D01*
G75*
G02*
X242100000Y-103150001I0J249999D01*
G01*
X242100000Y-102499999D01*
G75*
G02*
X242349999Y-102250000I249999J0D01*
G01*
G37*
G36*
G01*
X242349999Y-100200000D02*
X243250001Y-100200000D01*
G75*
G02*
X243500000Y-100449999I0J-249999D01*
G01*
X243500000Y-101100001D01*
G75*
G02*
X243250001Y-101350000I-249999J0D01*
G01*
X242349999Y-101350000D01*
G75*
G02*
X242100000Y-101100001I0J249999D01*
G01*
X242100000Y-100449999D01*
G75*
G02*
X242349999Y-100200000I249999J0D01*
G01*
G37*
G36*
G01*
X234700000Y-53450001D02*
X234700000Y-52549999D01*
G75*
G02*
X234949999Y-52300000I249999J0D01*
G01*
X235600001Y-52300000D01*
G75*
G02*
X235850000Y-52549999I0J-249999D01*
G01*
X235850000Y-53450001D01*
G75*
G02*
X235600001Y-53700000I-249999J0D01*
G01*
X234949999Y-53700000D01*
G75*
G02*
X234700000Y-53450001I0J249999D01*
G01*
G37*
G36*
G01*
X232650000Y-53450001D02*
X232650000Y-52549999D01*
G75*
G02*
X232899999Y-52300000I249999J0D01*
G01*
X233550001Y-52300000D01*
G75*
G02*
X233800000Y-52549999I0J-249999D01*
G01*
X233800000Y-53450001D01*
G75*
G02*
X233550001Y-53700000I-249999J0D01*
G01*
X232899999Y-53700000D01*
G75*
G02*
X232650000Y-53450001I0J249999D01*
G01*
G37*
G36*
G01*
X170500000Y-53450001D02*
X170500000Y-52549999D01*
G75*
G02*
X170749999Y-52300000I249999J0D01*
G01*
X171400001Y-52300000D01*
G75*
G02*
X171650000Y-52549999I0J-249999D01*
G01*
X171650000Y-53450001D01*
G75*
G02*
X171400001Y-53700000I-249999J0D01*
G01*
X170749999Y-53700000D01*
G75*
G02*
X170500000Y-53450001I0J249999D01*
G01*
G37*
G36*
G01*
X168450000Y-53450001D02*
X168450000Y-52549999D01*
G75*
G02*
X168699999Y-52300000I249999J0D01*
G01*
X169350001Y-52300000D01*
G75*
G02*
X169600000Y-52549999I0J-249999D01*
G01*
X169600000Y-53450001D01*
G75*
G02*
X169350001Y-53700000I-249999J0D01*
G01*
X168699999Y-53700000D01*
G75*
G02*
X168450000Y-53450001I0J249999D01*
G01*
G37*
G36*
G01*
X109250000Y-53450001D02*
X109250000Y-52549999D01*
G75*
G02*
X109499999Y-52300000I249999J0D01*
G01*
X110150001Y-52300000D01*
G75*
G02*
X110400000Y-52549999I0J-249999D01*
G01*
X110400000Y-53450001D01*
G75*
G02*
X110150001Y-53700000I-249999J0D01*
G01*
X109499999Y-53700000D01*
G75*
G02*
X109250000Y-53450001I0J249999D01*
G01*
G37*
G36*
G01*
X107200000Y-53450001D02*
X107200000Y-52549999D01*
G75*
G02*
X107449999Y-52300000I249999J0D01*
G01*
X108100001Y-52300000D01*
G75*
G02*
X108350000Y-52549999I0J-249999D01*
G01*
X108350000Y-53450001D01*
G75*
G02*
X108100001Y-53700000I-249999J0D01*
G01*
X107449999Y-53700000D01*
G75*
G02*
X107200000Y-53450001I0J249999D01*
G01*
G37*
G36*
G01*
X224350000Y-149650001D02*
X224350000Y-148749999D01*
G75*
G02*
X224599999Y-148500000I249999J0D01*
G01*
X225250001Y-148500000D01*
G75*
G02*
X225500000Y-148749999I0J-249999D01*
G01*
X225500000Y-149650001D01*
G75*
G02*
X225250001Y-149900000I-249999J0D01*
G01*
X224599999Y-149900000D01*
G75*
G02*
X224350000Y-149650001I0J249999D01*
G01*
G37*
G36*
G01*
X222300000Y-149650001D02*
X222300000Y-148749999D01*
G75*
G02*
X222549999Y-148500000I249999J0D01*
G01*
X223200001Y-148500000D01*
G75*
G02*
X223450000Y-148749999I0J-249999D01*
G01*
X223450000Y-149650001D01*
G75*
G02*
X223200001Y-149900000I-249999J0D01*
G01*
X222549999Y-149900000D01*
G75*
G02*
X222300000Y-149650001I0J249999D01*
G01*
G37*
G36*
G01*
X243250001Y-109950000D02*
X242349999Y-109950000D01*
G75*
G02*
X242100000Y-109700001I0J249999D01*
G01*
X242100000Y-109049999D01*
G75*
G02*
X242349999Y-108800000I249999J0D01*
G01*
X243250001Y-108800000D01*
G75*
G02*
X243500000Y-109049999I0J-249999D01*
G01*
X243500000Y-109700001D01*
G75*
G02*
X243250001Y-109950000I-249999J0D01*
G01*
G37*
G36*
G01*
X243250001Y-112000000D02*
X242349999Y-112000000D01*
G75*
G02*
X242100000Y-111750001I0J249999D01*
G01*
X242100000Y-111099999D01*
G75*
G02*
X242349999Y-110850000I249999J0D01*
G01*
X243250001Y-110850000D01*
G75*
G02*
X243500000Y-111099999I0J-249999D01*
G01*
X243500000Y-111750001D01*
G75*
G02*
X243250001Y-112000000I-249999J0D01*
G01*
G37*
G36*
G01*
X239267589Y-53979721D02*
X238631192Y-54616118D01*
G75*
G02*
X238277640Y-54616118I-176776J176776D01*
G01*
X237818019Y-54156497D01*
G75*
G02*
X237818019Y-53802945I176776J176776D01*
G01*
X238454416Y-53166548D01*
G75*
G02*
X238807968Y-53166548I176776J-176776D01*
G01*
X239267589Y-53626169D01*
G75*
G02*
X239267589Y-53979721I-176776J-176776D01*
G01*
G37*
G36*
G01*
X240717157Y-55429289D02*
X240080760Y-56065686D01*
G75*
G02*
X239727208Y-56065686I-176776J176776D01*
G01*
X239267587Y-55606065D01*
G75*
G02*
X239267587Y-55252513I176776J176776D01*
G01*
X239903984Y-54616116D01*
G75*
G02*
X240257536Y-54616116I176776J-176776D01*
G01*
X240717157Y-55075737D01*
G75*
G02*
X240717157Y-55429289I-176776J-176776D01*
G01*
G37*
G36*
G01*
X175800000Y-52649999D02*
X175800000Y-53550001D01*
G75*
G02*
X175550001Y-53800000I-249999J0D01*
G01*
X174899999Y-53800000D01*
G75*
G02*
X174650000Y-53550001I0J249999D01*
G01*
X174650000Y-52649999D01*
G75*
G02*
X174899999Y-52400000I249999J0D01*
G01*
X175550001Y-52400000D01*
G75*
G02*
X175800000Y-52649999I0J-249999D01*
G01*
G37*
G36*
G01*
X177850000Y-52649999D02*
X177850000Y-53550001D01*
G75*
G02*
X177600001Y-53800000I-249999J0D01*
G01*
X176949999Y-53800000D01*
G75*
G02*
X176700000Y-53550001I0J249999D01*
G01*
X176700000Y-52649999D01*
G75*
G02*
X176949999Y-52400000I249999J0D01*
G01*
X177600001Y-52400000D01*
G75*
G02*
X177850000Y-52649999I0J-249999D01*
G01*
G37*
G36*
G01*
X115550000Y-52549999D02*
X115550000Y-53450001D01*
G75*
G02*
X115300001Y-53700000I-249999J0D01*
G01*
X114649999Y-53700000D01*
G75*
G02*
X114400000Y-53450001I0J249999D01*
G01*
X114400000Y-52549999D01*
G75*
G02*
X114649999Y-52300000I249999J0D01*
G01*
X115300001Y-52300000D01*
G75*
G02*
X115550000Y-52549999I0J-249999D01*
G01*
G37*
G36*
G01*
X117600000Y-52549999D02*
X117600000Y-53450001D01*
G75*
G02*
X117350001Y-53700000I-249999J0D01*
G01*
X116699999Y-53700000D01*
G75*
G02*
X116450000Y-53450001I0J249999D01*
G01*
X116450000Y-52549999D01*
G75*
G02*
X116699999Y-52300000I249999J0D01*
G01*
X117350001Y-52300000D01*
G75*
G02*
X117600000Y-52549999I0J-249999D01*
G01*
G37*
G36*
G01*
X219650000Y-148749999D02*
X219650000Y-149650001D01*
G75*
G02*
X219400001Y-149900000I-249999J0D01*
G01*
X218749999Y-149900000D01*
G75*
G02*
X218500000Y-149650001I0J249999D01*
G01*
X218500000Y-148749999D01*
G75*
G02*
X218749999Y-148500000I249999J0D01*
G01*
X219400001Y-148500000D01*
G75*
G02*
X219650000Y-148749999I0J-249999D01*
G01*
G37*
G36*
G01*
X221700000Y-148749999D02*
X221700000Y-149650001D01*
G75*
G02*
X221450001Y-149900000I-249999J0D01*
G01*
X220799999Y-149900000D01*
G75*
G02*
X220550000Y-149650001I0J249999D01*
G01*
X220550000Y-148749999D01*
G75*
G02*
X220799999Y-148500000I249999J0D01*
G01*
X221450001Y-148500000D01*
G75*
G02*
X221700000Y-148749999I0J-249999D01*
G01*
G37*
G36*
G01*
X242349999Y-114650000D02*
X243250001Y-114650000D01*
G75*
G02*
X243500000Y-114899999I0J-249999D01*
G01*
X243500000Y-115550001D01*
G75*
G02*
X243250001Y-115800000I-249999J0D01*
G01*
X242349999Y-115800000D01*
G75*
G02*
X242100000Y-115550001I0J249999D01*
G01*
X242100000Y-114899999D01*
G75*
G02*
X242349999Y-114650000I249999J0D01*
G01*
G37*
G36*
G01*
X242349999Y-112600000D02*
X243250001Y-112600000D01*
G75*
G02*
X243500000Y-112849999I0J-249999D01*
G01*
X243500000Y-113500001D01*
G75*
G02*
X243250001Y-113750000I-249999J0D01*
G01*
X242349999Y-113750000D01*
G75*
G02*
X242100000Y-113500001I0J249999D01*
G01*
X242100000Y-112849999D01*
G75*
G02*
X242349999Y-112600000I249999J0D01*
G01*
G37*
G36*
G01*
X241954593Y-57939518D02*
X242590990Y-57303121D01*
G75*
G02*
X242944542Y-57303121I176776J-176776D01*
G01*
X243404163Y-57762742D01*
G75*
G02*
X243404163Y-58116294I-176776J-176776D01*
G01*
X242767766Y-58752691D01*
G75*
G02*
X242414214Y-58752691I-176776J176776D01*
G01*
X241954593Y-58293070D01*
G75*
G02*
X241954593Y-57939518I176776J176776D01*
G01*
G37*
G36*
G01*
X240505025Y-56489950D02*
X241141422Y-55853553D01*
G75*
G02*
X241494974Y-55853553I176776J-176776D01*
G01*
X241954595Y-56313174D01*
G75*
G02*
X241954595Y-56666726I-176776J-176776D01*
G01*
X241318198Y-57303123D01*
G75*
G02*
X240964646Y-57303123I-176776J176776D01*
G01*
X240505025Y-56843502D01*
G75*
G02*
X240505025Y-56489950I176776J176776D01*
G01*
G37*
G36*
G01*
X180500000Y-53550001D02*
X180500000Y-52649999D01*
G75*
G02*
X180749999Y-52400000I249999J0D01*
G01*
X181400001Y-52400000D01*
G75*
G02*
X181650000Y-52649999I0J-249999D01*
G01*
X181650000Y-53550001D01*
G75*
G02*
X181400001Y-53800000I-249999J0D01*
G01*
X180749999Y-53800000D01*
G75*
G02*
X180500000Y-53550001I0J249999D01*
G01*
G37*
G36*
G01*
X178450000Y-53550001D02*
X178450000Y-52649999D01*
G75*
G02*
X178699999Y-52400000I249999J0D01*
G01*
X179350001Y-52400000D01*
G75*
G02*
X179600000Y-52649999I0J-249999D01*
G01*
X179600000Y-53550001D01*
G75*
G02*
X179350001Y-53800000I-249999J0D01*
G01*
X178699999Y-53800000D01*
G75*
G02*
X178450000Y-53550001I0J249999D01*
G01*
G37*
G36*
G01*
X120250000Y-53450001D02*
X120250000Y-52549999D01*
G75*
G02*
X120499999Y-52300000I249999J0D01*
G01*
X121150001Y-52300000D01*
G75*
G02*
X121400000Y-52549999I0J-249999D01*
G01*
X121400000Y-53450001D01*
G75*
G02*
X121150001Y-53700000I-249999J0D01*
G01*
X120499999Y-53700000D01*
G75*
G02*
X120250000Y-53450001I0J249999D01*
G01*
G37*
G36*
G01*
X118200000Y-53450001D02*
X118200000Y-52549999D01*
G75*
G02*
X118449999Y-52300000I249999J0D01*
G01*
X119100001Y-52300000D01*
G75*
G02*
X119350000Y-52549999I0J-249999D01*
G01*
X119350000Y-53450001D01*
G75*
G02*
X119100001Y-53700000I-249999J0D01*
G01*
X118449999Y-53700000D01*
G75*
G02*
X118200000Y-53450001I0J249999D01*
G01*
G37*
G36*
G01*
X212150000Y-149650001D02*
X212150000Y-148749999D01*
G75*
G02*
X212399999Y-148500000I249999J0D01*
G01*
X213050001Y-148500000D01*
G75*
G02*
X213300000Y-148749999I0J-249999D01*
G01*
X213300000Y-149650001D01*
G75*
G02*
X213050001Y-149900000I-249999J0D01*
G01*
X212399999Y-149900000D01*
G75*
G02*
X212150000Y-149650001I0J249999D01*
G01*
G37*
G36*
G01*
X210100000Y-149650001D02*
X210100000Y-148749999D01*
G75*
G02*
X210349999Y-148500000I249999J0D01*
G01*
X211000001Y-148500000D01*
G75*
G02*
X211250000Y-148749999I0J-249999D01*
G01*
X211250000Y-149650001D01*
G75*
G02*
X211000001Y-149900000I-249999J0D01*
G01*
X210349999Y-149900000D01*
G75*
G02*
X210100000Y-149650001I0J249999D01*
G01*
G37*
G36*
G01*
X243250001Y-122350000D02*
X242349999Y-122350000D01*
G75*
G02*
X242100000Y-122100001I0J249999D01*
G01*
X242100000Y-121449999D01*
G75*
G02*
X242349999Y-121200000I249999J0D01*
G01*
X243250001Y-121200000D01*
G75*
G02*
X243500000Y-121449999I0J-249999D01*
G01*
X243500000Y-122100001D01*
G75*
G02*
X243250001Y-122350000I-249999J0D01*
G01*
G37*
G36*
G01*
X243250001Y-124400000D02*
X242349999Y-124400000D01*
G75*
G02*
X242100000Y-124150001I0J249999D01*
G01*
X242100000Y-123499999D01*
G75*
G02*
X242349999Y-123250000I249999J0D01*
G01*
X243250001Y-123250000D01*
G75*
G02*
X243500000Y-123499999I0J-249999D01*
G01*
X243500000Y-124150001D01*
G75*
G02*
X243250001Y-124400000I-249999J0D01*
G01*
G37*
G36*
G01*
X243150001Y-61550000D02*
X242249999Y-61550000D01*
G75*
G02*
X242000000Y-61300001I0J249999D01*
G01*
X242000000Y-60649999D01*
G75*
G02*
X242249999Y-60400000I249999J0D01*
G01*
X243150001Y-60400000D01*
G75*
G02*
X243400000Y-60649999I0J-249999D01*
G01*
X243400000Y-61300001D01*
G75*
G02*
X243150001Y-61550000I-249999J0D01*
G01*
G37*
G36*
G01*
X243150001Y-63600000D02*
X242249999Y-63600000D01*
G75*
G02*
X242000000Y-63350001I0J249999D01*
G01*
X242000000Y-62699999D01*
G75*
G02*
X242249999Y-62450000I249999J0D01*
G01*
X243150001Y-62450000D01*
G75*
G02*
X243400000Y-62699999I0J-249999D01*
G01*
X243400000Y-63350001D01*
G75*
G02*
X243150001Y-63600000I-249999J0D01*
G01*
G37*
G36*
G01*
X189400000Y-52649999D02*
X189400000Y-53550001D01*
G75*
G02*
X189150001Y-53800000I-249999J0D01*
G01*
X188499999Y-53800000D01*
G75*
G02*
X188250000Y-53550001I0J249999D01*
G01*
X188250000Y-52649999D01*
G75*
G02*
X188499999Y-52400000I249999J0D01*
G01*
X189150001Y-52400000D01*
G75*
G02*
X189400000Y-52649999I0J-249999D01*
G01*
G37*
G36*
G01*
X191450000Y-52649999D02*
X191450000Y-53550001D01*
G75*
G02*
X191200001Y-53800000I-249999J0D01*
G01*
X190549999Y-53800000D01*
G75*
G02*
X190300000Y-53550001I0J249999D01*
G01*
X190300000Y-52649999D01*
G75*
G02*
X190549999Y-52400000I249999J0D01*
G01*
X191200001Y-52400000D01*
G75*
G02*
X191450000Y-52649999I0J-249999D01*
G01*
G37*
G36*
G01*
X128775000Y-52549999D02*
X128775000Y-53450001D01*
G75*
G02*
X128525001Y-53700000I-249999J0D01*
G01*
X127874999Y-53700000D01*
G75*
G02*
X127625000Y-53450001I0J249999D01*
G01*
X127625000Y-52549999D01*
G75*
G02*
X127874999Y-52300000I249999J0D01*
G01*
X128525001Y-52300000D01*
G75*
G02*
X128775000Y-52549999I0J-249999D01*
G01*
G37*
G36*
G01*
X130825000Y-52549999D02*
X130825000Y-53450001D01*
G75*
G02*
X130575001Y-53700000I-249999J0D01*
G01*
X129924999Y-53700000D01*
G75*
G02*
X129675000Y-53450001I0J249999D01*
G01*
X129675000Y-52549999D01*
G75*
G02*
X129924999Y-52300000I249999J0D01*
G01*
X130575001Y-52300000D01*
G75*
G02*
X130825000Y-52549999I0J-249999D01*
G01*
G37*
G36*
G01*
X207450000Y-148749999D02*
X207450000Y-149650001D01*
G75*
G02*
X207200001Y-149900000I-249999J0D01*
G01*
X206549999Y-149900000D01*
G75*
G02*
X206300000Y-149650001I0J249999D01*
G01*
X206300000Y-148749999D01*
G75*
G02*
X206549999Y-148500000I249999J0D01*
G01*
X207200001Y-148500000D01*
G75*
G02*
X207450000Y-148749999I0J-249999D01*
G01*
G37*
G36*
G01*
X209500000Y-148749999D02*
X209500000Y-149650001D01*
G75*
G02*
X209250001Y-149900000I-249999J0D01*
G01*
X208599999Y-149900000D01*
G75*
G02*
X208350000Y-149650001I0J249999D01*
G01*
X208350000Y-148749999D01*
G75*
G02*
X208599999Y-148500000I249999J0D01*
G01*
X209250001Y-148500000D01*
G75*
G02*
X209500000Y-148749999I0J-249999D01*
G01*
G37*
G36*
G01*
X242350000Y-127050000D02*
X243250002Y-127050000D01*
G75*
G02*
X243500001Y-127299999I0J-249999D01*
G01*
X243500001Y-127950001D01*
G75*
G02*
X243250002Y-128200000I-249999J0D01*
G01*
X242350000Y-128200000D01*
G75*
G02*
X242100001Y-127950001I0J249999D01*
G01*
X242100001Y-127299999D01*
G75*
G02*
X242350000Y-127050000I249999J0D01*
G01*
G37*
G36*
G01*
X242350000Y-125000000D02*
X243250002Y-125000000D01*
G75*
G02*
X243500001Y-125249999I0J-249999D01*
G01*
X243500001Y-125900001D01*
G75*
G02*
X243250002Y-126150000I-249999J0D01*
G01*
X242350000Y-126150000D01*
G75*
G02*
X242100001Y-125900001I0J249999D01*
G01*
X242100001Y-125249999D01*
G75*
G02*
X242350000Y-125000000I249999J0D01*
G01*
G37*
G36*
G01*
X242249999Y-66225001D02*
X243150001Y-66225001D01*
G75*
G02*
X243400000Y-66475000I0J-249999D01*
G01*
X243400000Y-67125002D01*
G75*
G02*
X243150001Y-67375001I-249999J0D01*
G01*
X242249999Y-67375001D01*
G75*
G02*
X242000000Y-67125002I0J249999D01*
G01*
X242000000Y-66475000D01*
G75*
G02*
X242249999Y-66225001I249999J0D01*
G01*
G37*
G36*
G01*
X242249999Y-64175001D02*
X243150001Y-64175001D01*
G75*
G02*
X243400000Y-64425000I0J-249999D01*
G01*
X243400000Y-65075002D01*
G75*
G02*
X243150001Y-65325001I-249999J0D01*
G01*
X242249999Y-65325001D01*
G75*
G02*
X242000000Y-65075002I0J249999D01*
G01*
X242000000Y-64425000D01*
G75*
G02*
X242249999Y-64175001I249999J0D01*
G01*
G37*
G36*
G01*
X194100000Y-53550001D02*
X194100000Y-52649999D01*
G75*
G02*
X194349999Y-52400000I249999J0D01*
G01*
X195000001Y-52400000D01*
G75*
G02*
X195250000Y-52649999I0J-249999D01*
G01*
X195250000Y-53550001D01*
G75*
G02*
X195000001Y-53800000I-249999J0D01*
G01*
X194349999Y-53800000D01*
G75*
G02*
X194100000Y-53550001I0J249999D01*
G01*
G37*
G36*
G01*
X192050000Y-53550001D02*
X192050000Y-52649999D01*
G75*
G02*
X192299999Y-52400000I249999J0D01*
G01*
X192950001Y-52400000D01*
G75*
G02*
X193200000Y-52649999I0J-249999D01*
G01*
X193200000Y-53550001D01*
G75*
G02*
X192950001Y-53800000I-249999J0D01*
G01*
X192299999Y-53800000D01*
G75*
G02*
X192050000Y-53550001I0J249999D01*
G01*
G37*
G36*
G01*
X133450000Y-53450001D02*
X133450000Y-52549999D01*
G75*
G02*
X133699999Y-52300000I249999J0D01*
G01*
X134350001Y-52300000D01*
G75*
G02*
X134600000Y-52549999I0J-249999D01*
G01*
X134600000Y-53450001D01*
G75*
G02*
X134350001Y-53700000I-249999J0D01*
G01*
X133699999Y-53700000D01*
G75*
G02*
X133450000Y-53450001I0J249999D01*
G01*
G37*
G36*
G01*
X131400000Y-53450001D02*
X131400000Y-52549999D01*
G75*
G02*
X131649999Y-52300000I249999J0D01*
G01*
X132300001Y-52300000D01*
G75*
G02*
X132550000Y-52549999I0J-249999D01*
G01*
X132550000Y-53450001D01*
G75*
G02*
X132300001Y-53700000I-249999J0D01*
G01*
X131649999Y-53700000D01*
G75*
G02*
X131400000Y-53450001I0J249999D01*
G01*
G37*
D12*
X83700000Y-116500000D03*
X83700000Y-123500000D03*
G36*
G01*
X118250001Y-139574999D02*
X117349999Y-139574999D01*
G75*
G02*
X117100000Y-139325000I0J249999D01*
G01*
X117100000Y-138674998D01*
G75*
G02*
X117349999Y-138424999I249999J0D01*
G01*
X118250001Y-138424999D01*
G75*
G02*
X118500000Y-138674998I0J-249999D01*
G01*
X118500000Y-139325000D01*
G75*
G02*
X118250001Y-139574999I-249999J0D01*
G01*
G37*
G36*
G01*
X118250001Y-141624999D02*
X117349999Y-141624999D01*
G75*
G02*
X117100000Y-141375000I0J249999D01*
G01*
X117100000Y-140724998D01*
G75*
G02*
X117349999Y-140474999I249999J0D01*
G01*
X118250001Y-140474999D01*
G75*
G02*
X118500000Y-140724998I0J-249999D01*
G01*
X118500000Y-141375000D01*
G75*
G02*
X118250001Y-141624999I-249999J0D01*
G01*
G37*
G36*
G01*
X175050001Y-139174999D02*
X174149999Y-139174999D01*
G75*
G02*
X173900000Y-138925000I0J249999D01*
G01*
X173900000Y-138274998D01*
G75*
G02*
X174149999Y-138024999I249999J0D01*
G01*
X175050001Y-138024999D01*
G75*
G02*
X175300000Y-138274998I0J-249999D01*
G01*
X175300000Y-138925000D01*
G75*
G02*
X175050001Y-139174999I-249999J0D01*
G01*
G37*
G36*
G01*
X175050001Y-141224999D02*
X174149999Y-141224999D01*
G75*
G02*
X173900000Y-140975000I0J249999D01*
G01*
X173900000Y-140324998D01*
G75*
G02*
X174149999Y-140074999I249999J0D01*
G01*
X175050001Y-140074999D01*
G75*
G02*
X175300000Y-140324998I0J-249999D01*
G01*
X175300000Y-140975000D01*
G75*
G02*
X175050001Y-141224999I-249999J0D01*
G01*
G37*
G36*
G01*
X216350000Y-123549999D02*
X216350000Y-124450001D01*
G75*
G02*
X216100001Y-124700000I-249999J0D01*
G01*
X215449999Y-124700000D01*
G75*
G02*
X215200000Y-124450001I0J249999D01*
G01*
X215200000Y-123549999D01*
G75*
G02*
X215449999Y-123300000I249999J0D01*
G01*
X216100001Y-123300000D01*
G75*
G02*
X216350000Y-123549999I0J-249999D01*
G01*
G37*
G36*
G01*
X218400000Y-123549999D02*
X218400000Y-124450001D01*
G75*
G02*
X218150001Y-124700000I-249999J0D01*
G01*
X217499999Y-124700000D01*
G75*
G02*
X217250000Y-124450001I0J249999D01*
G01*
X217250000Y-123549999D01*
G75*
G02*
X217499999Y-123300000I249999J0D01*
G01*
X218150001Y-123300000D01*
G75*
G02*
X218400000Y-123549999I0J-249999D01*
G01*
G37*
G36*
G01*
X221950000Y-94549999D02*
X221950000Y-95450001D01*
G75*
G02*
X221700001Y-95700000I-249999J0D01*
G01*
X221049999Y-95700000D01*
G75*
G02*
X220800000Y-95450001I0J249999D01*
G01*
X220800000Y-94549999D01*
G75*
G02*
X221049999Y-94300000I249999J0D01*
G01*
X221700001Y-94300000D01*
G75*
G02*
X221950000Y-94549999I0J-249999D01*
G01*
G37*
G36*
G01*
X224000000Y-94549999D02*
X224000000Y-95450001D01*
G75*
G02*
X223750001Y-95700000I-249999J0D01*
G01*
X223099999Y-95700000D01*
G75*
G02*
X222850000Y-95450001I0J249999D01*
G01*
X222850000Y-94549999D01*
G75*
G02*
X223099999Y-94300000I249999J0D01*
G01*
X223750001Y-94300000D01*
G75*
G02*
X224000000Y-94549999I0J-249999D01*
G01*
G37*
G36*
G01*
X213350000Y-66149999D02*
X213350000Y-67050001D01*
G75*
G02*
X213100001Y-67300000I-249999J0D01*
G01*
X212449999Y-67300000D01*
G75*
G02*
X212200000Y-67050001I0J249999D01*
G01*
X212200000Y-66149999D01*
G75*
G02*
X212449999Y-65900000I249999J0D01*
G01*
X213100001Y-65900000D01*
G75*
G02*
X213350000Y-66149999I0J-249999D01*
G01*
G37*
G36*
G01*
X215400000Y-66149999D02*
X215400000Y-67050001D01*
G75*
G02*
X215150001Y-67300000I-249999J0D01*
G01*
X214499999Y-67300000D01*
G75*
G02*
X214250000Y-67050001I0J249999D01*
G01*
X214250000Y-66149999D01*
G75*
G02*
X214499999Y-65900000I249999J0D01*
G01*
X215150001Y-65900000D01*
G75*
G02*
X215400000Y-66149999I0J-249999D01*
G01*
G37*
G36*
G01*
X162549999Y-62625001D02*
X163450001Y-62625001D01*
G75*
G02*
X163700000Y-62875000I0J-249999D01*
G01*
X163700000Y-63525002D01*
G75*
G02*
X163450001Y-63775001I-249999J0D01*
G01*
X162549999Y-63775001D01*
G75*
G02*
X162300000Y-63525002I0J249999D01*
G01*
X162300000Y-62875000D01*
G75*
G02*
X162549999Y-62625001I249999J0D01*
G01*
G37*
G36*
G01*
X162549999Y-60575001D02*
X163450001Y-60575001D01*
G75*
G02*
X163700000Y-60825000I0J-249999D01*
G01*
X163700000Y-61475002D01*
G75*
G02*
X163450001Y-61725001I-249999J0D01*
G01*
X162549999Y-61725001D01*
G75*
G02*
X162300000Y-61475002I0J249999D01*
G01*
X162300000Y-60825000D01*
G75*
G02*
X162549999Y-60575001I249999J0D01*
G01*
G37*
G36*
G01*
X101749999Y-62674999D02*
X102650001Y-62674999D01*
G75*
G02*
X102900000Y-62924998I0J-249999D01*
G01*
X102900000Y-63575000D01*
G75*
G02*
X102650001Y-63824999I-249999J0D01*
G01*
X101749999Y-63824999D01*
G75*
G02*
X101500000Y-63575000I0J249999D01*
G01*
X101500000Y-62924998D01*
G75*
G02*
X101749999Y-62674999I249999J0D01*
G01*
G37*
G36*
G01*
X101749999Y-60624999D02*
X102650001Y-60624999D01*
G75*
G02*
X102900000Y-60874998I0J-249999D01*
G01*
X102900000Y-61525000D01*
G75*
G02*
X102650001Y-61774999I-249999J0D01*
G01*
X101749999Y-61774999D01*
G75*
G02*
X101500000Y-61525000I0J249999D01*
G01*
X101500000Y-60874998D01*
G75*
G02*
X101749999Y-60624999I249999J0D01*
G01*
G37*
M02*
